<?xml version="1.0" encoding="utf-8"?>
<!-- Generator: Adobe Illustrator 25.2.2, SVG Export Plug-In . SVG Version: 6.00 Build 0)  -->
<svg version="1.1" xmlns="http://www.w3.org/2000/svg" xmlns:xlink="http://www.w3.org/1999/xlink" x="0px" y="0px"
	 viewBox="0 0 198.43 272.57" style="enable-background:new 0 0 198.43 272.57;" xml:space="preserve">
<style type="text/css">
	.st0{fill:#EFEFEA;}
	.st1{fill:#2E2741;}
	.st2{fill:#FF7024;}
	.st3{fill:#FE5719;}
	.st4{fill:#FFFFFF;}
	.st5{fill:#ECECED;}
	.st6{fill:#868889;}
</style>
<g id="Logos_Farbe">
	<g>
		<rect x="0" y="148.82" class="st1" width="198.43" height="123.75"/>
		<path class="st2" d="M42.31,32.09v10.22H32.09V32.09H42.31 M49.61,24.8H24.8v24.8h24.8V24.8L49.61,24.8z"/>
		<g>
			<rect class="st0" width="24.8" height="24.8"/>
		</g>
		<g>
			<rect y="49.61" class="st1" width="24.8" height="24.8"/>
		</g>
		<path class="st0" d="M67.16,7.33v10.22H56.94V7.33H67.16 M74.45,0.04h-24.8v24.8h24.8V0.04L74.45,0.04z"/>
		<g>
			<g>
				<path class="st2" d="M198.43,24.8V0H99.21v24.8h-24.8v24.8v24.8h-24.8v24.8h24.8v24.8h-24.8v24.8h148.82V49.61h-24.8V24.8
					H198.43z M148.82,99.21H99.21V49.61h49.61V99.21z"/>
			</g>
		</g>
		<g>
			<path class="st0" d="M24.8,207.71v-34.09h13.64c6.26,0,12.16,1.52,12.16,8.43c0,4.84-3.04,7.14-6.5,7.83v0.09
				c4.15,0.74,7.42,2.9,7.42,8.34c0,6.86-6.04,9.4-12.39,9.4H24.8z M32.17,187.67h5.53c3.92,0,5.71-1.48,5.71-4.1
				c0-2.67-1.61-4.15-5.62-4.15h-5.62V187.67z M32.17,202h6.04c4.15,0,5.99-1.66,5.99-4.56c0-2.99-2.17-4.47-6.31-4.47h-5.71V202z"
				/>
			<path class="st2" d="M55.13,207.71v-7.66h7.66v7.66H55.13z"/>
		</g>
		<g>
			<path class="st0" d="M77.8,207.75l12.07-34.23h7.14l12.07,34.23h-7.6l-2.53-7.6H87.33l-2.63,7.6H77.8z M89.17,194.72h8.02
				l-3.92-11.61h-0.09L89.17,194.72z"/>
			<path class="st2" d="M112.39,207.75v-7.66h7.66v7.66H112.39z"/>
		</g>
		<g>
			<path class="st0" d="M135.14,194.67v-21.05h7.51v20.87c0,4.93,1.89,7.69,6.36,7.69c4.42,0,6.26-2.72,6.26-7.69v-20.87h7.37v21.01
				c0,8.38-4.24,13.64-13.73,13.64C139.42,208.26,135.14,203.01,135.14,194.67z"/>
			<path class="st2" d="M165.96,207.71v-7.66h7.66v7.66H165.96z"/>
		</g>
		<g>
			<g>
				<path class="st0" d="M24.81,236.21c0-8.09,4.22-12.13,9.89-12.13c2.81,0,5.45,1.41,7.21,3.43v-12.27h3.78v26.82
					c0,2.81,0.18,4.53,0.7,5.72h-3.96c-0.26-0.75-0.53-2.11-0.53-3.3c-1.85,2.02-4.18,3.65-7.65,3.65
					C28.95,248.12,24.81,244.3,24.81,236.21z M41.91,241.44V230.8c-2.02-2.29-4.22-3.52-6.68-3.52c-4.05,0-6.64,2.86-6.64,8.97
					c0,5.94,2.86,8.75,6.59,8.75C37.87,245,39.98,243.55,41.91,241.44z"/>
				<path class="st0" d="M56.81,219.59v-3.69h3.96v3.69H56.81z M56.9,247.77v-23.21h3.78v23.21H56.9z"/>
				<path class="st0" d="M69.25,250.94c0-2.37,1.63-4.13,4.22-5.14c-1.32-0.62-1.98-1.58-1.98-2.95c0-1.49,1.23-2.77,2.9-3.74
					c-2.24-1.45-3.56-3.78-3.56-6.68c0-4.88,3.91-8.35,9.45-8.35c2.86,0,5.23,0.97,6.86,2.42c1.41-1.05,3.61-1.93,5.5-2.15v3.34
					c-1.28,0-2.81,0.22-4.18,0.75c0.75,1.06,1.19,2.42,1.19,4c0,5.01-3.96,8.27-9.36,8.27c-1.36,0-2.51-0.22-3.69-0.57
					c-0.97,0.44-1.63,1.01-1.63,1.8c0,0.97,0.75,1.41,3.21,1.63l4.75,0.4c5.89,0.4,8.88,2.29,8.88,6.02c0,4.4-4.62,6.73-11.34,6.73
					C72.64,256.7,69.25,254.46,69.25,250.94z M88.34,250.32c0-2.07-1.54-2.99-6.42-3.34l-4.4-0.31c-0.44-0.04-0.88-0.09-1.32-0.13
					c-2.24,0.79-3.43,2.24-3.43,3.82c0,2.33,2.42,3.47,8.18,3.47C85.57,253.84,88.34,252.43,88.34,250.32z M86.14,232.52
					c0-3.39-2.11-5.5-5.85-5.5c-3.61,0-5.85,2.15-5.85,5.5c0,3.34,2.33,5.41,5.89,5.41S86.14,235.86,86.14,232.52z"/>
				<path class="st0" d="M101.52,219.59v-3.69h3.96v3.69H101.52z M101.61,247.77v-23.21h3.78v23.21H101.61z"/>
				<path class="st0" d="M118.23,242.15v-14.46h-4.04v-3.12h4.04v-8.27h3.78v8.27h6.02v3.12h-6.02v13.63c0,2.46,0.79,3.69,3.61,3.69
					c0.84,0,1.76-0.13,2.37-0.31v3.12c-0.66,0.13-2.11,0.26-3.3,0.26C119.81,248.08,118.23,246.19,118.23,242.15z"/>
				<path class="st0" d="M135.76,242.28c0-4.7,4-8.05,15.52-9.67v-1.06c0-2.9-1.54-4.31-4.4-4.31c-3.52,0-6.11,1.54-8.4,3.52
					l-1.98-2.37c2.68-2.46,6.15-4.31,10.77-4.31c5.54,0,7.74,2.9,7.74,7.74v10.24c0,2.81,0.18,4.53,0.66,5.72h-3.87
					c-0.31-0.97-0.53-1.89-0.53-3.21c-2.59,2.42-5.5,3.56-8.97,3.56C138.32,248.12,135.76,246.01,135.76,242.28z M151.28,241.75
					v-6.51c-8.84,1.41-11.78,3.56-11.78,6.46c0,2.24,1.49,3.43,3.91,3.43C146.49,245.14,149.13,243.86,151.28,241.75z"/>
				<path class="st0" d="M165.96,247.77v-32.53h3.78v32.53H165.96z"/>
			</g>
		</g>
		<g>
			<rect x="173.62" y="24.8" class="st1" width="24.8" height="24.8"/>
		</g>
		<path class="st0" d="M42.31,106.51v10.22H32.09v-10.22H42.31 M49.61,99.22H24.8v24.8h24.8V99.22L49.61,99.22z"/>
		<g>
			<path class="st0" d="M124,136.47V111.6h15.66v3.9H128.2v6.66h8.3v3.73h-8.3v10.59H124z"/>
			<path class="st0" d="M144.57,136.47V111.6h4.24v24.87H144.57z"/>
			<path class="st0" d="M154.08,136.43v-24.87h6.94c7.63,0,12.62,3.63,12.62,12.34c0,8.87-5.1,12.54-12.62,12.54H154.08z
				 M158.19,132.67h3.19c5.56,0,8.15-2.49,8.15-8.77c0-5.98-2.63-8.44-8.22-8.44h-3.12V132.67z"/>
		</g>
	</g>
</g>
<g id="Logos_SW">
</g>
</svg>
