<svg xmlns="http://www.w3.org/2000/svg" width="77.996" height="57.612" viewBox="0 0 77.996 57.612">
  <g id="baudigital_logo" transform="translate(-110.25 -17.024)">
    <g id="Gruppe_160" data-name="Gruppe 160" transform="translate(111 17.774)">
      <g id="Gruppe_153" data-name="Gruppe 153" transform="translate(0 0)">
        <g id="Gruppe_152" data-name="Gruppe 152" transform="translate(0 0)">
          <path id="Pfad_737" data-name="Pfad 737" d="M767.613,36.393h10.838c2.962,0,5.053.871,6.308,2.649a6.094,6.094,0,0,1,1.115,3.59,5.666,5.666,0,0,1-1.359,3.9A6.884,6.884,0,0,1,782.494,48a8.213,8.213,0,0,1,2.893,1.673,6.07,6.07,0,0,1,1.708,4.531,7.089,7.089,0,0,1-1.533,4.391c-1.533,1.952-3.938,2.927-7.284,2.927H767.613Zm9.549,10.629a7.945,7.945,0,0,0,3.38-.592,3.433,3.433,0,0,0,1.882-3.38,3.23,3.23,0,0,0-2.021-3.311,9.243,9.243,0,0,0-3.38-.488h-6.134v7.772Zm1.15,11.57c2.091,0,3.589-.592,4.5-1.812a4.53,4.53,0,0,0,.836-2.753A3.712,3.712,0,0,0,781.17,50.3a9.454,9.454,0,0,0-3.45-.523h-6.8v8.817Z" transform="translate(-741.531 -29.807)" fill="#fff"/>
          <path id="Pfad_738" data-name="Pfad 738" d="M830.354,36.393h3.833l9.1,25.092h-3.729l-2.614-7.528h-9.862l-2.718,7.528h-3.485ZM835.965,51.2l-3.833-11.082L828.124,51.2Z" transform="translate(-776.044 -29.807)" fill="#fff"/>
          <path id="Pfad_739" data-name="Pfad 739" d="M843.229,107.317V122.09a8.94,8.94,0,0,0,1.011,4.426,5.3,5.3,0,0,0,5.018,2.649c2.823,0,4.74-.976,5.785-2.893a8.969,8.969,0,0,0,.836-4.217V107.282h3.346v13.379A15.955,15.955,0,0,1,858,127.6c-1.5,2.962-4.321,4.426-8.468,4.426s-6.97-1.464-8.434-4.426a15.955,15.955,0,0,1-1.22-6.935V107.282h3.346Z" transform="translate(-788.36 -75.741)" fill="#fff"/>
          <rect id="Rechteck_261" data-name="Rechteck 261" width="12.321" height="12.321" transform="translate(64.175 19.15)" fill="none" stroke="#fff" stroke-miterlimit="10" stroke-width="1.5"/>
          <rect id="Rechteck_262" data-name="Rechteck 262" width="12.321" height="12.321" transform="translate(64.175 31.471)" fill="none" stroke="#fff" stroke-miterlimit="10" stroke-width="1.5"/>
          <rect id="Rechteck_263" data-name="Rechteck 263" width="12.321" height="12.321" transform="translate(64.175 43.791)" fill="none" stroke="#fff" stroke-miterlimit="10" stroke-width="1.5"/>
          <rect id="Rechteck_264" data-name="Rechteck 264" width="12.321" height="12.321" transform="translate(51.854 31.471)" fill="none" stroke="#fff" stroke-miterlimit="10" stroke-width="1.5"/>
          <rect id="Rechteck_265" data-name="Rechteck 265" width="12.321" height="12.321" transform="translate(39.534 31.471)" fill="none" stroke="#fff" stroke-miterlimit="10" stroke-width="1.5"/>
          <rect id="Rechteck_266" data-name="Rechteck 266" width="12.321" height="12.321" transform="translate(27.213 43.791)" fill="none" stroke="#fff" stroke-miterlimit="10" stroke-width="1.5"/>
          <rect id="Rechteck_267" data-name="Rechteck 267" width="12.321" height="12.321" transform="translate(8.096 0)" fill="none" stroke="#fff" stroke-miterlimit="10" stroke-width="1.5"/>
          <rect id="Rechteck_268" data-name="Rechteck 268" width="8.096" height="8.096" transform="translate(0 18.692)" fill="none" stroke="#fff" stroke-miterlimit="10" stroke-width="1.5"/>
          <rect id="Rechteck_269" data-name="Rechteck 269" width="15.401" height="15.401" transform="translate(17.973 22.23)" fill="none" stroke="#fff" stroke-miterlimit="10" stroke-width="1.5"/>
          <rect id="Rechteck_270" data-name="Rechteck 270" width="12.321" height="12.321" transform="translate(51.854 43.791)" fill="none" stroke="#fff" stroke-miterlimit="10" stroke-width="1.5"/>
        </g>
      </g>
    </g>
  </g>
</svg>
