<svg xmlns="http://www.w3.org/2000/svg" version="1.1" xmlns:xlink="http://www.w3.org/1999/xlink" xmlns:svgjs="http://svgjs.com/svgjs" width="2200" height="300" preserveAspectRatio="none" viewBox="0 0 2200 300"><g mask="url(&quot;#SvgjsMask1328&quot;)" fill="none"><path d="M-75.84 240.25L-75.84 240.25" stroke="rgba(192, 214, 223, 1)" stroke-width="1.5"></path><path d="M-75.84 240.25L48.77 245.87" stroke="rgba(192, 214, 223, 1)" stroke-width="1.5"></path><path d="M-75.84 240.25L-103.85 368.7" stroke="rgba(192, 214, 223, 1)" stroke-width="1.5"></path><path d="M-75.84 240.25L112.37 385.23" stroke="rgba(192, 214, 223, 1)" stroke-width="1.5"></path><path d="M-75.84 240.25L254.77 197.44" stroke="rgba(192, 214, 223, 1)" stroke-width="1.5"></path><path d="M-75.84 240.25L215.55 410.22" stroke="rgba(192, 214, 223, 1)" stroke-width="1.5"></path><path d="M-103.85 368.7L-103.85 368.7" stroke="rgba(192, 214, 223, 1)" stroke-width="1.5"></path><path d="M-103.85 368.7L48.77 245.87" stroke="rgba(192, 214, 223, 1)" stroke-width="1.5"></path><path d="M-103.85 368.7L112.37 385.23" stroke="rgba(192, 214, 223, 1)" stroke-width="1.5"></path><path d="M-103.85 368.7L215.55 410.22" stroke="rgba(192, 214, 223, 1)" stroke-width="1.5"></path><path d="M48.77 245.87L48.77 245.87" stroke="rgba(192, 214, 223, 1)" stroke-width="1.5"></path><path d="M48.77 245.87L112.37 385.23" stroke="rgba(192, 214, 223, 1)" stroke-width="1.5"></path><path d="M48.77 245.87L254.77 197.44" stroke="rgba(192, 214, 223, 1)" stroke-width="1.5"></path><path d="M48.77 245.87L215.55 410.22" stroke="rgba(192, 214, 223, 1)" stroke-width="1.5"></path><path d="M112.37 385.23L112.37 385.23" stroke="rgba(192, 214, 223, 1)" stroke-width="1.5"></path><path d="M112.37 385.23L215.55 410.22" stroke="rgba(192, 214, 223, 1)" stroke-width="1.5"></path><path d="M254.77 197.44L254.77 197.44" stroke="rgba(192, 214, 223, 1)" stroke-width="1.5"></path><path d="M254.77 197.44L391.61 239.06" stroke="rgba(192, 214, 223, 1)" stroke-width="1.5"></path><path d="M254.77 197.44L215.55 410.22" stroke="rgba(192, 214, 223, 1)" stroke-width="1.5"></path><path d="M215.55 410.22L215.55 410.22" stroke="rgba(192, 214, 223, 1)" stroke-width="1.5"></path><path d="M215.55 410.22L386.94 405.72" stroke="rgba(192, 214, 223, 1)" stroke-width="1.5"></path><path d="M391.61 239.06L391.61 239.06" stroke="rgba(192, 214, 223, 1)" stroke-width="1.5"></path><path d="M391.61 239.06L510.64 238.68" stroke="rgba(192, 214, 223, 1)" stroke-width="1.5"></path><path d="M391.61 239.06L386.94 405.72" stroke="rgba(192, 214, 223, 1)" stroke-width="1.5"></path><path d="M386.94 405.72L386.94 405.72" stroke="rgba(192, 214, 223, 1)" stroke-width="1.5"></path><path d="M510.64 238.68L510.64 238.68" stroke="rgba(192, 214, 223, 1)" stroke-width="1.5"></path><path d="M510.64 238.68L559.16 340.06" stroke="rgba(192, 214, 223, 1)" stroke-width="1.5"></path><path d="M510.64 238.68L674.45 205.62" stroke="rgba(192, 214, 223, 1)" stroke-width="1.5"></path><path d="M510.64 238.68L386.94 405.72" stroke="rgba(192, 214, 223, 1)" stroke-width="1.5"></path><path d="M510.64 238.68L679.14 375.9" stroke="rgba(192, 214, 223, 1)" stroke-width="1.5"></path><path d="M510.64 238.68L254.77 197.44" stroke="rgba(192, 214, 223, 1)" stroke-width="1.5"></path><path d="M559.16 340.06L559.16 340.06" stroke="rgba(192, 214, 223, 1)" stroke-width="1.5"></path><path d="M559.16 340.06L679.14 375.9" stroke="rgba(192, 214, 223, 1)" stroke-width="1.5"></path><path d="M674.45 205.62L674.45 205.62" stroke="rgba(192, 214, 223, 1)" stroke-width="1.5"></path><path d="M674.45 205.62L808.82 192.05" stroke="rgba(192, 214, 223, 1)" stroke-width="1.5"></path><path d="M674.45 205.62L679.14 375.9" stroke="rgba(192, 214, 223, 1)" stroke-width="1.5"></path><path d="M674.45 205.62L559.16 340.06" stroke="rgba(192, 214, 223, 1)" stroke-width="1.5"></path><path d="M674.45 205.62L799.78 359.79" stroke="rgba(192, 214, 223, 1)" stroke-width="1.5"></path><path d="M679.14 375.9L679.14 375.9" stroke="rgba(192, 214, 223, 1)" stroke-width="1.5"></path><path d="M679.14 375.9L799.78 359.79" stroke="rgba(192, 214, 223, 1)" stroke-width="1.5"></path><path d="M808.82 192.05L808.82 192.05" stroke="rgba(192, 214, 223, 1)" stroke-width="1.5"></path><path d="M808.82 192.05L799.78 359.79" stroke="rgba(192, 214, 223, 1)" stroke-width="1.5"></path><path d="M808.82 192.05L1011.06 248.07" stroke="rgba(192, 214, 223, 1)" stroke-width="1.5"></path><path d="M799.78 359.79L799.78 359.79" stroke="rgba(192, 214, 223, 1)" stroke-width="1.5"></path><path d="M1011.06 248.07L1011.06 248.07" stroke="rgba(192, 214, 223, 1)" stroke-width="1.5"></path><path d="M1011.06 248.07L997.36 352.9" stroke="rgba(192, 214, 223, 1)" stroke-width="1.5"></path><path d="M1011.06 248.07L1127.53 260.96" stroke="rgba(192, 214, 223, 1)" stroke-width="1.5"></path><path d="M1011.06 248.07L1152.9 393.84" stroke="rgba(192, 214, 223, 1)" stroke-width="1.5"></path><path d="M997.36 352.9L997.36 352.9" stroke="rgba(192, 214, 223, 1)" stroke-width="1.5"></path><path d="M997.36 352.9L1127.53 260.96" stroke="rgba(192, 214, 223, 1)" stroke-width="1.5"></path><path d="M1127.53 260.96L1127.53 260.96" stroke="rgba(192, 214, 223, 1)" stroke-width="1.5"></path><path d="M1127.53 260.96L1152.9 393.84" stroke="rgba(192, 214, 223, 1)" stroke-width="1.5"></path><path d="M1127.53 260.96L1293.28 196.3" stroke="rgba(192, 214, 223, 1)" stroke-width="1.5"></path><path d="M1127.53 260.96L1257.66 392.92" stroke="rgba(192, 214, 223, 1)" stroke-width="1.5"></path><path d="M1127.53 260.96L1397.51 386.88" stroke="rgba(192, 214, 223, 1)" stroke-width="1.5"></path><path d="M1152.9 393.84L1152.9 393.84" stroke="rgba(192, 214, 223, 1)" stroke-width="1.5"></path><path d="M1152.9 393.84L1257.66 392.92" stroke="rgba(192, 214, 223, 1)" stroke-width="1.5"></path><path d="M1293.28 196.3L1293.28 196.3" stroke="rgba(192, 214, 223, 1)" stroke-width="1.5"></path><path d="M1293.28 196.3L1388.56 90.71" stroke="rgba(192, 214, 223, 1)" stroke-width="1.5"></path><path d="M1293.28 196.3L1444.95 260.75" stroke="rgba(192, 214, 223, 1)" stroke-width="1.5"></path><path d="M1293.28 196.3L1257.66 392.92" stroke="rgba(192, 214, 223, 1)" stroke-width="1.5"></path><path d="M1293.28 196.3L1397.51 386.88" stroke="rgba(192, 214, 223, 1)" stroke-width="1.5"></path><path d="M1257.66 392.92L1257.66 392.92" stroke="rgba(192, 214, 223, 1)" stroke-width="1.5"></path><path d="M1257.66 392.92L1397.51 386.88" stroke="rgba(192, 214, 223, 1)" stroke-width="1.5"></path><path d="M1436.45 -93.79L1436.45 -93.79" stroke="rgba(192, 214, 223, 1)" stroke-width="1.5"></path><path d="M1436.45 -93.79L1566.18 -87.77" stroke="rgba(192, 214, 223, 1)" stroke-width="1.5"></path><path d="M1436.45 -93.79L1388.56 90.71" stroke="rgba(192, 214, 223, 1)" stroke-width="1.5"></path><path d="M1436.45 -93.79L1593.2 57.32" stroke="rgba(192, 214, 223, 1)" stroke-width="1.5"></path><path d="M1436.45 -93.79L1713.07 -104.92" stroke="rgba(192, 214, 223, 1)" stroke-width="1.5"></path><path d="M1388.56 90.71L1388.56 90.71" stroke="rgba(192, 214, 223, 1)" stroke-width="1.5"></path><path d="M1388.56 90.71L1444.95 260.75" stroke="rgba(192, 214, 223, 1)" stroke-width="1.5"></path><path d="M1444.95 260.75L1444.95 260.75" stroke="rgba(192, 214, 223, 1)" stroke-width="1.5"></path><path d="M1444.95 260.75L1397.51 386.88" stroke="rgba(192, 214, 223, 1)" stroke-width="1.5"></path><path d="M1444.95 260.75L1257.66 392.92" stroke="rgba(192, 214, 223, 1)" stroke-width="1.5"></path><path d="M1444.95 260.75L1593.2 57.32" stroke="rgba(192, 214, 223, 1)" stroke-width="1.5"></path><path d="M1444.95 260.75L1689.48 354.63" stroke="rgba(192, 214, 223, 1)" stroke-width="1.5"></path><path d="M1397.51 386.88L1397.51 386.88" stroke="rgba(192, 214, 223, 1)" stroke-width="1.5"></path><path d="M1566.18 -87.77L1566.18 -87.77" stroke="rgba(192, 214, 223, 1)" stroke-width="1.5"></path><path d="M1566.18 -87.77L1593.2 57.32" stroke="rgba(192, 214, 223, 1)" stroke-width="1.5"></path><path d="M1566.18 -87.77L1713.07 -104.92" stroke="rgba(192, 214, 223, 1)" stroke-width="1.5"></path><path d="M1566.18 -87.77L1700.01 39.85" stroke="rgba(192, 214, 223, 1)" stroke-width="1.5"></path><path d="M1566.18 -87.77L1388.56 90.71" stroke="rgba(192, 214, 223, 1)" stroke-width="1.5"></path><path d="M1593.2 57.32L1593.2 57.32" stroke="rgba(192, 214, 223, 1)" stroke-width="1.5"></path><path d="M1593.2 57.32L1700.01 39.85" stroke="rgba(192, 214, 223, 1)" stroke-width="1.5"></path><path d="M1593.2 57.32L1713.07 -104.92" stroke="rgba(192, 214, 223, 1)" stroke-width="1.5"></path><path d="M1713.07 -104.92L1713.07 -104.92" stroke="rgba(192, 214, 223, 1)" stroke-width="1.5"></path><path d="M1713.07 -104.92L1700.01 39.85" stroke="rgba(192, 214, 223, 1)" stroke-width="1.5"></path><path d="M1713.07 -104.92L1863.8 -51.79" stroke="rgba(192, 214, 223, 1)" stroke-width="1.5"></path><path d="M1713.07 -104.92L1893.51 43.28" stroke="rgba(192, 214, 223, 1)" stroke-width="1.5"></path><path d="M1700.01 39.85L1700.01 39.85" stroke="rgba(192, 214, 223, 1)" stroke-width="1.5"></path><path d="M1732.08 210.08L1732.08 210.08" stroke="rgba(192, 214, 223, 1)" stroke-width="1.5"></path><path d="M1732.08 210.08L1689.48 354.63" stroke="rgba(192, 214, 223, 1)" stroke-width="1.5"></path><path d="M1732.08 210.08L1901.27 201.71" stroke="rgba(192, 214, 223, 1)" stroke-width="1.5"></path><path d="M1732.08 210.08L1700.01 39.85" stroke="rgba(192, 214, 223, 1)" stroke-width="1.5"></path><path d="M1732.08 210.08L1593.2 57.32" stroke="rgba(192, 214, 223, 1)" stroke-width="1.5"></path><path d="M1689.48 354.63L1689.48 354.63" stroke="rgba(192, 214, 223, 1)" stroke-width="1.5"></path><path d="M1689.48 354.63L1912.5 397.42" stroke="rgba(192, 214, 223, 1)" stroke-width="1.5"></path><path d="M1689.48 354.63L1901.27 201.71" stroke="rgba(192, 214, 223, 1)" stroke-width="1.5"></path><path d="M1863.8 -51.79L1863.8 -51.79" stroke="rgba(192, 214, 223, 1)" stroke-width="1.5"></path><path d="M1863.8 -51.79L1893.51 43.28" stroke="rgba(192, 214, 223, 1)" stroke-width="1.5"></path><path d="M1863.8 -51.79L2029.61 -79.45" stroke="rgba(192, 214, 223, 1)" stroke-width="1.5"></path><path d="M1863.8 -51.79L1700.01 39.85" stroke="rgba(192, 214, 223, 1)" stroke-width="1.5"></path><path d="M1863.8 -51.79L2014.93 75.11" stroke="rgba(192, 214, 223, 1)" stroke-width="1.5"></path><path d="M1863.8 -51.79L1901.27 201.71" stroke="rgba(192, 214, 223, 1)" stroke-width="1.5"></path><path d="M1893.51 43.28L1893.51 43.28" stroke="rgba(192, 214, 223, 1)" stroke-width="1.5"></path><path d="M1893.51 43.28L2014.93 75.11" stroke="rgba(192, 214, 223, 1)" stroke-width="1.5"></path><path d="M1893.51 43.28L1901.27 201.71" stroke="rgba(192, 214, 223, 1)" stroke-width="1.5"></path><path d="M1893.51 43.28L2029.61 -79.45" stroke="rgba(192, 214, 223, 1)" stroke-width="1.5"></path><path d="M1893.51 43.28L1700.01 39.85" stroke="rgba(192, 214, 223, 1)" stroke-width="1.5"></path><path d="M1901.27 201.71L1901.27 201.71" stroke="rgba(192, 214, 223, 1)" stroke-width="1.5"></path><path d="M1901.27 201.71L2021.1 236.17" stroke="rgba(192, 214, 223, 1)" stroke-width="1.5"></path><path d="M1912.5 397.42L1912.5 397.42" stroke="rgba(192, 214, 223, 1)" stroke-width="1.5"></path><path d="M1912.5 397.42L2014.49 360.78" stroke="rgba(192, 214, 223, 1)" stroke-width="1.5"></path><path d="M1912.5 397.42L2021.1 236.17" stroke="rgba(192, 214, 223, 1)" stroke-width="1.5"></path><path d="M1912.5 397.42L1901.27 201.71" stroke="rgba(192, 214, 223, 1)" stroke-width="1.5"></path><path d="M2029.61 -79.45L2029.61 -79.45" stroke="rgba(192, 214, 223, 1)" stroke-width="1.5"></path><path d="M2029.61 -79.45L2145.76 -96.24" stroke="rgba(192, 214, 223, 1)" stroke-width="1.5"></path><path d="M2029.61 -79.45L2014.93 75.11" stroke="rgba(192, 214, 223, 1)" stroke-width="1.5"></path><path d="M2029.61 -79.45L2175.94 65.88" stroke="rgba(192, 214, 223, 1)" stroke-width="1.5"></path><path d="M2014.93 75.11L2014.93 75.11" stroke="rgba(192, 214, 223, 1)" stroke-width="1.5"></path><path d="M2021.1 236.17L2021.1 236.17" stroke="rgba(192, 214, 223, 1)" stroke-width="1.5"></path><path d="M2021.1 236.17L2014.49 360.78" stroke="rgba(192, 214, 223, 1)" stroke-width="1.5"></path><path d="M2021.1 236.17L2014.93 75.11" stroke="rgba(192, 214, 223, 1)" stroke-width="1.5"></path><path d="M2021.1 236.17L2193.94 218.48" stroke="rgba(192, 214, 223, 1)" stroke-width="1.5"></path><path d="M2014.49 360.78L2014.49 360.78" stroke="rgba(192, 214, 223, 1)" stroke-width="1.5"></path><path d="M2014.49 360.78L2200.71 365.3" stroke="rgba(192, 214, 223, 1)" stroke-width="1.5"></path><path d="M2014.49 360.78L1901.27 201.71" stroke="rgba(192, 214, 223, 1)" stroke-width="1.5"></path><path d="M2014.49 360.78L2193.94 218.48" stroke="rgba(192, 214, 223, 1)" stroke-width="1.5"></path><path d="M2145.76 -96.24L2145.76 -96.24" stroke="rgba(192, 214, 223, 1)" stroke-width="1.5"></path><path d="M2145.76 -96.24L2175.94 65.88" stroke="rgba(192, 214, 223, 1)" stroke-width="1.5"></path><path d="M2145.76 -96.24L2310.94 -108.53" stroke="rgba(192, 214, 223, 1)" stroke-width="1.5"></path><path d="M2145.76 -96.24L2288.16 48.34" stroke="rgba(192, 214, 223, 1)" stroke-width="1.5"></path><path d="M2175.94 65.88L2175.94 65.88" stroke="rgba(192, 214, 223, 1)" stroke-width="1.5"></path><path d="M2175.94 65.88L2288.16 48.34" stroke="rgba(192, 214, 223, 1)" stroke-width="1.5"></path><path d="M2175.94 65.88L2193.94 218.48" stroke="rgba(192, 214, 223, 1)" stroke-width="1.5"></path><path d="M2175.94 65.88L2014.93 75.11" stroke="rgba(192, 214, 223, 1)" stroke-width="1.5"></path><path d="M2193.94 218.48L2193.94 218.48" stroke="rgba(192, 214, 223, 1)" stroke-width="1.5"></path><path d="M2193.94 218.48L2300.55 209.03" stroke="rgba(192, 214, 223, 1)" stroke-width="1.5"></path><path d="M2193.94 218.48L2200.71 365.3" stroke="rgba(192, 214, 223, 1)" stroke-width="1.5"></path><path d="M2200.71 365.3L2200.71 365.3" stroke="rgba(192, 214, 223, 1)" stroke-width="1.5"></path><path d="M2200.71 365.3L2304.45 358.99" stroke="rgba(192, 214, 223, 1)" stroke-width="1.5"></path><path d="M2200.71 365.3L2300.55 209.03" stroke="rgba(192, 214, 223, 1)" stroke-width="1.5"></path><path d="M2200.71 365.3L2021.1 236.17" stroke="rgba(192, 214, 223, 1)" stroke-width="1.5"></path><path d="M2200.71 365.3L1912.5 397.42" stroke="rgba(192, 214, 223, 1)" stroke-width="1.5"></path><path d="M2310.94 -108.53L2310.94 -108.53" stroke="rgba(192, 214, 223, 1)" stroke-width="1.5"></path><path d="M2310.94 -108.53L2288.16 48.34" stroke="rgba(192, 214, 223, 1)" stroke-width="1.5"></path><path d="M2310.94 -108.53L2175.94 65.88" stroke="rgba(192, 214, 223, 1)" stroke-width="1.5"></path><path d="M2310.94 -108.53L2029.61 -79.45" stroke="rgba(192, 214, 223, 1)" stroke-width="1.5"></path><path d="M2310.94 -108.53L2300.55 209.03" stroke="rgba(192, 214, 223, 1)" stroke-width="1.5"></path><path d="M2288.16 48.34L2288.16 48.34" stroke="rgba(192, 214, 223, 1)" stroke-width="1.5"></path><path d="M2300.55 209.03L2300.55 209.03" stroke="rgba(192, 214, 223, 1)" stroke-width="1.5"></path><path d="M2300.55 209.03L2304.45 358.99" stroke="rgba(192, 214, 223, 1)" stroke-width="1.5"></path><path d="M2300.55 209.03L2288.16 48.34" stroke="rgba(192, 214, 223, 1)" stroke-width="1.5"></path><path d="M2300.55 209.03L2175.94 65.88" stroke="rgba(192, 214, 223, 1)" stroke-width="1.5"></path><path d="M2304.45 358.99L2304.45 358.99" stroke="rgba(192, 214, 223, 1)" stroke-width="1.5"></path><path d="M2304.45 358.99L2193.94 218.48" stroke="rgba(192, 214, 223, 1)" stroke-width="1.5"></path><path d="M2304.45 358.99L2014.49 360.78" stroke="rgba(192, 214, 223, 1)" stroke-width="1.5"></path><path d="M2304.45 358.99L2021.1 236.17" stroke="rgba(192, 214, 223, 1)" stroke-width="1.5"></path><circle r="5" cx="-75.84" cy="240.25" fill="rgba(192, 214, 223, 1)"></circle><circle r="5" cx="-103.85" cy="368.7" fill="rgba(192, 214, 223, 1)"></circle><circle r="5" cx="48.77" cy="245.87" fill="rgba(192, 214, 223, 1)"></circle><circle r="5" cx="112.37" cy="385.23" fill="rgba(192, 214, 223, 1)"></circle><circle r="5" cx="254.77" cy="197.44" fill="rgba(192, 214, 223, 1)"></circle><circle r="5" cx="215.55" cy="410.22" fill="rgba(192, 214, 223, 1)"></circle><circle r="5" cx="391.61" cy="239.06" fill="rgba(192, 214, 223, 1)"></circle><circle r="5" cx="386.94" cy="405.72" fill="rgba(192, 214, 223, 1)"></circle><circle r="5" cx="510.64" cy="238.68" fill="rgba(192, 214, 223, 1)"></circle><circle r="5" cx="559.16" cy="340.06" fill="rgba(192, 214, 223, 1)"></circle><circle r="5" cx="674.45" cy="205.62" fill="rgba(192, 214, 223, 1)"></circle><circle r="5" cx="679.14" cy="375.9" fill="rgba(192, 214, 223, 1)"></circle><circle r="5" cx="808.82" cy="192.05" fill="rgba(192, 214, 223, 1)"></circle><circle r="5" cx="799.78" cy="359.79" fill="rgba(192, 214, 223, 1)"></circle><circle r="5" cx="1011.06" cy="248.07" fill="rgba(192, 214, 223, 1)"></circle><circle r="5" cx="997.36" cy="352.9" fill="rgba(192, 214, 223, 1)"></circle><circle r="5" cx="1127.53" cy="260.96" fill="rgba(192, 214, 223, 1)"></circle><circle r="5" cx="1152.9" cy="393.84" fill="rgba(192, 214, 223, 1)"></circle><circle r="5" cx="1293.28" cy="196.3" fill="rgba(192, 214, 223, 1)"></circle><circle r="5" cx="1257.66" cy="392.92" fill="rgba(192, 214, 223, 1)"></circle><circle r="5" cx="1436.45" cy="-93.79" fill="rgba(192, 214, 223, 1)"></circle><circle r="5" cx="1388.56" cy="90.71" fill="rgba(192, 214, 223, 1)"></circle><circle r="5" cx="1444.95" cy="260.75" fill="rgba(192, 214, 223, 1)"></circle><circle r="5" cx="1397.51" cy="386.88" fill="rgba(192, 214, 223, 1)"></circle><circle r="5" cx="1566.18" cy="-87.77" fill="rgba(192, 214, 223, 1)"></circle><circle r="5" cx="1593.2" cy="57.32" fill="rgba(192, 214, 223, 1)"></circle><circle r="5" cx="1713.07" cy="-104.92" fill="rgba(192, 214, 223, 1)"></circle><circle r="5" cx="1700.01" cy="39.85" fill="rgba(192, 214, 223, 1)"></circle><circle r="5" cx="1732.08" cy="210.08" fill="rgba(192, 214, 223, 1)"></circle><circle r="5" cx="1689.48" cy="354.63" fill="rgba(192, 214, 223, 1)"></circle><circle r="5" cx="1863.8" cy="-51.79" fill="rgba(192, 214, 223, 1)"></circle><circle r="5" cx="1893.51" cy="43.28" fill="rgba(192, 214, 223, 1)"></circle><circle r="5" cx="1901.27" cy="201.71" fill="rgba(192, 214, 223, 1)"></circle><circle r="5" cx="1912.5" cy="397.42" fill="rgba(192, 214, 223, 1)"></circle><circle r="5" cx="2029.61" cy="-79.45" fill="rgba(192, 214, 223, 1)"></circle><circle r="5" cx="2014.93" cy="75.11" fill="rgba(192, 214, 223, 1)"></circle><circle r="5" cx="2021.1" cy="236.17" fill="rgba(192, 214, 223, 1)"></circle><circle r="5" cx="2014.49" cy="360.78" fill="rgba(192, 214, 223, 1)"></circle><circle r="5" cx="2145.76" cy="-96.24" fill="rgba(192, 214, 223, 1)"></circle><circle r="5" cx="2175.94" cy="65.88" fill="rgba(192, 214, 223, 1)"></circle><circle r="5" cx="2193.94" cy="218.48" fill="rgba(192, 214, 223, 1)"></circle><circle r="5" cx="2200.71" cy="365.3" fill="rgba(192, 214, 223, 1)"></circle><circle r="5" cx="2310.94" cy="-108.53" fill="rgba(192, 214, 223, 1)"></circle><circle r="5" cx="2288.16" cy="48.34" fill="rgba(192, 214, 223, 1)"></circle><circle r="5" cx="2300.55" cy="209.03" fill="rgba(192, 214, 223, 1)"></circle><circle r="5" cx="2304.45" cy="358.99" fill="rgba(192, 214, 223, 1)"></circle><path d="M232.51 364.63L232.51 364.63" stroke="hsl(17, 69.5%, 73.2%)" stroke-width="1.5"></path><path d="M232.51 364.63L213.89 254.4" stroke="hsl(17, 69.5%, 73.2%)" stroke-width="1.5"></path><path d="M232.51 364.63L366.68 362.3" stroke="hsl(17, 69.5%, 73.2%)" stroke-width="1.5"></path><path d="M232.51 364.63L46.67 367.1" stroke="hsl(17, 69.5%, 73.2%)" stroke-width="1.5"></path><path d="M232.51 364.63L382.42 254.68" stroke="hsl(17, 69.5%, 73.2%)" stroke-width="1.5"></path><path d="M232.51 364.63L523.72 393.64" stroke="hsl(17, 69.5%, 73.2%)" stroke-width="1.5"></path><path d="M366.68 362.3L366.68 362.3" stroke="hsl(17, 69.5%, 73.2%)" stroke-width="1.5"></path><path d="M366.68 362.3L382.42 254.68" stroke="hsl(17, 69.5%, 73.2%)" stroke-width="1.5"></path><path d="M523.72 393.64L523.72 393.64" stroke="hsl(17, 69.5%, 73.2%)" stroke-width="1.5"></path><path d="M523.72 393.64L663.54 340.93" stroke="hsl(17, 69.5%, 73.2%)" stroke-width="1.5"></path><path d="M523.72 393.64L366.68 362.3" stroke="hsl(17, 69.5%, 73.2%)" stroke-width="1.5"></path><path d="M523.72 393.64L382.42 254.68" stroke="hsl(17, 69.5%, 73.2%)" stroke-width="1.5"></path><path d="M523.72 393.64L817.32 350.73" stroke="hsl(17, 69.5%, 73.2%)" stroke-width="1.5"></path><path d="M815.86 218.78L815.86 218.78" stroke="hsl(17, 69.5%, 73.2%)" stroke-width="1.5"></path><path d="M815.86 218.78L817.32 350.73" stroke="hsl(17, 69.5%, 73.2%)" stroke-width="1.5"></path><path d="M815.86 218.78L989.8 210.53" stroke="hsl(17, 69.5%, 73.2%)" stroke-width="1.5"></path><path d="M1838.59 42.79L1838.59 42.79" stroke="hsl(17, 69.5%, 73.2%)" stroke-width="1.5"></path><path d="M1838.59 42.79L1903.13 -97.63" stroke="hsl(17, 69.5%, 73.2%)" stroke-width="1.5"></path><path d="M1838.59 42.79L2044.67 56.83" stroke="hsl(17, 69.5%, 73.2%)" stroke-width="1.5"></path><path d="M1838.59 42.79L1859.58 256.5" stroke="hsl(17, 69.5%, 73.2%)" stroke-width="1.5"></path><path d="M1838.59 42.79L2002.66 192.48" stroke="hsl(17, 69.5%, 73.2%)" stroke-width="1.5"></path><path d="M1838.59 42.79L1719.84 246.84" stroke="hsl(17, 69.5%, 73.2%)" stroke-width="1.5"></path><path d="M1838.59 42.79L2028.61 -106.83" stroke="hsl(17, 69.5%, 73.2%)" stroke-width="1.5"></path><path d="M1874.93 387.79L1874.93 387.79" stroke="hsl(17, 69.5%, 73.2%)" stroke-width="1.5"></path><path d="M1874.93 387.79L1859.58 256.5" stroke="hsl(17, 69.5%, 73.2%)" stroke-width="1.5"></path><path d="M1874.93 387.79L1716.77 340.17" stroke="hsl(17, 69.5%, 73.2%)" stroke-width="1.5"></path><path d="M1874.93 387.79L2043.57 370.63" stroke="hsl(17, 69.5%, 73.2%)" stroke-width="1.5"></path><path d="M1874.93 387.79L1719.84 246.84" stroke="hsl(17, 69.5%, 73.2%)" stroke-width="1.5"></path><path d="M1874.93 387.79L2002.66 192.48" stroke="hsl(17, 69.5%, 73.2%)" stroke-width="1.5"></path><path d="M1874.93 387.79L2147.06 383.01" stroke="hsl(17, 69.5%, 73.2%)" stroke-width="1.5"></path><path d="M2147.06 383.01L2147.06 383.01" stroke="hsl(17, 69.5%, 73.2%)" stroke-width="1.5"></path><path d="M2147.06 383.01L2043.57 370.63" stroke="hsl(17, 69.5%, 73.2%)" stroke-width="1.5"></path><path d="M2147.06 383.01L2185.55 238.35" stroke="hsl(17, 69.5%, 73.2%)" stroke-width="1.5"></path><path d="M2357.49 346.57L2357.49 346.57" stroke="hsl(17, 69.5%, 73.2%)" stroke-width="1.5"></path><path d="M2357.49 346.57L2305.6 236.74" stroke="hsl(17, 69.5%, 73.2%)" stroke-width="1.5"></path><path d="M2357.49 346.57L2185.55 238.35" stroke="hsl(17, 69.5%, 73.2%)" stroke-width="1.5"></path><path d="M2357.49 346.57L2147.06 383.01" stroke="hsl(17, 69.5%, 73.2%)" stroke-width="1.5"></path><path d="M2357.49 346.57L2355.19 95.48" stroke="hsl(17, 69.5%, 73.2%)" stroke-width="1.5"></path><path d="M2357.49 346.57L2043.57 370.63" stroke="hsl(17, 69.5%, 73.2%)" stroke-width="1.5"></path><path d="M2357.49 346.57L2186.32 65.26" stroke="hsl(17, 69.5%, 73.2%)" stroke-width="1.5"></path><path d="M-57.99 406.25L-57.99 406.25" stroke="hsl(17, 69.5%, 73.2%)" stroke-width="1.5"></path><path d="M-57.99 406.25L46.67 367.1" stroke="hsl(17, 69.5%, 73.2%)" stroke-width="1.5"></path><path d="M-57.99 406.25L232.51 364.63" stroke="hsl(17, 69.5%, 73.2%)" stroke-width="1.5"></path><path d="M-57.99 406.25L213.89 254.4" stroke="hsl(17, 69.5%, 73.2%)" stroke-width="1.5"></path><path d="M46.67 367.1L46.67 367.1" stroke="hsl(17, 69.5%, 73.2%)" stroke-width="1.5"></path><path d="M213.89 254.4L213.89 254.4" stroke="hsl(17, 69.5%, 73.2%)" stroke-width="1.5"></path><path d="M213.89 254.4L382.42 254.68" stroke="hsl(17, 69.5%, 73.2%)" stroke-width="1.5"></path><path d="M213.89 254.4L366.68 362.3" stroke="hsl(17, 69.5%, 73.2%)" stroke-width="1.5"></path><path d="M213.89 254.4L46.67 367.1" stroke="hsl(17, 69.5%, 73.2%)" stroke-width="1.5"></path><path d="M382.42 254.68L382.42 254.68" stroke="hsl(17, 69.5%, 73.2%)" stroke-width="1.5"></path><path d="M382.42 254.68L663.54 340.93" stroke="hsl(17, 69.5%, 73.2%)" stroke-width="1.5"></path><path d="M382.42 254.68L46.67 367.1" stroke="hsl(17, 69.5%, 73.2%)" stroke-width="1.5"></path><path d="M663.54 340.93L663.54 340.93" stroke="hsl(17, 69.5%, 73.2%)" stroke-width="1.5"></path><path d="M663.54 340.93L817.32 350.73" stroke="hsl(17, 69.5%, 73.2%)" stroke-width="1.5"></path><path d="M663.54 340.93L815.86 218.78" stroke="hsl(17, 69.5%, 73.2%)" stroke-width="1.5"></path><path d="M817.32 350.73L817.32 350.73" stroke="hsl(17, 69.5%, 73.2%)" stroke-width="1.5"></path><path d="M817.32 350.73L989.8 210.53" stroke="hsl(17, 69.5%, 73.2%)" stroke-width="1.5"></path><path d="M989.8 210.53L989.8 210.53" stroke="hsl(17, 69.5%, 73.2%)" stroke-width="1.5"></path><path d="M989.8 210.53L1123.95 254.46" stroke="hsl(17, 69.5%, 73.2%)" stroke-width="1.5"></path><path d="M1123.95 254.46L1123.95 254.46" stroke="hsl(17, 69.5%, 73.2%)" stroke-width="1.5"></path><path d="M1123.95 254.46L1126.24 348.28" stroke="hsl(17, 69.5%, 73.2%)" stroke-width="1.5"></path><path d="M1123.95 254.46L1304.79 258.63" stroke="hsl(17, 69.5%, 73.2%)" stroke-width="1.5"></path><path d="M1123.95 254.46L1297.77 399.21" stroke="hsl(17, 69.5%, 73.2%)" stroke-width="1.5"></path><path d="M1123.95 254.46L1398.54 202.64" stroke="hsl(17, 69.5%, 73.2%)" stroke-width="1.5"></path><path d="M1126.24 348.28L1126.24 348.28" stroke="hsl(17, 69.5%, 73.2%)" stroke-width="1.5"></path><path d="M1126.24 348.28L1297.77 399.21" stroke="hsl(17, 69.5%, 73.2%)" stroke-width="1.5"></path><path d="M1126.24 348.28L989.8 210.53" stroke="hsl(17, 69.5%, 73.2%)" stroke-width="1.5"></path><path d="M1126.24 348.28L1304.79 258.63" stroke="hsl(17, 69.5%, 73.2%)" stroke-width="1.5"></path><path d="M1304.79 258.63L1304.79 258.63" stroke="hsl(17, 69.5%, 73.2%)" stroke-width="1.5"></path><path d="M1304.79 258.63L1398.54 202.64" stroke="hsl(17, 69.5%, 73.2%)" stroke-width="1.5"></path><path d="M1304.79 258.63L1297.77 399.21" stroke="hsl(17, 69.5%, 73.2%)" stroke-width="1.5"></path><path d="M1304.79 258.63L1429.62 383.76" stroke="hsl(17, 69.5%, 73.2%)" stroke-width="1.5"></path><path d="M1304.79 258.63L1564.66 228.31" stroke="hsl(17, 69.5%, 73.2%)" stroke-width="1.5"></path><path d="M1297.77 399.21L1297.77 399.21" stroke="hsl(17, 69.5%, 73.2%)" stroke-width="1.5"></path><path d="M1297.77 399.21L1429.62 383.76" stroke="hsl(17, 69.5%, 73.2%)" stroke-width="1.5"></path><path d="M1398.54 202.64L1398.54 202.64" stroke="hsl(17, 69.5%, 73.2%)" stroke-width="1.5"></path><path d="M1398.54 202.64L1564.66 228.31" stroke="hsl(17, 69.5%, 73.2%)" stroke-width="1.5"></path><path d="M1398.54 202.64L1429.62 383.76" stroke="hsl(17, 69.5%, 73.2%)" stroke-width="1.5"></path><path d="M1398.54 202.64L1297.77 399.21" stroke="hsl(17, 69.5%, 73.2%)" stroke-width="1.5"></path><path d="M1398.54 202.64L1591.99 373.55" stroke="hsl(17, 69.5%, 73.2%)" stroke-width="1.5"></path><path d="M1429.62 383.76L1429.62 383.76" stroke="hsl(17, 69.5%, 73.2%)" stroke-width="1.5"></path><path d="M1429.62 383.76L1591.99 373.55" stroke="hsl(17, 69.5%, 73.2%)" stroke-width="1.5"></path><path d="M1564.66 228.31L1564.66 228.31" stroke="hsl(17, 69.5%, 73.2%)" stroke-width="1.5"></path><path d="M1564.66 228.31L1591.99 373.55" stroke="hsl(17, 69.5%, 73.2%)" stroke-width="1.5"></path><path d="M1564.66 228.31L1719.84 246.84" stroke="hsl(17, 69.5%, 73.2%)" stroke-width="1.5"></path><path d="M1591.99 373.55L1591.99 373.55" stroke="hsl(17, 69.5%, 73.2%)" stroke-width="1.5"></path><path d="M1591.99 373.55L1716.77 340.17" stroke="hsl(17, 69.5%, 73.2%)" stroke-width="1.5"></path><path d="M1591.99 373.55L1719.84 246.84" stroke="hsl(17, 69.5%, 73.2%)" stroke-width="1.5"></path><path d="M1719.84 246.84L1719.84 246.84" stroke="hsl(17, 69.5%, 73.2%)" stroke-width="1.5"></path><path d="M1719.84 246.84L1716.77 340.17" stroke="hsl(17, 69.5%, 73.2%)" stroke-width="1.5"></path><path d="M1719.84 246.84L1859.58 256.5" stroke="hsl(17, 69.5%, 73.2%)" stroke-width="1.5"></path><path d="M1716.77 340.17L1716.77 340.17" stroke="hsl(17, 69.5%, 73.2%)" stroke-width="1.5"></path><path d="M1716.77 340.17L1859.58 256.5" stroke="hsl(17, 69.5%, 73.2%)" stroke-width="1.5"></path><path d="M1903.13 -97.63L1903.13 -97.63" stroke="hsl(17, 69.5%, 73.2%)" stroke-width="1.5"></path><path d="M1903.13 -97.63L2028.61 -106.83" stroke="hsl(17, 69.5%, 73.2%)" stroke-width="1.5"></path><path d="M1903.13 -97.63L2044.67 56.83" stroke="hsl(17, 69.5%, 73.2%)" stroke-width="1.5"></path><path d="M1859.58 256.5L1859.58 256.5" stroke="hsl(17, 69.5%, 73.2%)" stroke-width="1.5"></path><path d="M2028.61 -106.83L2028.61 -106.83" stroke="hsl(17, 69.5%, 73.2%)" stroke-width="1.5"></path><path d="M2028.61 -106.83L2183 -80.91" stroke="hsl(17, 69.5%, 73.2%)" stroke-width="1.5"></path><path d="M2028.61 -106.83L2044.67 56.83" stroke="hsl(17, 69.5%, 73.2%)" stroke-width="1.5"></path><path d="M2028.61 -106.83L2186.32 65.26" stroke="hsl(17, 69.5%, 73.2%)" stroke-width="1.5"></path><path d="M2044.67 56.83L2044.67 56.83" stroke="hsl(17, 69.5%, 73.2%)" stroke-width="1.5"></path><path d="M2044.67 56.83L2186.32 65.26" stroke="hsl(17, 69.5%, 73.2%)" stroke-width="1.5"></path><path d="M2044.67 56.83L2002.66 192.48" stroke="hsl(17, 69.5%, 73.2%)" stroke-width="1.5"></path><path d="M2044.67 56.83L2183 -80.91" stroke="hsl(17, 69.5%, 73.2%)" stroke-width="1.5"></path><path d="M2002.66 192.48L2002.66 192.48" stroke="hsl(17, 69.5%, 73.2%)" stroke-width="1.5"></path><path d="M2002.66 192.48L1859.58 256.5" stroke="hsl(17, 69.5%, 73.2%)" stroke-width="1.5"></path><path d="M2002.66 192.48L2043.57 370.63" stroke="hsl(17, 69.5%, 73.2%)" stroke-width="1.5"></path><path d="M2043.57 370.63L2043.57 370.63" stroke="hsl(17, 69.5%, 73.2%)" stroke-width="1.5"></path><path d="M2043.57 370.63L2185.55 238.35" stroke="hsl(17, 69.5%, 73.2%)" stroke-width="1.5"></path><path d="M2043.57 370.63L1859.58 256.5" stroke="hsl(17, 69.5%, 73.2%)" stroke-width="1.5"></path><path d="M2043.57 370.63L2305.6 236.74" stroke="hsl(17, 69.5%, 73.2%)" stroke-width="1.5"></path><path d="M2183 -80.91L2183 -80.91" stroke="hsl(17, 69.5%, 73.2%)" stroke-width="1.5"></path><path d="M2183 -80.91L2186.32 65.26" stroke="hsl(17, 69.5%, 73.2%)" stroke-width="1.5"></path><path d="M2183 -80.91L2333.63 -65.97" stroke="hsl(17, 69.5%, 73.2%)" stroke-width="1.5"></path><path d="M2186.32 65.26L2186.32 65.26" stroke="hsl(17, 69.5%, 73.2%)" stroke-width="1.5"></path><path d="M2185.55 238.35L2185.55 238.35" stroke="hsl(17, 69.5%, 73.2%)" stroke-width="1.5"></path><path d="M2185.55 238.35L2305.6 236.74" stroke="hsl(17, 69.5%, 73.2%)" stroke-width="1.5"></path><path d="M2185.55 238.35L2186.32 65.26" stroke="hsl(17, 69.5%, 73.2%)" stroke-width="1.5"></path><path d="M2185.55 238.35L2002.66 192.48" stroke="hsl(17, 69.5%, 73.2%)" stroke-width="1.5"></path><path d="M2333.63 -65.97L2333.63 -65.97" stroke="hsl(17, 69.5%, 73.2%)" stroke-width="1.5"></path><path d="M2333.63 -65.97L2355.19 95.48" stroke="hsl(17, 69.5%, 73.2%)" stroke-width="1.5"></path><path d="M2333.63 -65.97L2186.32 65.26" stroke="hsl(17, 69.5%, 73.2%)" stroke-width="1.5"></path><path d="M2333.63 -65.97L2305.6 236.74" stroke="hsl(17, 69.5%, 73.2%)" stroke-width="1.5"></path><path d="M2333.63 -65.97L2028.61 -106.83" stroke="hsl(17, 69.5%, 73.2%)" stroke-width="1.5"></path><path d="M2355.19 95.48L2355.19 95.48" stroke="hsl(17, 69.5%, 73.2%)" stroke-width="1.5"></path><path d="M2355.19 95.48L2305.6 236.74" stroke="hsl(17, 69.5%, 73.2%)" stroke-width="1.5"></path><path d="M2355.19 95.48L2186.32 65.26" stroke="hsl(17, 69.5%, 73.2%)" stroke-width="1.5"></path><path d="M2355.19 95.48L2185.55 238.35" stroke="hsl(17, 69.5%, 73.2%)" stroke-width="1.5"></path><path d="M2355.19 95.48L2183 -80.91" stroke="hsl(17, 69.5%, 73.2%)" stroke-width="1.5"></path><path d="M2305.6 236.74L2305.6 236.74" stroke="hsl(17, 69.5%, 73.2%)" stroke-width="1.5"></path><circle r="25" cx="232.51" cy="364.63" fill="url(#SvgjsRadialGradient1329)"></circle><circle r="25" cx="366.68" cy="362.3" fill="url(#SvgjsRadialGradient1329)"></circle><circle r="25" cx="523.72" cy="393.64" fill="url(#SvgjsRadialGradient1329)"></circle><circle r="25" cx="815.86" cy="218.78" fill="url(#SvgjsRadialGradient1329)"></circle><circle r="25" cx="1838.59" cy="42.79" fill="url(#SvgjsRadialGradient1329)"></circle><circle r="25" cx="1874.93" cy="387.79" fill="url(#SvgjsRadialGradient1329)"></circle><circle r="25" cx="2147.06" cy="383.01" fill="url(#SvgjsRadialGradient1329)"></circle><circle r="25" cx="2357.49" cy="346.57" fill="url(#SvgjsRadialGradient1329)"></circle><circle r="5" cx="-57.99" cy="406.25" fill="#eeb7a1"></circle><circle r="5" cx="46.67" cy="367.1" fill="#eeb7a1"></circle><circle r="5" cx="213.89" cy="254.4" fill="#eeb7a1"></circle><circle r="5" cx="382.42" cy="254.68" fill="#eeb7a1"></circle><circle r="5" cx="663.54" cy="340.93" fill="#eeb7a1"></circle><circle r="5" cx="817.32" cy="350.73" fill="#eeb7a1"></circle><circle r="5" cx="989.8" cy="210.53" fill="#eeb7a1"></circle><circle r="5" cx="1123.95" cy="254.46" fill="#eeb7a1"></circle><circle r="5" cx="1126.24" cy="348.28" fill="#eeb7a1"></circle><circle r="5" cx="1304.79" cy="258.63" fill="#eeb7a1"></circle><circle r="5" cx="1297.77" cy="399.21" fill="#eeb7a1"></circle><circle r="5" cx="1398.54" cy="202.64" fill="#eeb7a1"></circle><circle r="5" cx="1429.62" cy="383.76" fill="#eeb7a1"></circle><circle r="5" cx="1564.66" cy="228.31" fill="#eeb7a1"></circle><circle r="5" cx="1591.99" cy="373.55" fill="#eeb7a1"></circle><circle r="5" cx="1719.84" cy="246.84" fill="#eeb7a1"></circle><circle r="5" cx="1716.77" cy="340.17" fill="#eeb7a1"></circle><circle r="5" cx="1903.13" cy="-97.63" fill="#eeb7a1"></circle><circle r="5" cx="1859.58" cy="256.5" fill="#eeb7a1"></circle><circle r="5" cx="2028.61" cy="-106.83" fill="#eeb7a1"></circle><circle r="5" cx="2044.67" cy="56.83" fill="#eeb7a1"></circle><circle r="5" cx="2002.66" cy="192.48" fill="#eeb7a1"></circle><circle r="5" cx="2043.57" cy="370.63" fill="#eeb7a1"></circle><circle r="5" cx="2183" cy="-80.91" fill="#eeb7a1"></circle><circle r="5" cx="2186.32" cy="65.26" fill="#eeb7a1"></circle><circle r="5" cx="2185.55" cy="238.35" fill="#eeb7a1"></circle><circle r="5" cx="2333.63" cy="-65.97" fill="#eeb7a1"></circle><circle r="5" cx="2355.19" cy="95.48" fill="#eeb7a1"></circle><circle r="5" cx="2305.6" cy="236.74" fill="#eeb7a1"></circle></g><defs><mask id="SvgjsMask1328"><rect width="2200" height="300" fill="#ffffff"></rect></mask><radialGradient id="SvgjsRadialGradient1329"><stop stop-color="#ffffff" offset="0.1"></stop><stop stop-color="rgba(221, 110, 66, 1)" offset="0.2"></stop><stop stop-color="rgba(221, 110, 66, 0)" offset="1"></stop></radialGradient></defs></svg>