<?xml version="1.0" encoding="utf-8"?>
<!-- Generator: Adobe Illustrator 26.2.1, SVG Export Plug-In . SVG Version: 6.00 Build 0)  -->
<svg version="1.1" id="TIB_Logo" xmlns="http://www.w3.org/2000/svg" xmlns:xlink="http://www.w3.org/1999/xlink" x="0px" y="0px"
	 width="468.4px" height="76.5px" viewBox="0 0 468.4 76.5" style="enable-background:new 0 0 468.4 76.5;" xml:space="preserve">
<style type="text/css">
	.st0{fill:#FFFFFF;}
</style>
<g>
	<g>
		<g>
			<path class="st0" d="M52.5,76.5H49c-1.2,0-2.2-0.5-3-1.3c-0.7-0.8-1.1-1.8-1.1-2.8V4c0-1,0.4-1.9,1.1-2.7C46.7,0.5,47.8,0,49,0
				h3.5c1.3,0,2.3,0.5,3.1,1.4c0.7,0.8,1,1.7,1,2.6v68.4c0,1-0.3,1.9-1,2.7C54.8,76.1,53.7,76.5,52.5,76.5z"/>
		</g>
		<g>
			<path class="st0" d="M21.9,76.5h-3.5c-1.2,0-2.2-0.5-3-1.4c-0.7-0.8-1.1-1.8-1.1-2.8V11.6H4c-1,0-1.9-0.4-2.7-1.1
				C0.5,9.8,0,8.7,0,7.6V4C0,2.8,0.5,1.7,1.4,1C2.2,0.3,3.1,0,4,0H36c1,0,1.9,0.3,2.7,1c0.9,0.7,1.4,1.8,1.4,3v3.5
				c0,1.2-0.5,2.2-1.4,3C38,11.2,37,11.6,36,11.6H25.9v60.8c0,1-0.3,1.9-1,2.7C24.2,76.1,23.1,76.5,21.9,76.5z"/>
		</g>
	</g>
	<g>
		<path class="st0" d="M84.6,76.5h-15c-1.2,0-2.2-0.5-3-1.3c-0.7-0.8-1.1-1.8-1.1-2.8V4c0-1.3,0.5-2.3,1.4-3.1c0.8-0.7,1.7-1,2.6-1
			h11.7c3,0,5.6,0.1,7.8,0.4c2.4,0.3,4.4,0.9,6,1.9c2.8,1.6,4.9,3.9,6.2,7.1c1.3,3,2,6.3,2,9.8c0,5.7-0.6,9.7-1.8,12.3
			c-0.9,1.7-1.8,2.9-2.7,3.7c-0.2,0.2-0.4,0.3-0.6,0.5c2,1.2,3.5,2.9,4.5,5.1c1.4,2.9,2.1,6.9,2.1,11.7c0,2.7-0.2,5.5-0.5,8.2
			c-0.4,2.9-1.3,5.5-2.7,7.8c-1.4,2.4-3.5,4.3-6.3,5.8C92.7,75.8,89.1,76.5,84.6,76.5z M77.2,64.9H84c1.6,0,3-0.2,4.2-0.5
			c1-0.3,1.9-0.8,2.6-1.6c0.7-0.8,1.3-2.1,1.8-3.7c0.4-1.7,0.7-4.1,0.7-6.9c0-2.2-0.2-4-0.7-5.4c-0.4-1.2-1.1-2.1-1.9-2.8
			c-0.9-0.7-2-1.1-3.4-1.4c-1.5-0.3-3.3-0.4-5.3-0.4h-4.7V64.9z M77.2,30.6h4.9c1.5,0,3-0.1,4.3-0.2c1.1-0.1,2.1-0.5,2.9-1.1
			c0.8-0.6,1.4-1.6,1.9-3c0.5-1.5,0.8-3.8,0.8-6.7c0-2-0.3-3.6-0.8-4.6c-0.5-1-1.1-1.7-1.9-2.2c-0.9-0.5-1.9-0.8-3.2-1
			c-1.5-0.1-3.1-0.2-4.8-0.2h-4.1V30.6z"/>
	</g>
</g>
<g>
	<path class="st0" d="M132.7,17c0,0.2-0.1,0.3-0.2,0.4c-0.1,0.1-0.3,0.2-0.4,0.2H126c-0.2,0-0.3-0.1-0.4-0.2
		c-0.1-0.1-0.2-0.3-0.2-0.4V0.8c0-0.1,0.1-0.3,0.2-0.4c0.1-0.1,0.2-0.2,0.4-0.2h0.8c0.2,0,0.3,0.1,0.4,0.2c0.1,0.1,0.1,0.2,0.1,0.4
		v14.8h4.7c0.1,0,0.3,0,0.4,0.1c0.1,0.1,0.2,0.2,0.2,0.4V17z"/>
	<path class="st0" d="M143.2,17c0,0.2-0.1,0.3-0.2,0.4c-0.1,0.1-0.3,0.2-0.4,0.2h-6.4c-0.2,0-0.3-0.1-0.4-0.2
		c-0.1-0.1-0.2-0.3-0.2-0.4V0.8c0-0.1,0.1-0.3,0.2-0.4c0.1-0.1,0.2-0.2,0.4-0.2h6.3c0.1,0,0.3,0,0.4,0.1c0.1,0.1,0.2,0.2,0.2,0.4
		v0.8c0,0.2-0.1,0.3-0.2,0.4c-0.1,0.1-0.3,0.2-0.4,0.2h-4.9v5.4h4.2c0.1,0,0.3,0,0.4,0.1c0.1,0.1,0.2,0.2,0.2,0.4V9
		c0,0.2-0.1,0.3-0.2,0.4c-0.1,0.1-0.3,0.2-0.4,0.2h-4.2v6h5c0.1,0,0.3,0,0.4,0.1c0.1,0.1,0.2,0.2,0.2,0.4V17z"/>
	<path class="st0" d="M147.5,17.5c-0.2,0-0.3-0.1-0.4-0.2c-0.1-0.1-0.2-0.3-0.2-0.4V0.8c0-0.1,0.1-0.3,0.2-0.4
		c0.1-0.1,0.2-0.2,0.4-0.2h0.8c0.2,0,0.3,0.1,0.4,0.2c0.1,0.1,0.1,0.2,0.1,0.4v16.1c0,0.1,0,0.3-0.1,0.4c-0.1,0.1-0.2,0.2-0.4,0.2
		H147.5z"/>
	<path class="st0" d="M157.1,0.2c0.7,0,1.3,0,1.8,0.1c0.5,0.1,0.9,0.2,1.3,0.4c0.6,0.3,1,0.8,1.3,1.5c0.3,0.7,0.4,1.4,0.4,2.2
		c0,1.3-0.1,2.2-0.4,2.7c-0.2,0.3-0.4,0.6-0.5,0.8c-0.2,0.2-0.4,0.3-0.7,0.5c0.7,0.2,1.2,0.7,1.5,1.3c0.3,0.6,0.5,1.5,0.5,2.6
		c0,0.6,0,1.3-0.1,1.9c-0.1,0.6-0.3,1.2-0.6,1.7c-0.3,0.5-0.7,0.9-1.3,1.2c-0.6,0.3-1.4,0.5-2.4,0.5h-3.5c-0.2,0-0.3-0.1-0.4-0.2
		c-0.1-0.1-0.2-0.3-0.2-0.4V0.8c0-0.2,0.1-0.3,0.2-0.4c0.1-0.1,0.2-0.1,0.4-0.1H157.1z M155.7,7.5h1.5c0.4,0,0.7,0,1.1-0.1
		c0.3,0,0.6-0.2,0.9-0.3c0.2-0.2,0.4-0.5,0.6-0.9c0.1-0.4,0.2-1,0.2-1.7c0-0.5-0.1-1-0.2-1.3c-0.1-0.3-0.3-0.5-0.6-0.7
		c-0.3-0.2-0.6-0.2-0.9-0.3c-0.4,0-0.7,0-1.2,0h-1.3V7.5z M155.7,9.4v6.1h2c0.4,0,0.8,0,1.1-0.1c0.3-0.1,0.6-0.3,0.8-0.5
		c0.2-0.2,0.4-0.6,0.5-1c0.1-0.4,0.2-1,0.2-1.7c0-0.6-0.1-1-0.2-1.4c-0.1-0.4-0.3-0.6-0.6-0.8c-0.3-0.2-0.6-0.3-1-0.4
		c-0.4-0.1-0.8-0.1-1.3-0.1H155.7z"/>
	<path class="st0" d="M167.8,3.3l0.4,5.2v8.5c0,0.1-0.1,0.3-0.1,0.4c-0.1,0.1-0.2,0.2-0.4,0.2h-0.8c-0.2,0-0.3-0.1-0.4-0.2
		c-0.1-0.1-0.2-0.3-0.2-0.4V0.8c0-0.1,0.1-0.3,0.2-0.4c0.1-0.1,0.2-0.2,0.4-0.2h1.5c0.2,0,0.3,0.1,0.4,0.2c0.1,0.1,0.1,0.2,0.2,0.4
		l4.6,13.7L173,9.6V0.8c0-0.1,0.1-0.3,0.1-0.4c0.1-0.1,0.2-0.2,0.4-0.2h0.8c0.2,0,0.3,0.1,0.4,0.2c0.1,0.1,0.2,0.3,0.2,0.4V17
		c0,0.1-0.1,0.3-0.2,0.4c-0.1,0.1-0.2,0.2-0.4,0.2H173c-0.2,0-0.3-0.1-0.4-0.2c-0.1-0.1-0.1-0.2-0.2-0.4L167.8,3.3z"/>
	<path class="st0" d="M180.4,17.5c-0.2,0-0.3-0.1-0.4-0.2c-0.1-0.1-0.2-0.3-0.2-0.4V0.8c0-0.1,0.1-0.3,0.2-0.4
		c0.1-0.1,0.2-0.2,0.4-0.2h0.8c0.2,0,0.3,0.1,0.4,0.2c0.1,0.1,0.1,0.2,0.1,0.4v16.1c0,0.1,0,0.3-0.1,0.4c-0.1,0.1-0.2,0.2-0.4,0.2
		H180.4z"/>
	<path class="st0" d="M185.9,17.5c-0.2,0-0.4-0.1-0.4-0.2c-0.1-0.1-0.1-0.3-0.1-0.4v-1.2c0-0.1,0-0.3,0.1-0.5
		c0.1-0.2,0.2-0.4,0.2-0.5l5.6-12.5h-5.2c-0.1,0-0.3-0.1-0.4-0.2c-0.1-0.1-0.2-0.2-0.2-0.4V0.8c0-0.2,0.1-0.3,0.2-0.4
		c0.1-0.1,0.3-0.1,0.4-0.1h6.7c0.2,0,0.3,0.1,0.4,0.2c0.1,0.1,0.2,0.2,0.2,0.4v1.3c0,0.1,0,0.2-0.1,0.3c0,0.1-0.1,0.2-0.1,0.2
		l-5.7,12.9h5.7c0.1,0,0.3,0,0.4,0.1c0.1,0.1,0.2,0.2,0.2,0.4V17c0,0.2-0.1,0.3-0.2,0.4c-0.1,0.1-0.3,0.2-0.4,0.2H185.9z"/>
	<path class="st0" d="M197.2,10.6c-0.1,0-0.3,0-0.4-0.1c-0.1-0.1-0.2-0.2-0.2-0.4V9.2c0-0.2,0.1-0.3,0.2-0.4
		c0.1-0.1,0.2-0.2,0.4-0.2h5.2c0.1,0,0.3,0.1,0.4,0.2c0.1,0.1,0.2,0.2,0.2,0.4V10c0,0.2-0.1,0.3-0.2,0.4c-0.1,0.1-0.3,0.1-0.4,0.1
		H197.2z"/>
	<path class="st0" d="M208.1,17.5c-0.2,0-0.3-0.1-0.4-0.2c-0.1-0.1-0.2-0.3-0.2-0.4V0.8c0-0.1,0.1-0.3,0.2-0.4
		c0.1-0.1,0.2-0.2,0.4-0.2h0.8c0.2,0,0.3,0.1,0.4,0.2c0.1,0.1,0.1,0.2,0.1,0.4v16.1c0,0.1,0,0.3-0.1,0.4c-0.1,0.1-0.2,0.2-0.4,0.2
		H208.1z"/>
	<path class="st0" d="M215.9,3.3l0.4,5.2v8.5c0,0.1,0,0.3-0.1,0.4c-0.1,0.1-0.2,0.2-0.4,0.2h-0.8c-0.2,0-0.3-0.1-0.4-0.2
		c-0.1-0.1-0.2-0.3-0.2-0.4V0.8c0-0.1,0.1-0.3,0.2-0.4c0.1-0.1,0.2-0.2,0.4-0.2h1.5c0.2,0,0.3,0.1,0.4,0.2c0.1,0.1,0.1,0.2,0.2,0.4
		l4.6,13.7l-0.4-4.9V0.8c0-0.1,0-0.3,0.1-0.4c0.1-0.1,0.2-0.2,0.4-0.2h0.8c0.2,0,0.3,0.1,0.4,0.2c0.1,0.1,0.2,0.3,0.2,0.4V17
		c0,0.1-0.1,0.3-0.2,0.4c-0.1,0.1-0.2,0.2-0.4,0.2h-1.5c-0.2,0-0.3-0.1-0.4-0.2c-0.1-0.1-0.1-0.2-0.2-0.4L215.9,3.3z"/>
	<path class="st0" d="M234.3,9c0,0.2-0.1,0.3-0.2,0.4c-0.1,0.1-0.3,0.2-0.4,0.2h-4.2v7.4c0,0.1,0,0.3-0.1,0.4
		c-0.1,0.1-0.2,0.2-0.4,0.2h-0.8c-0.2,0-0.3-0.1-0.4-0.2c-0.1-0.1-0.2-0.3-0.2-0.4V0.8c0-0.1,0.1-0.3,0.2-0.4
		c0.1-0.1,0.2-0.2,0.4-0.2h6.3c0.1,0,0.3,0,0.4,0.1c0.1,0.1,0.2,0.2,0.2,0.4v0.8c0,0.2-0.1,0.3-0.2,0.4c-0.1,0.1-0.3,0.2-0.4,0.2
		h-4.9v5.4h4.2c0.1,0,0.3,0,0.4,0.1c0.1,0.1,0.2,0.2,0.2,0.4V9z"/>
	<path class="st0" d="M242,17.8c-0.9,0-1.6-0.2-2.2-0.5c-0.5-0.3-1-0.7-1.3-1.1c-0.3-0.4-0.5-0.9-0.6-1.4c-0.1-0.5-0.2-0.9-0.2-1.3
		c-0.1-1.6-0.1-3.2-0.1-4.6c0-1.5,0-3,0.1-4.6c0-0.4,0.1-0.8,0.2-1.3c0.1-0.5,0.3-1,0.6-1.4c0.3-0.4,0.7-0.8,1.3-1.1
		c0.5-0.3,1.3-0.5,2.2-0.5c0.9,0,1.6,0.2,2.2,0.5c0.5,0.3,1,0.7,1.3,1.1c0.3,0.4,0.5,0.9,0.6,1.4c0.1,0.5,0.2,0.9,0.2,1.3
		c0.1,1.6,0.1,3.1,0.1,4.6c0,1.5,0,3-0.1,4.6c0,0.4-0.1,0.8-0.2,1.3c-0.1,0.5-0.3,1-0.6,1.4c-0.3,0.4-0.7,0.8-1.3,1.1
		C243.7,17.6,242.9,17.8,242,17.8z M242,2c-0.5,0-0.8,0.1-1.1,0.3c-0.3,0.2-0.5,0.4-0.7,0.7c-0.2,0.3-0.3,0.6-0.3,1
		c-0.1,0.4-0.1,0.7-0.1,1.1c-0.1,1.3-0.1,2.6-0.1,3.8c0,1.2,0,2.5,0.1,3.9c0,0.4,0.1,0.8,0.1,1.1c0.1,0.4,0.2,0.7,0.3,1
		c0.2,0.3,0.4,0.5,0.7,0.7c0.3,0.2,0.7,0.3,1.1,0.3c0.5,0,0.8-0.1,1.1-0.3c0.3-0.2,0.5-0.4,0.7-0.7c0.2-0.3,0.3-0.6,0.3-1
		c0.1-0.4,0.1-0.8,0.1-1.1c0-1.4,0.1-2.6,0.1-3.9c0-1.2,0-2.5-0.1-3.8c0-0.4-0.1-0.7-0.1-1.1c-0.1-0.4-0.2-0.7-0.3-1
		c-0.2-0.3-0.4-0.5-0.7-0.7C242.8,2,242.5,2,242,2z"/>
	<path class="st0" d="M258.8,17c0,0.1,0,0.2-0.1,0.4c-0.1,0.1-0.2,0.2-0.4,0.2h-1c-0.2,0-0.3,0-0.4-0.1c-0.1-0.1-0.2-0.2-0.2-0.5
		l-2.3-7.6l-2.2,0V17c0,0.1,0,0.3-0.1,0.4c-0.1,0.1-0.2,0.2-0.4,0.2h-0.8c-0.2,0-0.3-0.1-0.4-0.2c-0.1-0.1-0.2-0.2-0.2-0.4V0.8
		c0-0.2,0.1-0.3,0.2-0.4c0.1-0.1,0.2-0.2,0.4-0.2h3c1,0,1.8,0.1,2.4,0.2c0.7,0.2,1.2,0.5,1.6,1.1c0.3,0.4,0.5,0.9,0.6,1.4
		c0.1,0.5,0.2,1.2,0.2,1.9c0,1.2-0.2,2.1-0.5,2.7c-0.3,0.6-0.9,1.1-1.7,1.4L258.8,17z M252.2,7.5h1.6c0.5,0,0.9,0,1.2-0.1
		c0.3,0,0.6-0.2,0.8-0.3c0.2-0.1,0.3-0.2,0.4-0.4c0.1-0.1,0.2-0.3,0.2-0.4c0.1-0.2,0.1-0.3,0.1-0.6c0-0.2,0-0.5,0-0.8
		c0-0.7-0.1-1.2-0.2-1.6c-0.1-0.4-0.3-0.6-0.6-0.8c-0.1-0.1-0.3-0.1-0.4-0.2c-0.1,0-0.3-0.1-0.6-0.1c-0.2,0-0.6,0-1,0
		c-0.4,0-0.9,0-1.6,0V7.5z"/>
	<path class="st0" d="M264.3,3L264.3,3l0.2,7.6v6.3c0,0.1,0,0.3-0.1,0.4c-0.1,0.1-0.2,0.2-0.4,0.2h-0.8c-0.2,0-0.3-0.1-0.4-0.2
		c-0.1-0.1-0.2-0.3-0.2-0.4V0.8c0-0.1,0.1-0.3,0.2-0.4c0.1-0.1,0.2-0.2,0.4-0.2h1.5c0.2,0,0.3,0,0.4,0.1c0.1,0.1,0.1,0.2,0.2,0.4
		l1.9,7.8l0.5,2.7h0.1l0.5-2.7l1.9-7.8c0.1-0.4,0.3-0.5,0.6-0.5h1.6c0.2,0,0.3,0.1,0.4,0.2c0.1,0.1,0.1,0.2,0.1,0.4v16.1
		c0,0.1,0,0.3-0.1,0.4c-0.1,0.1-0.2,0.2-0.4,0.2h-0.8c-0.1,0-0.3-0.1-0.4-0.2c-0.1-0.1-0.2-0.3-0.2-0.4v-6.3l0.3-7.6H271l-2.3,10.7
		c0,0.2-0.1,0.3-0.2,0.4c-0.1,0.1-0.2,0.1-0.4,0.1h-0.8c-0.1,0-0.3-0.1-0.4-0.2c-0.1-0.1-0.2-0.2-0.2-0.4L264.3,3z"/>
	<path class="st0" d="M281.2,0.2c0.3,0,0.5,0.2,0.6,0.6L285,17c0,0.2,0,0.3-0.1,0.4c-0.1,0.1-0.2,0.2-0.4,0.2h-1
		c-0.3,0-0.5-0.2-0.6-0.6l-0.6-2.9H279l-0.6,2.9c-0.1,0.4-0.3,0.6-0.6,0.6h-1c-0.2,0-0.3-0.1-0.4-0.2c-0.1-0.1-0.1-0.2-0.1-0.4
		l3.2-16.2c0-0.2,0.1-0.3,0.2-0.4c0.1-0.1,0.2-0.2,0.4-0.2H281.2z M282.1,12.1l-1-6.1l-0.3-3.3h-0.1l-0.3,3.3l-1,6.1H282.1z"/>
	<path class="st0" d="M295.1,1.6c0,0.2-0.1,0.3-0.2,0.4c-0.1,0.1-0.3,0.2-0.4,0.2h-2.8v14.7c0,0.1-0.1,0.3-0.1,0.4
		c-0.1,0.1-0.2,0.2-0.4,0.2h-0.8c-0.2,0-0.3-0.1-0.4-0.2c-0.1-0.1-0.2-0.3-0.2-0.4V2.2h-2.8c-0.1,0-0.3-0.1-0.4-0.2
		c-0.1-0.1-0.2-0.2-0.2-0.4V0.8c0-0.2,0.1-0.3,0.2-0.4c0.1-0.1,0.2-0.1,0.4-0.1h7.5c0.1,0,0.3,0,0.4,0.1c0.1,0.1,0.2,0.2,0.2,0.4
		V1.6z"/>
	<path class="st0" d="M299.1,17.5c-0.2,0-0.3-0.1-0.4-0.2c-0.1-0.1-0.2-0.3-0.2-0.4V0.8c0-0.1,0.1-0.3,0.2-0.4
		c0.1-0.1,0.2-0.2,0.4-0.2h0.8c0.2,0,0.3,0.1,0.4,0.2c0.1,0.1,0.1,0.2,0.1,0.4v16.1c0,0.1,0,0.3-0.1,0.4c-0.1,0.1-0.2,0.2-0.4,0.2
		H299.1z"/>
	<path class="st0" d="M309,17.8c-0.9,0-1.7-0.2-2.2-0.5c-0.5-0.3-1-0.7-1.3-1.1c-0.3-0.4-0.5-0.9-0.6-1.4c-0.1-0.5-0.2-0.9-0.2-1.3
		c-0.1-1.6-0.1-3.2-0.1-4.6c0-1.5,0-3,0.1-4.6c0-0.4,0.1-0.8,0.2-1.3c0.1-0.5,0.3-1,0.6-1.4c0.3-0.4,0.7-0.8,1.3-1.1
		c0.5-0.3,1.3-0.5,2.2-0.5c0.9,0,1.6,0.2,2.2,0.5c0.5,0.3,1,0.7,1.3,1.1c0.3,0.4,0.5,0.9,0.6,1.4c0.1,0.5,0.2,0.9,0.2,1.3
		c0.1,1.6,0.1,3.1,0.1,4.6c0,1.5,0,3-0.1,4.6c0,0.4-0.1,0.8-0.2,1.3c-0.1,0.5-0.3,1-0.6,1.4c-0.3,0.4-0.7,0.8-1.3,1.1
		C310.7,17.6,310,17.8,309,17.8z M309,2c-0.5,0-0.8,0.1-1.1,0.3c-0.3,0.2-0.5,0.4-0.7,0.7c-0.2,0.3-0.3,0.6-0.3,1
		c-0.1,0.4-0.1,0.7-0.1,1.1c-0.1,1.3-0.1,2.6-0.1,3.8c0,1.2,0,2.5,0.1,3.9c0,0.4,0.1,0.8,0.1,1.1c0.1,0.4,0.2,0.7,0.3,1
		c0.2,0.3,0.4,0.5,0.7,0.7c0.3,0.2,0.7,0.3,1.1,0.3c0.5,0,0.8-0.1,1.1-0.3c0.3-0.2,0.5-0.4,0.7-0.7c0.2-0.3,0.3-0.6,0.3-1
		c0.1-0.4,0.1-0.8,0.1-1.1c0-1.4,0.1-2.6,0.1-3.9c0-1.2,0-2.5-0.1-3.8c0-0.4-0.1-0.7-0.1-1.1c-0.1-0.4-0.2-0.7-0.3-1
		c-0.2-0.3-0.4-0.5-0.7-0.7C309.9,2,309.5,2,309,2z"/>
	<path class="st0" d="M318.9,3.3l0.4,5.2v8.5c0,0.1-0.1,0.3-0.1,0.4c-0.1,0.1-0.2,0.2-0.4,0.2h-0.8c-0.2,0-0.3-0.1-0.4-0.2
		c-0.1-0.1-0.2-0.3-0.2-0.4V0.8c0-0.1,0.1-0.3,0.2-0.4c0.1-0.1,0.2-0.2,0.4-0.2h1.5c0.2,0,0.3,0.1,0.4,0.2c0.1,0.1,0.1,0.2,0.2,0.4
		l4.6,13.7l-0.4-4.9V0.8c0-0.1,0-0.3,0.1-0.4c0.1-0.1,0.2-0.2,0.4-0.2h0.8c0.2,0,0.3,0.1,0.4,0.2c0.1,0.1,0.2,0.3,0.2,0.4V17
		c0,0.1-0.1,0.3-0.2,0.4c-0.1,0.1-0.2,0.2-0.4,0.2H324c-0.2,0-0.3-0.1-0.4-0.2c-0.1-0.1-0.1-0.2-0.2-0.4L318.9,3.3z"/>
	<path class="st0" d="M338.3,12.8c0,1.7-0.4,2.9-1.2,3.8c-0.8,0.8-1.8,1.2-3.2,1.2c-0.9,0-1.6-0.1-2.1-0.4c-0.6-0.3-1-0.7-1.3-1.2
		c-0.3-0.5-0.6-1.1-0.7-1.7c-0.1-0.6-0.2-1.3-0.2-2v-0.2c0-0.2,0.1-0.3,0.1-0.4c0.1-0.1,0.2-0.2,0.4-0.2h0.9c0.2,0,0.3,0.1,0.4,0.2
		c0.1,0.1,0.1,0.2,0.1,0.4v0.3c0,0.7,0.1,1.2,0.2,1.6c0.1,0.4,0.3,0.8,0.5,1c0.2,0.3,0.5,0.4,0.8,0.5c0.3,0.1,0.6,0.1,0.9,0.1
		c0.7,0,1.3-0.2,1.8-0.6c0.4-0.4,0.7-1.2,0.7-2.3c0-0.6-0.2-1.1-0.5-1.6c-0.3-0.4-0.7-0.8-1.2-1.2c-0.5-0.4-1-0.7-1.6-1.1
		c-0.6-0.4-1.1-0.8-1.6-1.2c-0.5-0.5-0.9-1-1.2-1.6c-0.3-0.6-0.5-1.3-0.5-2.1c0-0.5,0.1-1,0.3-1.5c0.2-0.5,0.4-0.9,0.8-1.3
		c0.3-0.4,0.8-0.7,1.3-0.9c0.5-0.2,1.1-0.3,1.8-0.3s1.3,0.1,1.8,0.3c0.5,0.2,0.9,0.5,1.2,0.9c0.3,0.4,0.6,0.8,0.8,1.3
		c0.2,0.5,0.3,1,0.3,1.4v0.2c0,0.2-0.1,0.3-0.2,0.4c-0.1,0.1-0.2,0.2-0.4,0.2h-0.8c-0.2,0-0.3-0.1-0.4-0.2c-0.1-0.1-0.2-0.2-0.2-0.4
		v0c0-0.6-0.2-1.1-0.6-1.5C335,2.2,334.5,2,333.9,2c-0.4,0-0.7,0.1-1,0.2c-0.3,0.1-0.5,0.3-0.6,0.5c-0.2,0.2-0.3,0.4-0.4,0.7
		c-0.1,0.3-0.1,0.5-0.1,0.8c0,0.6,0.2,1.1,0.5,1.5c0.3,0.4,0.7,0.8,1.2,1.2c0.5,0.4,1,0.8,1.6,1.2s1.1,0.8,1.6,1.2
		c0.5,0.4,0.9,1,1.2,1.5C338.1,11.3,338.3,12,338.3,12.8z"/>
	<path class="st0" d="M341.1,17.5c-0.2,0-0.4-0.1-0.4-0.2c-0.1-0.1-0.1-0.3-0.1-0.4v-1.2c0-0.1,0-0.3,0.1-0.5
		c0.1-0.2,0.2-0.4,0.2-0.5l5.6-12.5h-5.2c-0.1,0-0.3-0.1-0.4-0.2c-0.1-0.1-0.2-0.2-0.2-0.4V0.8c0-0.2,0.1-0.3,0.2-0.4
		c0.1-0.1,0.3-0.1,0.4-0.1h6.7c0.2,0,0.3,0.1,0.4,0.2c0.1,0.1,0.2,0.2,0.2,0.4v1.3c0,0.1,0,0.2,0,0.3c0,0.1-0.1,0.2-0.1,0.2
		l-5.7,12.9h5.7c0.1,0,0.3,0,0.4,0.1c0.1,0.1,0.2,0.2,0.2,0.4V17c0,0.2-0.1,0.3-0.2,0.4c-0.1,0.1-0.3,0.2-0.4,0.2H341.1z"/>
	<path class="st0" d="M359.7,17c0,0.2-0.1,0.3-0.2,0.4c-0.1,0.1-0.3,0.2-0.4,0.2h-6.4c-0.2,0-0.3-0.1-0.4-0.2
		c-0.1-0.1-0.2-0.3-0.2-0.4V0.8c0-0.1,0.1-0.3,0.2-0.4c0.1-0.1,0.2-0.2,0.4-0.2h6.3c0.1,0,0.3,0,0.4,0.1c0.1,0.1,0.2,0.2,0.2,0.4
		v0.8c0,0.2-0.1,0.3-0.2,0.4c-0.1,0.1-0.3,0.2-0.4,0.2h-4.9v5.4h4.2c0.1,0,0.3,0,0.4,0.1c0.1,0.1,0.2,0.2,0.2,0.4V9
		c0,0.2-0.1,0.3-0.2,0.4c-0.1,0.1-0.3,0.2-0.4,0.2h-4.2v6h5c0.1,0,0.3,0,0.4,0.1c0.1,0.1,0.2,0.2,0.2,0.4V17z"/>
	<path class="st0" d="M364.8,3.3l0.4,5.2v8.5c0,0.1-0.1,0.3-0.1,0.4c-0.1,0.1-0.2,0.2-0.4,0.2h-0.8c-0.2,0-0.3-0.1-0.4-0.2
		c-0.1-0.1-0.2-0.3-0.2-0.4V0.8c0-0.1,0.1-0.3,0.2-0.4c0.1-0.1,0.2-0.2,0.4-0.2h1.5c0.2,0,0.3,0.1,0.4,0.2c0.1,0.1,0.1,0.2,0.2,0.4
		l4.6,13.7L370,9.6V0.8c0-0.1,0.1-0.3,0.1-0.4c0.1-0.1,0.2-0.2,0.4-0.2h0.8c0.2,0,0.3,0.1,0.4,0.2c0.1,0.1,0.2,0.3,0.2,0.4V17
		c0,0.1-0.1,0.3-0.2,0.4c-0.1,0.1-0.2,0.2-0.4,0.2H370c-0.2,0-0.3-0.1-0.4-0.2c-0.1-0.1-0.1-0.2-0.2-0.4L364.8,3.3z"/>
	<path class="st0" d="M383.8,1.6c0,0.2-0.1,0.3-0.2,0.4c-0.1,0.1-0.3,0.2-0.4,0.2h-2.8v14.7c0,0.1,0,0.3-0.1,0.4
		c-0.1,0.1-0.2,0.2-0.4,0.2h-0.8c-0.2,0-0.3-0.1-0.4-0.2c-0.1-0.1-0.2-0.3-0.2-0.4V2.2h-2.8c-0.1,0-0.3-0.1-0.4-0.2
		c-0.1-0.1-0.2-0.2-0.2-0.4V0.8c0-0.2,0.1-0.3,0.2-0.4c0.1-0.1,0.2-0.1,0.4-0.1h7.5c0.1,0,0.3,0,0.4,0.1c0.1,0.1,0.2,0.2,0.2,0.4
		V1.6z"/>
	<path class="st0" d="M395.5,17c0,0.1,0,0.2-0.1,0.4c-0.1,0.1-0.2,0.2-0.4,0.2h-1c-0.2,0-0.3,0-0.4-0.1c-0.1-0.1-0.2-0.2-0.2-0.5
		l-2.3-7.6l-2.2,0V17c0,0.1-0.1,0.3-0.1,0.4c-0.1,0.1-0.2,0.2-0.4,0.2h-0.8c-0.2,0-0.3-0.1-0.4-0.2c-0.1-0.1-0.2-0.2-0.2-0.4V0.8
		c0-0.2,0.1-0.3,0.2-0.4c0.1-0.1,0.2-0.2,0.4-0.2h3c1,0,1.8,0.1,2.4,0.2c0.7,0.2,1.2,0.5,1.6,1.1c0.3,0.4,0.5,0.9,0.6,1.4
		c0.1,0.5,0.2,1.2,0.2,1.9c0,1.2-0.2,2.1-0.5,2.7c-0.3,0.6-0.9,1.1-1.7,1.4L395.5,17z M388.9,7.5h1.6c0.5,0,0.9,0,1.2-0.1
		c0.3,0,0.6-0.2,0.8-0.3c0.2-0.1,0.3-0.2,0.4-0.4c0.1-0.1,0.2-0.3,0.2-0.4c0.1-0.2,0.1-0.3,0.1-0.6c0-0.2,0-0.5,0-0.8
		c0-0.7-0.1-1.2-0.2-1.6c-0.1-0.4-0.4-0.6-0.6-0.8c-0.1-0.1-0.3-0.1-0.4-0.2c-0.1,0-0.3-0.1-0.6-0.1c-0.2,0-0.6,0-1,0s-0.9,0-1.6,0
		V7.5z"/>
	<path class="st0" d="M400.8,12.9c0,0.4,0,0.7,0.1,1.1c0.1,0.3,0.2,0.7,0.3,0.9c0.2,0.3,0.4,0.5,0.7,0.7c0.3,0.2,0.7,0.2,1.2,0.2
		c0.5,0,0.9-0.1,1.2-0.2c0.3-0.2,0.5-0.4,0.7-0.7c0.2-0.3,0.3-0.6,0.3-0.9c0-0.4,0.1-0.7,0.1-1.1V0.8c0-0.2,0-0.3,0.1-0.4
		c0.1-0.1,0.2-0.2,0.4-0.2h0.8c0.2,0,0.3,0.1,0.4,0.2c0.1,0.1,0.2,0.2,0.2,0.4v12.9c0,0.4,0,0.8-0.1,1.2c-0.1,0.5-0.3,0.9-0.6,1.3
		c-0.3,0.4-0.7,0.8-1.3,1.1c-0.6,0.3-1.3,0.4-2.3,0.4c-0.9,0-1.6-0.1-2.2-0.4c-0.5-0.3-1-0.6-1.2-1.1c-0.3-0.4-0.5-0.8-0.6-1.3
		c-0.1-0.4-0.1-0.8-0.1-1.1V0.8c0-0.2,0-0.3,0.1-0.4c0.1-0.1,0.2-0.2,0.4-0.2h0.8c0.2,0,0.3,0.1,0.4,0.2c0.1,0.1,0.2,0.2,0.2,0.4
		V12.9z"/>
	<path class="st0" d="M413.3,3L413.3,3l0.2,7.6v6.3c0,0.1,0,0.3-0.1,0.4c-0.1,0.1-0.2,0.2-0.4,0.2h-0.8c-0.2,0-0.3-0.1-0.4-0.2
		c-0.1-0.1-0.2-0.3-0.2-0.4V0.8c0-0.1,0.1-0.3,0.2-0.4c0.1-0.1,0.2-0.2,0.4-0.2h1.5c0.2,0,0.3,0,0.4,0.1c0.1,0.1,0.1,0.2,0.2,0.4
		l1.9,7.8l0.5,2.7h0.1l0.5-2.7l1.9-7.8c0.1-0.4,0.3-0.5,0.6-0.5h1.6c0.2,0,0.3,0.1,0.4,0.2c0.1,0.1,0.1,0.2,0.1,0.4v16.1
		c0,0.1-0.1,0.3-0.1,0.4c-0.1,0.1-0.2,0.2-0.4,0.2h-0.8c-0.1,0-0.3-0.1-0.4-0.2c-0.1-0.1-0.2-0.3-0.2-0.4v-6.3l0.3-7.6H420
		l-2.4,10.7c0,0.2-0.1,0.3-0.2,0.4c-0.1,0.1-0.2,0.1-0.4,0.1h-0.8c-0.1,0-0.3-0.1-0.4-0.2c-0.1-0.1-0.2-0.2-0.2-0.4L413.3,3z"/>
	<path class="st0" d="M132.7,31c0,0.2-0.1,0.3-0.2,0.4c-0.1,0.1-0.3,0.2-0.4,0.2h-2.8v14.7c0,0.1,0,0.3-0.1,0.4
		c-0.1,0.1-0.2,0.2-0.4,0.2H128c-0.2,0-0.3-0.1-0.4-0.2c-0.1-0.1-0.2-0.3-0.2-0.4V31.6h-2.8c-0.1,0-0.3-0.1-0.4-0.2
		c-0.1-0.1-0.2-0.2-0.2-0.4v-0.8c0-0.2,0.1-0.3,0.2-0.4c0.1-0.1,0.2-0.1,0.4-0.1h7.5c0.1,0,0.3,0,0.4,0.1c0.1,0.1,0.2,0.2,0.2,0.4
		V31z"/>
	<path class="st0" d="M143.4,46.3c0,0.2-0.1,0.3-0.2,0.4c-0.1,0.1-0.3,0.2-0.4,0.2h-6.4c-0.2,0-0.3-0.1-0.4-0.2
		c-0.1-0.1-0.2-0.3-0.2-0.4V30.2c0-0.1,0.1-0.3,0.2-0.4c0.1-0.1,0.2-0.2,0.4-0.2h6.3c0.1,0,0.3,0,0.4,0.1c0.1,0.1,0.2,0.2,0.2,0.4
		V31c0,0.2-0.1,0.3-0.2,0.4c-0.1,0.1-0.3,0.2-0.4,0.2h-4.9V37h4.2c0.1,0,0.3,0,0.4,0.1c0.1,0.1,0.2,0.2,0.2,0.4v0.8
		c0,0.2-0.1,0.3-0.2,0.4c-0.1,0.1-0.3,0.2-0.4,0.2h-4.2v6h5c0.1,0,0.3,0,0.4,0.1c0.1,0.1,0.2,0.2,0.2,0.4V46.3z"/>
	<path class="st0" d="M154.7,34.1c0,0.2,0,0.3-0.1,0.4c-0.1,0.1-0.2,0.2-0.4,0.2h-0.8c-0.2,0-0.3-0.1-0.4-0.2
		c-0.1-0.1-0.2-0.2-0.2-0.4v-0.3c0-0.3,0-0.6-0.1-0.9c-0.1-0.3-0.2-0.5-0.3-0.8c-0.2-0.2-0.4-0.4-0.6-0.6c-0.3-0.1-0.6-0.2-0.9-0.2
		c-0.5,0-0.9,0.1-1.2,0.2c-0.3,0.2-0.5,0.4-0.7,0.6c-0.2,0.3-0.3,0.6-0.3,0.9c-0.1,0.4-0.1,0.7-0.1,1.1c0,0.7-0.1,1.4-0.1,2.1
		c0,0.6,0,1.3,0,1.9c0,0.6,0,1.2,0,1.9c0,0.6,0.1,1.3,0.1,2c0,0.4,0.1,0.7,0.1,1.1c0.1,0.4,0.2,0.7,0.3,1c0.2,0.3,0.4,0.5,0.7,0.7
		c0.3,0.2,0.7,0.3,1.2,0.3c0.4,0,0.7-0.1,1-0.2c0.3-0.2,0.5-0.4,0.7-0.7c0.2-0.3,0.3-0.6,0.4-0.9c0.1-0.4,0.1-0.7,0.1-1.1v-0.9
		c0-0.2,0-0.3,0.1-0.4c0.1-0.1,0.2-0.2,0.4-0.2h0.8c0.2,0,0.3,0.1,0.4,0.2c0.1,0.1,0.2,0.2,0.2,0.4V43c0,0.4-0.1,0.8-0.2,1.2
		c-0.1,0.5-0.3,0.9-0.6,1.3c-0.3,0.4-0.7,0.8-1.3,1.1c-0.6,0.3-1.3,0.4-2.2,0.4c-0.9,0-1.6-0.2-2.1-0.5c-0.5-0.3-0.9-0.7-1.2-1.1
		c-0.3-0.4-0.5-0.9-0.6-1.4c-0.1-0.5-0.2-0.9-0.2-1.2c-0.1-0.8-0.1-1.6-0.1-2.4c0-0.8,0-1.5,0-2.3s0-1.5,0-2.3
		c0-0.8,0.1-1.6,0.1-2.4c0-0.4,0.1-0.8,0.2-1.3c0.1-0.5,0.3-0.9,0.6-1.4c0.3-0.4,0.7-0.8,1.3-1.1c0.6-0.3,1.4-0.5,2.3-0.5
		c0.8,0,1.4,0.1,1.9,0.4c0.5,0.3,0.9,0.6,1.2,1c0.3,0.4,0.5,0.8,0.6,1.3c0.1,0.4,0.1,0.8,0.1,1.1V34.1z"/>
	<path class="st0" d="M165.4,46.9c-0.2,0-0.3-0.1-0.4-0.2c-0.1-0.1-0.2-0.3-0.2-0.4V39h-4.5v7.4c0,0.1,0,0.3-0.1,0.4
		c-0.1,0.1-0.2,0.2-0.4,0.2h-0.8c-0.2,0-0.3-0.1-0.4-0.2c-0.1-0.1-0.2-0.3-0.2-0.4V30.2c0-0.1,0.1-0.3,0.2-0.4
		c0.1-0.1,0.2-0.2,0.4-0.2h0.8c0.2,0,0.3,0.1,0.4,0.2c0.1,0.1,0.1,0.2,0.1,0.4V37h4.5v-6.8c0-0.1,0.1-0.3,0.2-0.4
		c0.1-0.1,0.2-0.2,0.4-0.2h0.8c0.2,0,0.3,0.1,0.4,0.2c0.1,0.1,0.1,0.2,0.1,0.4v16.1c0,0.1-0.1,0.3-0.1,0.4c-0.1,0.1-0.2,0.2-0.4,0.2
		H165.4z"/>
	<path class="st0" d="M172.8,32.7l0.4,5.2v8.5c0,0.1,0,0.3-0.1,0.4c-0.1,0.1-0.2,0.2-0.4,0.2h-0.8c-0.2,0-0.3-0.1-0.4-0.2
		c-0.1-0.1-0.2-0.3-0.2-0.4V30.2c0-0.1,0.1-0.3,0.2-0.4c0.1-0.1,0.2-0.2,0.4-0.2h1.5c0.2,0,0.3,0.1,0.4,0.2c0.1,0.1,0.1,0.2,0.2,0.4
		l4.6,13.7l-0.4-4.9v-8.7c0-0.1,0-0.3,0.1-0.4c0.1-0.1,0.2-0.2,0.4-0.2h0.8c0.2,0,0.3,0.1,0.4,0.2c0.1,0.1,0.2,0.3,0.2,0.4v16.1
		c0,0.1-0.1,0.3-0.2,0.4c-0.1,0.1-0.2,0.2-0.4,0.2H178c-0.2,0-0.3-0.1-0.4-0.2c-0.1-0.1-0.1-0.2-0.2-0.4L172.8,32.7z"/>
	<path class="st0" d="M185.4,46.9c-0.2,0-0.3-0.1-0.4-0.2c-0.1-0.1-0.2-0.3-0.2-0.4V30.2c0-0.1,0.1-0.3,0.2-0.4
		c0.1-0.1,0.2-0.2,0.4-0.2h0.8c0.2,0,0.3,0.1,0.4,0.2c0.1,0.1,0.1,0.2,0.1,0.4v16.1c0,0.1,0,0.3-0.1,0.4c-0.1,0.1-0.2,0.2-0.4,0.2
		H185.4z"/>
	<path class="st0" d="M200.3,46.3c0.1,0.1,0.1,0.3,0,0.4c-0.1,0.1-0.2,0.2-0.3,0.2h-1.1c-0.2,0-0.3-0.1-0.4-0.2
		c-0.1-0.1-0.2-0.2-0.2-0.4l-3.4-8l-1.2,2.1v5.9c0,0.2-0.1,0.3-0.2,0.4c-0.1,0.1-0.2,0.2-0.4,0.2h-0.8c-0.1,0-0.3-0.1-0.4-0.2
		c-0.1-0.1-0.2-0.2-0.2-0.4V30.2c0-0.1,0.1-0.3,0.2-0.4c0.1-0.1,0.2-0.2,0.4-0.2h0.8c0.1,0,0.3,0.1,0.4,0.2c0.1,0.1,0.2,0.2,0.2,0.4
		v7l4.2-7.2c0.1-0.1,0.2-0.2,0.2-0.3c0.1-0.1,0.2-0.1,0.4-0.1h1.3c0.1,0,0.2,0,0.2,0.1s0.1,0.1,0.1,0.2c0,0.1,0,0.2-0.1,0.3
		l-3.8,6.4L200.3,46.3z"/>
	<path class="st0" d="M211.6,42.3c0,0.4,0,0.7,0.1,1.1c0.1,0.3,0.2,0.7,0.3,0.9c0.2,0.3,0.4,0.5,0.7,0.7c0.3,0.2,0.7,0.2,1.2,0.2
		c0.5,0,0.9-0.1,1.2-0.2c0.3-0.2,0.5-0.4,0.7-0.7c0.2-0.3,0.3-0.6,0.3-0.9c0-0.4,0.1-0.7,0.1-1.1V30.2c0-0.2,0-0.3,0.1-0.4
		c0.1-0.1,0.2-0.2,0.4-0.2h0.8c0.2,0,0.3,0.1,0.4,0.2c0.1,0.1,0.2,0.2,0.2,0.4V43c0,0.4,0,0.8-0.1,1.2c-0.1,0.5-0.3,0.9-0.6,1.3
		c-0.3,0.4-0.7,0.8-1.3,1.1c-0.6,0.3-1.3,0.4-2.3,0.4c-0.9,0-1.6-0.1-2.2-0.4c-0.5-0.3-1-0.6-1.2-1.1c-0.3-0.4-0.5-0.8-0.6-1.3
		c-0.1-0.4-0.1-0.8-0.1-1.1V30.2c0-0.2,0-0.3,0.1-0.4c0.1-0.1,0.2-0.2,0.4-0.2h0.8c0.2,0,0.3,0.1,0.4,0.2c0.1,0.1,0.2,0.2,0.2,0.4
		V42.3z"/>
	<path class="st0" d="M223.8,32.7l0.4,5.2v8.5c0,0.1,0,0.3-0.1,0.4c-0.1,0.1-0.2,0.2-0.4,0.2h-0.8c-0.2,0-0.3-0.1-0.4-0.2
		c-0.1-0.1-0.2-0.3-0.2-0.4V30.2c0-0.1,0.1-0.3,0.2-0.4c0.1-0.1,0.2-0.2,0.4-0.2h1.5c0.2,0,0.3,0.1,0.4,0.2c0.1,0.1,0.1,0.2,0.2,0.4
		l4.6,13.7l-0.4-4.9v-8.7c0-0.1,0-0.3,0.1-0.4c0.1-0.1,0.2-0.2,0.4-0.2h0.8c0.2,0,0.3,0.1,0.4,0.2c0.1,0.1,0.2,0.3,0.2,0.4v16.1
		c0,0.1-0.1,0.3-0.2,0.4c-0.1,0.1-0.2,0.2-0.4,0.2H229c-0.2,0-0.3-0.1-0.4-0.2c-0.1-0.1-0.1-0.2-0.2-0.4L223.8,32.7z"/>
	<path class="st0" d="M235.6,30.2c0-0.1,0.1-0.3,0.2-0.4c0.1-0.1,0.2-0.2,0.4-0.2h3.8c0.9,0,1.6,0.1,2.1,0.4c0.5,0.3,0.9,0.6,1.2,1
		c0.3,0.4,0.5,0.8,0.6,1.2c0.1,0.4,0.2,0.8,0.2,1.1c0.2,1.6,0.3,3.2,0.3,4.8c0,1.6-0.1,3.2-0.3,4.8c0,0.4-0.1,0.8-0.2,1.2
		c-0.1,0.5-0.3,0.9-0.6,1.3c-0.3,0.4-0.7,0.7-1.3,1c-0.6,0.3-1.3,0.4-2.3,0.4h-3.5c-0.2,0-0.3-0.1-0.4-0.2c-0.1-0.1-0.2-0.3-0.2-0.4
		V30.2z M237.5,45h2.3c0.5,0,0.9-0.1,1.2-0.2c0.3-0.1,0.5-0.3,0.7-0.6c0.2-0.3,0.3-0.6,0.3-0.9c0.1-0.3,0.1-0.7,0.2-1.1
		c0.2-1.4,0.2-2.7,0.2-4c0-1.3-0.1-2.5-0.3-3.9c0-0.4-0.1-0.7-0.2-1c-0.1-0.3-0.2-0.6-0.3-0.9c-0.2-0.3-0.4-0.5-0.7-0.6
		c-0.3-0.1-0.7-0.2-1.2-0.2h-2.3V45z"/>
	<path class="st0" d="M256,32.7l0.4,5.2v8.5c0,0.1,0,0.3-0.1,0.4c-0.1,0.1-0.2,0.2-0.4,0.2H255c-0.2,0-0.3-0.1-0.4-0.2
		c-0.1-0.1-0.2-0.3-0.2-0.4V30.2c0-0.1,0.1-0.3,0.2-0.4c0.1-0.1,0.2-0.2,0.4-0.2h1.5c0.2,0,0.3,0.1,0.4,0.2c0.1,0.1,0.1,0.2,0.2,0.4
		l4.6,13.7l-0.4-4.9v-8.7c0-0.1,0.1-0.3,0.1-0.4c0.1-0.1,0.2-0.2,0.4-0.2h0.8c0.2,0,0.3,0.1,0.4,0.2c0.1,0.1,0.2,0.3,0.2,0.4v16.1
		c0,0.1-0.1,0.3-0.2,0.4c-0.1,0.1-0.2,0.2-0.4,0.2h-1.5c-0.2,0-0.3-0.1-0.4-0.2c-0.1-0.1-0.1-0.2-0.2-0.4L256,32.7z"/>
	<path class="st0" d="M271.6,29.6c0.3,0,0.5,0.2,0.6,0.6l3.2,16.2c0,0.2,0,0.3-0.1,0.4c-0.1,0.1-0.2,0.2-0.4,0.2h-1
		c-0.3,0-0.5-0.2-0.6-0.6l-0.6-2.9h-3.4l-0.6,2.9c-0.1,0.4-0.3,0.6-0.6,0.6h-1c-0.2,0-0.3-0.1-0.4-0.2c-0.1-0.1-0.1-0.2-0.1-0.4
		l3.2-16.2c0-0.2,0.1-0.3,0.2-0.4c0.1-0.1,0.2-0.2,0.4-0.2H271.6z M272.5,41.5l-1-6.1l-0.3-3.3h-0.1l-0.3,3.3l-1,6.1H272.5z"/>
	<path class="st0" d="M285.5,31c0,0.2-0.1,0.3-0.2,0.4c-0.1,0.1-0.3,0.2-0.4,0.2h-2.8v14.7c0,0.1,0,0.3-0.1,0.4
		c-0.1,0.1-0.2,0.2-0.4,0.2h-0.8c-0.2,0-0.3-0.1-0.4-0.2c-0.1-0.1-0.2-0.3-0.2-0.4V31.6h-2.8c-0.1,0-0.3-0.1-0.4-0.2
		c-0.1-0.1-0.2-0.2-0.2-0.4v-0.8c0-0.2,0.1-0.3,0.2-0.4c0.1-0.1,0.2-0.1,0.4-0.1h7.5c0.1,0,0.3,0,0.4,0.1c0.1,0.1,0.2,0.2,0.2,0.4
		V31z"/>
	<path class="st0" d="M290.3,42.3c0,0.4,0,0.7,0.1,1.1c0.1,0.3,0.2,0.7,0.3,0.9c0.2,0.3,0.4,0.5,0.7,0.7c0.3,0.2,0.7,0.2,1.2,0.2
		c0.5,0,0.9-0.1,1.2-0.2c0.3-0.2,0.5-0.4,0.7-0.7c0.2-0.3,0.3-0.6,0.3-0.9c0-0.4,0.1-0.7,0.1-1.1V30.2c0-0.2,0-0.3,0.1-0.4
		c0.1-0.1,0.2-0.2,0.4-0.2h0.8c0.2,0,0.3,0.1,0.4,0.2c0.1,0.1,0.2,0.2,0.2,0.4V43c0,0.4,0,0.8-0.1,1.2c-0.1,0.5-0.3,0.9-0.6,1.3
		c-0.3,0.4-0.7,0.8-1.3,1.1c-0.6,0.3-1.3,0.4-2.3,0.4c-0.9,0-1.6-0.1-2.2-0.4c-0.5-0.3-1-0.6-1.2-1.1c-0.3-0.4-0.5-0.8-0.6-1.3
		c-0.1-0.4-0.1-0.8-0.1-1.1V30.2c0-0.2,0-0.3,0.1-0.4c0.1-0.1,0.2-0.2,0.4-0.2h0.8c0.2,0,0.3,0.1,0.4,0.2c0.1,0.1,0.2,0.2,0.2,0.4
		V42.3z"/>
	<path class="st0" d="M309.5,46.3c0,0.1,0,0.2,0,0.4c-0.1,0.1-0.2,0.2-0.4,0.2h-1c-0.2,0-0.3,0-0.4-0.1c-0.1-0.1-0.2-0.2-0.2-0.5
		l-2.3-7.6l-2.2,0v7.5c0,0.1,0,0.3-0.1,0.4c-0.1,0.1-0.2,0.2-0.4,0.2h-0.8c-0.2,0-0.3-0.1-0.4-0.2c-0.1-0.1-0.2-0.2-0.2-0.4V30.2
		c0-0.2,0.1-0.3,0.2-0.4c0.1-0.1,0.2-0.2,0.4-0.2h3c1,0,1.8,0.1,2.4,0.2c0.7,0.2,1.2,0.5,1.6,1.1c0.3,0.4,0.5,0.9,0.6,1.4
		c0.1,0.5,0.2,1.2,0.2,1.9c0,1.2-0.2,2.1-0.5,2.7c-0.3,0.6-0.9,1.1-1.7,1.4L309.5,46.3z M302.9,36.8h1.6c0.5,0,0.9,0,1.2-0.1
		c0.3,0,0.6-0.2,0.8-0.3c0.2-0.1,0.3-0.2,0.4-0.4c0.1-0.1,0.2-0.3,0.2-0.4c0.1-0.2,0.1-0.3,0.1-0.6c0-0.2,0-0.5,0-0.8
		c0-0.7-0.1-1.2-0.2-1.6c-0.1-0.4-0.3-0.6-0.6-0.8c-0.1-0.1-0.3-0.1-0.4-0.2c-0.1,0-0.3-0.1-0.6-0.1c-0.2,0-0.6,0-1,0
		c-0.4,0-0.9,0-1.6,0V36.8z"/>
	<path class="st0" d="M317.5,38.5l-0.4,2.3l-1.5,5.6c-0.1,0.4-0.3,0.6-0.5,0.6h-0.9c-0.2,0-0.3-0.1-0.4-0.2
		c-0.1-0.1-0.2-0.2-0.2-0.4l-1.5-16.1c0-0.1,0-0.3,0.1-0.4c0.1-0.1,0.3-0.2,0.4-0.2h0.8c0.2,0,0.3,0.1,0.4,0.2
		c0.1,0.1,0.1,0.3,0.2,0.4l0.6,6.9l0.2,6h0.1l1.5-7.1c0-0.2,0.1-0.3,0.2-0.4c0.1-0.1,0.2-0.1,0.4-0.1h0.8c0.2,0,0.3,0,0.4,0.1
		c0.1,0.1,0.1,0.2,0.2,0.4l1.5,7.1h0.1l0.2-6l0.6-6.9c0-0.1,0.1-0.3,0.2-0.4c0.1-0.1,0.2-0.2,0.4-0.2h0.8c0.2,0,0.3,0.1,0.4,0.2
		c0.1,0.1,0.2,0.3,0.1,0.4l-1.5,16.1c0,0.1-0.1,0.3-0.2,0.4c-0.1,0.1-0.2,0.2-0.4,0.2H320c-0.3,0-0.5-0.2-0.5-0.6l-1.5-5.6
		L317.5,38.5L317.5,38.5z"/>
	<path class="st0" d="M327.6,46.9c-0.2,0-0.3-0.1-0.4-0.2c-0.1-0.1-0.2-0.3-0.2-0.4V30.2c0-0.1,0.1-0.3,0.2-0.4
		c0.1-0.1,0.2-0.2,0.4-0.2h0.8c0.2,0,0.3,0.1,0.4,0.2c0.1,0.1,0.1,0.2,0.1,0.4v16.1c0,0.1,0,0.3-0.1,0.4c-0.1,0.1-0.2,0.2-0.4,0.2
		H327.6z"/>
	<path class="st0" d="M341.6,42.1c0,1.7-0.4,2.9-1.2,3.8c-0.8,0.8-1.8,1.2-3.2,1.2c-0.9,0-1.6-0.1-2.1-0.4c-0.6-0.3-1-0.7-1.3-1.2
		c-0.3-0.5-0.6-1.1-0.7-1.7c-0.1-0.6-0.2-1.3-0.2-2v-0.2c0-0.2,0-0.3,0.1-0.4c0.1-0.1,0.2-0.2,0.4-0.2h0.9c0.2,0,0.3,0.1,0.4,0.2
		c0.1,0.1,0.1,0.2,0.1,0.4v0.3c0,0.7,0.1,1.2,0.2,1.6c0.1,0.4,0.3,0.8,0.5,1c0.2,0.3,0.5,0.4,0.8,0.5c0.3,0.1,0.6,0.1,0.9,0.1
		c0.7,0,1.3-0.2,1.8-0.6c0.4-0.4,0.7-1.2,0.7-2.3c0-0.6-0.2-1.1-0.5-1.6c-0.3-0.4-0.7-0.8-1.2-1.2c-0.5-0.4-1-0.7-1.6-1.1
		c-0.6-0.4-1.1-0.8-1.6-1.2c-0.5-0.5-0.9-1-1.2-1.6c-0.3-0.6-0.5-1.3-0.5-2.1c0-0.5,0.1-1,0.3-1.5c0.2-0.5,0.4-0.9,0.8-1.3
		c0.3-0.4,0.8-0.7,1.3-0.9c0.5-0.2,1.1-0.3,1.8-0.3c0.7,0,1.3,0.1,1.8,0.3c0.5,0.2,0.9,0.5,1.2,0.9c0.3,0.4,0.6,0.8,0.8,1.3
		c0.2,0.5,0.3,1,0.3,1.4v0.2c0,0.2-0.1,0.3-0.2,0.4c-0.1,0.1-0.2,0.2-0.4,0.2h-0.8c-0.2,0-0.3-0.1-0.4-0.2c-0.1-0.1-0.2-0.2-0.2-0.4
		v0c0-0.6-0.2-1.1-0.6-1.5c-0.4-0.4-0.9-0.6-1.5-0.6c-0.4,0-0.7,0.1-1,0.2c-0.3,0.1-0.5,0.3-0.6,0.5c-0.2,0.2-0.3,0.4-0.4,0.7
		c-0.1,0.3-0.1,0.5-0.1,0.8c0,0.6,0.2,1.1,0.5,1.5c0.3,0.4,0.7,0.8,1.2,1.2c0.5,0.4,1,0.8,1.6,1.2c0.6,0.4,1.1,0.8,1.6,1.2
		c0.5,0.5,0.9,1,1.2,1.5C341.4,40.7,341.6,41.4,341.6,42.1z"/>
	<path class="st0" d="M352.7,42.1c0,1.7-0.4,2.9-1.1,3.8s-1.8,1.2-3.2,1.2c-0.9,0-1.6-0.1-2.1-0.4c-0.6-0.3-1-0.7-1.3-1.2
		c-0.3-0.5-0.6-1.1-0.7-1.7c-0.1-0.6-0.2-1.3-0.2-2v-0.2c0-0.2,0-0.3,0.1-0.4c0.1-0.1,0.2-0.2,0.4-0.2h0.9c0.2,0,0.3,0.1,0.4,0.2
		c0.1,0.1,0.1,0.2,0.1,0.4v0.3c0,0.7,0.1,1.2,0.2,1.6c0.1,0.4,0.3,0.8,0.5,1s0.5,0.4,0.8,0.5c0.3,0.1,0.6,0.1,0.9,0.1
		c0.7,0,1.3-0.2,1.8-0.6c0.4-0.4,0.7-1.2,0.7-2.3c0-0.6-0.2-1.1-0.5-1.6c-0.3-0.4-0.7-0.8-1.2-1.2c-0.5-0.4-1-0.7-1.6-1.1
		c-0.6-0.4-1.1-0.8-1.6-1.2c-0.5-0.5-0.9-1-1.2-1.6c-0.3-0.6-0.5-1.3-0.5-2.1c0-0.5,0.1-1,0.3-1.5c0.2-0.5,0.4-0.9,0.8-1.3
		c0.3-0.4,0.8-0.7,1.3-0.9c0.5-0.2,1.1-0.3,1.8-0.3c0.7,0,1.3,0.1,1.8,0.3c0.5,0.2,0.9,0.5,1.2,0.9c0.3,0.4,0.6,0.8,0.8,1.3
		c0.2,0.5,0.3,1,0.3,1.4v0.2c0,0.2-0.1,0.3-0.2,0.4c-0.1,0.1-0.3,0.2-0.4,0.2h-0.8c-0.2,0-0.3-0.1-0.4-0.2c-0.1-0.1-0.2-0.2-0.2-0.4
		v0c0-0.6-0.2-1.1-0.6-1.5c-0.4-0.4-0.9-0.6-1.5-0.6c-0.4,0-0.7,0.1-1,0.2c-0.3,0.1-0.5,0.3-0.6,0.5c-0.2,0.2-0.3,0.4-0.4,0.7
		c-0.1,0.3-0.1,0.5-0.1,0.8c0,0.6,0.2,1.1,0.5,1.5c0.3,0.4,0.7,0.8,1.2,1.2c0.5,0.4,1,0.8,1.6,1.2c0.6,0.4,1.1,0.8,1.6,1.2
		c0.5,0.5,0.9,1,1.2,1.5C352.6,40.7,352.7,41.4,352.7,42.1z"/>
	<path class="st0" d="M363.8,46.3c0,0.2-0.1,0.3-0.2,0.4c-0.1,0.1-0.3,0.2-0.4,0.2h-6.4c-0.2,0-0.3-0.1-0.4-0.2
		c-0.1-0.1-0.2-0.3-0.2-0.4V30.2c0-0.1,0.1-0.3,0.2-0.4c0.1-0.1,0.2-0.2,0.4-0.2h6.3c0.1,0,0.3,0,0.4,0.1c0.1,0.1,0.2,0.2,0.2,0.4
		V31c0,0.2-0.1,0.3-0.2,0.4c-0.1,0.1-0.3,0.2-0.4,0.2h-4.9V37h4.2c0.1,0,0.3,0,0.4,0.1c0.1,0.1,0.2,0.2,0.2,0.4v0.8
		c0,0.2-0.1,0.3-0.2,0.4c-0.1,0.1-0.3,0.2-0.4,0.2h-4.2v6h5c0.1,0,0.3,0,0.4,0.1c0.1,0.1,0.2,0.2,0.2,0.4V46.3z"/>
	<path class="st0" d="M368.9,32.7l0.4,5.2v8.5c0,0.1,0,0.3-0.1,0.4c-0.1,0.1-0.2,0.2-0.4,0.2h-0.8c-0.2,0-0.3-0.1-0.4-0.2
		c-0.1-0.1-0.2-0.3-0.2-0.4V30.2c0-0.1,0.1-0.3,0.2-0.4c0.1-0.1,0.2-0.2,0.4-0.2h1.5c0.2,0,0.3,0.1,0.4,0.2c0.1,0.1,0.1,0.2,0.2,0.4
		l4.6,13.7l-0.4-4.9v-8.7c0-0.1,0-0.3,0.1-0.4c0.1-0.1,0.2-0.2,0.4-0.2h0.8c0.2,0,0.3,0.1,0.4,0.2c0.1,0.1,0.2,0.3,0.2,0.4v16.1
		c0,0.1-0.1,0.3-0.2,0.4c-0.1,0.1-0.2,0.2-0.4,0.2H374c-0.2,0-0.3-0.1-0.4-0.2c-0.1-0.1-0.1-0.2-0.2-0.4L368.9,32.7z"/>
	<path class="st0" d="M388.3,42.1c0,1.7-0.4,2.9-1.1,3.8c-0.8,0.8-1.8,1.2-3.2,1.2c-0.9,0-1.6-0.1-2.1-0.4c-0.6-0.3-1-0.7-1.3-1.2
		c-0.3-0.5-0.6-1.1-0.7-1.7c-0.1-0.6-0.2-1.3-0.2-2v-0.2c0-0.2,0-0.3,0.1-0.4c0.1-0.1,0.2-0.2,0.4-0.2h0.9c0.2,0,0.3,0.1,0.4,0.2
		c0.1,0.1,0.1,0.2,0.1,0.4v0.3c0,0.7,0.1,1.2,0.2,1.6c0.1,0.4,0.3,0.8,0.5,1s0.5,0.4,0.8,0.5c0.3,0.1,0.6,0.1,0.9,0.1
		c0.7,0,1.3-0.2,1.8-0.6c0.4-0.4,0.7-1.2,0.7-2.3c0-0.6-0.2-1.1-0.5-1.6c-0.3-0.4-0.7-0.8-1.2-1.2c-0.5-0.4-1-0.7-1.6-1.1
		s-1.1-0.8-1.6-1.2c-0.5-0.5-0.9-1-1.2-1.6c-0.3-0.6-0.5-1.3-0.5-2.1c0-0.5,0.1-1,0.3-1.5c0.2-0.5,0.4-0.9,0.8-1.3
		c0.3-0.4,0.8-0.7,1.3-0.9c0.5-0.2,1.1-0.3,1.8-0.3c0.7,0,1.3,0.1,1.8,0.3c0.5,0.2,0.9,0.5,1.2,0.9c0.3,0.4,0.6,0.8,0.8,1.3
		c0.2,0.5,0.3,1,0.3,1.4v0.2c0,0.2-0.1,0.3-0.2,0.4c-0.1,0.1-0.3,0.2-0.4,0.2h-0.8c-0.2,0-0.3-0.1-0.4-0.2c-0.1-0.1-0.2-0.2-0.2-0.4
		v0c0-0.6-0.2-1.1-0.6-1.5c-0.4-0.4-0.9-0.6-1.5-0.6c-0.4,0-0.7,0.1-1,0.2c-0.3,0.1-0.5,0.3-0.6,0.5c-0.2,0.2-0.3,0.4-0.4,0.7
		c-0.1,0.3-0.1,0.5-0.1,0.8c0,0.6,0.2,1.1,0.5,1.5c0.3,0.4,0.7,0.8,1.2,1.2c0.5,0.4,1,0.8,1.6,1.2c0.6,0.4,1.1,0.8,1.6,1.2
		c0.5,0.5,0.9,1,1.2,1.5C388.1,40.7,388.3,41.4,388.3,42.1z"/>
	<path class="st0" d="M399.6,34.1c0,0.2,0,0.3-0.1,0.4c-0.1,0.1-0.2,0.2-0.4,0.2h-0.8c-0.2,0-0.3-0.1-0.4-0.2
		c-0.1-0.1-0.2-0.2-0.2-0.4v-0.3c0-0.3,0-0.6-0.1-0.9c-0.1-0.3-0.2-0.5-0.3-0.8c-0.2-0.2-0.4-0.4-0.6-0.6c-0.3-0.1-0.6-0.2-0.9-0.2
		c-0.5,0-0.9,0.1-1.2,0.2c-0.3,0.2-0.5,0.4-0.7,0.6c-0.2,0.3-0.3,0.6-0.3,0.9c-0.1,0.4-0.1,0.7-0.1,1.1c-0.1,0.7-0.1,1.4-0.1,2.1
		c0,0.6,0,1.3,0,1.9c0,0.6,0,1.2,0,1.9c0,0.6,0.1,1.3,0.1,2c0,0.4,0.1,0.7,0.1,1.1c0.1,0.4,0.2,0.7,0.3,1c0.2,0.3,0.4,0.5,0.7,0.7
		c0.3,0.2,0.7,0.3,1.2,0.3c0.4,0,0.7-0.1,1-0.2c0.3-0.2,0.5-0.4,0.7-0.7c0.2-0.3,0.3-0.6,0.4-0.9c0.1-0.4,0.1-0.7,0.1-1.1v-0.9
		c0-0.2,0-0.3,0.1-0.4c0.1-0.1,0.2-0.2,0.4-0.2h0.8c0.2,0,0.3,0.1,0.4,0.2c0.1,0.1,0.2,0.2,0.2,0.4V43c0,0.4-0.1,0.8-0.2,1.2
		c-0.1,0.5-0.3,0.9-0.6,1.3c-0.3,0.4-0.7,0.8-1.3,1.1c-0.6,0.3-1.3,0.4-2.2,0.4c-0.9,0-1.6-0.2-2.1-0.5c-0.5-0.3-0.9-0.7-1.2-1.1
		c-0.3-0.4-0.5-0.9-0.6-1.4c-0.1-0.5-0.2-0.9-0.2-1.2c-0.1-0.8-0.1-1.6-0.1-2.4c0-0.8,0-1.5,0-2.3s0-1.5,0-2.3
		c0-0.8,0.1-1.6,0.1-2.4c0-0.4,0.1-0.8,0.2-1.3c0.1-0.5,0.3-0.9,0.6-1.4c0.3-0.4,0.7-0.8,1.3-1.1c0.6-0.3,1.3-0.5,2.3-0.5
		c0.8,0,1.4,0.1,1.9,0.4c0.5,0.3,0.9,0.6,1.2,1c0.3,0.4,0.5,0.8,0.6,1.3c0.1,0.4,0.1,0.8,0.1,1.1V34.1z"/>
	<path class="st0" d="M410.3,46.9c-0.2,0-0.3-0.1-0.4-0.2c-0.1-0.1-0.2-0.3-0.2-0.4V39h-4.5v7.4c0,0.1,0,0.3-0.1,0.4
		c-0.1,0.1-0.2,0.2-0.4,0.2h-0.8c-0.2,0-0.3-0.1-0.4-0.2c-0.1-0.1-0.2-0.3-0.2-0.4V30.2c0-0.1,0.1-0.3,0.2-0.4
		c0.1-0.1,0.2-0.2,0.4-0.2h0.8c0.2,0,0.3,0.1,0.4,0.2c0.1,0.1,0.1,0.2,0.1,0.4V37h4.5v-6.8c0-0.1,0.1-0.3,0.2-0.4
		c0.1-0.1,0.2-0.2,0.4-0.2h0.8c0.2,0,0.3,0.1,0.4,0.2c0.1,0.1,0.1,0.2,0.1,0.4v16.1c0,0.1,0,0.3-0.1,0.4c-0.1,0.1-0.2,0.2-0.4,0.2
		H410.3z"/>
	<path class="st0" d="M420.1,29.6c0.3,0,0.5,0.2,0.6,0.6l3.2,16.2c0,0.2,0,0.3-0.1,0.4c-0.1,0.1-0.2,0.2-0.4,0.2h-1
		c-0.3,0-0.5-0.2-0.6-0.6l-0.6-2.9h-3.4l-0.6,2.9c-0.1,0.4-0.3,0.6-0.6,0.6h-1c-0.2,0-0.3-0.1-0.4-0.2c-0.1-0.1-0.1-0.2-0.1-0.4
		l3.2-16.2c0-0.2,0.1-0.3,0.2-0.4c0.1-0.1,0.2-0.2,0.4-0.2H420.1z M420.9,41.5l-1-6.1l-0.3-3.3h-0.1l-0.3,3.3l-1,6.1H420.9z"/>
	<path class="st0" d="M434.2,38.4c0,0.2-0.1,0.3-0.2,0.4s-0.3,0.2-0.4,0.2h-4.2v7.4c0,0.1,0,0.3-0.1,0.4c-0.1,0.1-0.2,0.2-0.4,0.2
		h-0.8c-0.2,0-0.3-0.1-0.4-0.2c-0.1-0.1-0.2-0.3-0.2-0.4V30.2c0-0.1,0.1-0.3,0.2-0.4c0.1-0.1,0.2-0.2,0.4-0.2h6.3
		c0.1,0,0.3,0,0.4,0.1c0.1,0.1,0.2,0.2,0.2,0.4V31c0,0.2-0.1,0.3-0.2,0.4c-0.1,0.1-0.3,0.2-0.4,0.2h-4.9V37h4.2c0.1,0,0.3,0,0.4,0.1
		c0.1,0.1,0.2,0.2,0.2,0.4V38.4z"/>
	<path class="st0" d="M445.5,31c0,0.2-0.1,0.3-0.2,0.4c-0.1,0.1-0.3,0.2-0.4,0.2h-2.8v14.7c0,0.1,0,0.3-0.1,0.4
		c-0.1,0.1-0.2,0.2-0.4,0.2h-0.8c-0.2,0-0.3-0.1-0.4-0.2c-0.1-0.1-0.2-0.3-0.2-0.4V31.6h-2.8c-0.1,0-0.3-0.1-0.4-0.2
		c-0.1-0.1-0.2-0.2-0.2-0.4v-0.8c0-0.2,0.1-0.3,0.2-0.4c0.1-0.1,0.2-0.1,0.4-0.1h7.5c0.1,0,0.3,0,0.4,0.1c0.1,0.1,0.2,0.2,0.2,0.4
		V31z"/>
	<path class="st0" d="M456.2,46.3c0,0.2-0.1,0.3-0.2,0.4c-0.1,0.1-0.3,0.2-0.4,0.2h-6.4c-0.2,0-0.3-0.1-0.4-0.2
		c-0.1-0.1-0.2-0.3-0.2-0.4V30.2c0-0.1,0.1-0.3,0.2-0.4c0.1-0.1,0.2-0.2,0.4-0.2h6.3c0.1,0,0.3,0,0.4,0.1c0.1,0.1,0.2,0.2,0.2,0.4
		V31c0,0.2-0.1,0.3-0.2,0.4c-0.1,0.1-0.3,0.2-0.4,0.2h-4.9V37h4.2c0.1,0,0.3,0,0.4,0.1c0.1,0.1,0.2,0.2,0.2,0.4v0.8
		c0,0.2-0.1,0.3-0.2,0.4c-0.1,0.1-0.3,0.2-0.4,0.2h-4.2v6h5c0.1,0,0.3,0,0.4,0.1c0.1,0.1,0.2,0.2,0.2,0.4V46.3z"/>
	<path class="st0" d="M461.2,32.7l0.4,5.2v8.5c0,0.1,0,0.3-0.1,0.4c-0.1,0.1-0.2,0.2-0.4,0.2h-0.8c-0.2,0-0.3-0.1-0.4-0.2
		c-0.1-0.1-0.2-0.3-0.2-0.4V30.2c0-0.1,0.1-0.3,0.2-0.4c0.1-0.1,0.2-0.2,0.4-0.2h1.5c0.2,0,0.3,0.1,0.4,0.2c0.1,0.1,0.1,0.2,0.2,0.4
		l4.6,13.7l-0.4-4.9v-8.7c0-0.1,0-0.3,0.1-0.4c0.1-0.1,0.2-0.2,0.4-0.2h0.8c0.2,0,0.3,0.1,0.4,0.2c0.1,0.1,0.2,0.3,0.2,0.4v16.1
		c0,0.1-0.1,0.3-0.2,0.4c-0.1,0.1-0.2,0.2-0.4,0.2h-1.5c-0.2,0-0.3-0.1-0.4-0.2c-0.1-0.1-0.1-0.2-0.2-0.4L461.2,32.7z"/>
	<path class="st0" d="M127.1,71.7c0,0.4,0,0.7,0.1,1.1c0.1,0.3,0.2,0.7,0.3,0.9c0.2,0.3,0.4,0.5,0.7,0.7c0.3,0.2,0.7,0.2,1.2,0.2
		c0.5,0,0.9-0.1,1.2-0.2c0.3-0.2,0.5-0.4,0.7-0.7c0.2-0.3,0.3-0.6,0.3-0.9c0.1-0.4,0.1-0.7,0.1-1.1V59.6c0-0.2,0-0.3,0.1-0.4
		c0.1-0.1,0.2-0.2,0.4-0.2h0.8c0.2,0,0.3,0.1,0.4,0.2c0.1,0.1,0.2,0.2,0.2,0.4v12.9c0,0.4,0,0.8-0.1,1.2c-0.1,0.5-0.3,0.9-0.6,1.3
		c-0.3,0.4-0.7,0.8-1.3,1.1c-0.6,0.3-1.3,0.4-2.3,0.4c-0.9,0-1.6-0.1-2.2-0.4c-0.5-0.3-1-0.6-1.2-1.1c-0.3-0.4-0.5-0.8-0.6-1.3
		c-0.1-0.4-0.1-0.8-0.1-1.1V59.6c0-0.2,0-0.3,0.1-0.4c0.1-0.1,0.2-0.2,0.4-0.2h0.8c0.2,0,0.3,0.1,0.4,0.2c0.1,0.1,0.2,0.2,0.2,0.4
		V71.7z"/>
	<path class="st0" d="M139.3,62l0.4,5.2v8.5c0,0.1,0,0.3-0.1,0.4c-0.1,0.1-0.2,0.2-0.4,0.2h-0.8c-0.2,0-0.3-0.1-0.4-0.2
		c-0.1-0.1-0.2-0.3-0.2-0.4V59.6c0-0.1,0.1-0.3,0.2-0.4c0.1-0.1,0.2-0.2,0.4-0.2h1.5c0.2,0,0.3,0.1,0.4,0.2c0.1,0.1,0.1,0.2,0.2,0.4
		l4.6,13.7l-0.4-4.9v-8.7c0-0.1,0.1-0.3,0.1-0.4c0.1-0.1,0.2-0.2,0.4-0.2h0.8c0.2,0,0.3,0.1,0.4,0.2c0.1,0.1,0.2,0.3,0.2,0.4v16.1
		c0,0.1-0.1,0.3-0.2,0.4c-0.1,0.1-0.2,0.2-0.4,0.2h-1.5c-0.2,0-0.3-0.1-0.4-0.2c-0.1-0.1-0.1-0.2-0.2-0.4L139.3,62z"/>
	<path class="st0" d="M152,76.3c-0.2,0-0.3-0.1-0.4-0.2c-0.1-0.1-0.2-0.3-0.2-0.4V59.6c0-0.1,0.1-0.3,0.2-0.4
		c0.1-0.1,0.2-0.2,0.4-0.2h0.8c0.2,0,0.3,0.1,0.4,0.2c0.1,0.1,0.1,0.2,0.1,0.4v16.1c0,0.1,0,0.3-0.1,0.4c-0.1,0.1-0.2,0.2-0.4,0.2
		H152z"/>
	<path class="st0" d="M160.4,76.3c-0.3,0-0.5-0.2-0.6-0.6l-3.3-16.2c0-0.2,0-0.3,0.1-0.4c0.1-0.1,0.2-0.2,0.4-0.2h1
		c0.3,0,0.5,0.2,0.6,0.6l1.1,5.3l1.3,7.7l1.3-7.7l1.1-5.3c0.1-0.4,0.3-0.6,0.6-0.6h1c0.2,0,0.3,0.1,0.4,0.2c0.1,0.1,0.1,0.2,0.1,0.4
		l-3.3,16.2c-0.1,0.4-0.3,0.6-0.6,0.6H160.4z"/>
	<path class="st0" d="M176.3,75.7c0,0.2-0.1,0.3-0.2,0.4c-0.1,0.1-0.3,0.2-0.4,0.2h-6.4c-0.2,0-0.3-0.1-0.4-0.2
		c-0.1-0.1-0.2-0.3-0.2-0.4V59.6c0-0.1,0.1-0.3,0.2-0.4c0.1-0.1,0.2-0.2,0.4-0.2h6.3c0.1,0,0.3,0,0.4,0.1c0.1,0.1,0.2,0.2,0.2,0.4
		v0.8c0,0.2-0.1,0.3-0.2,0.4c-0.1,0.1-0.3,0.2-0.4,0.2h-4.9v5.4h4.2c0.1,0,0.3,0,0.4,0.1c0.1,0.1,0.2,0.2,0.2,0.4v0.8
		c0,0.2-0.1,0.3-0.2,0.4c-0.1,0.1-0.3,0.2-0.4,0.2h-4.2v6h5c0.1,0,0.3,0,0.4,0.1c0.1,0.1,0.2,0.2,0.2,0.4V75.7z"/>
	<path class="st0" d="M188.4,75.7c0,0.1,0,0.2-0.1,0.4c-0.1,0.1-0.2,0.2-0.4,0.2h-1c-0.2,0-0.3,0-0.4-0.1c-0.1-0.1-0.2-0.2-0.2-0.5
		l-2.3-7.6l-2.2,0v7.5c0,0.1-0.1,0.3-0.1,0.4c-0.1,0.1-0.2,0.2-0.4,0.2h-0.8c-0.2,0-0.3-0.1-0.4-0.2c-0.1-0.1-0.2-0.2-0.2-0.4V59.6
		c0-0.2,0.1-0.3,0.2-0.4c0.1-0.1,0.2-0.2,0.4-0.2h3c1,0,1.8,0.1,2.4,0.2c0.7,0.2,1.2,0.5,1.6,1.1c0.3,0.4,0.5,0.9,0.6,1.4
		c0.1,0.5,0.2,1.2,0.2,1.9c0,1.2-0.2,2.1-0.5,2.7c-0.3,0.6-0.9,1.1-1.7,1.4L188.4,75.7z M181.8,66.2h1.6c0.5,0,0.9,0,1.2-0.1
		c0.3,0,0.6-0.2,0.8-0.3c0.2-0.1,0.3-0.2,0.4-0.4c0.1-0.1,0.2-0.3,0.2-0.4c0.1-0.2,0.1-0.3,0.1-0.6c0-0.2,0-0.5,0-0.8
		c0-0.7-0.1-1.2-0.2-1.6c-0.1-0.4-0.4-0.6-0.6-0.8c-0.1-0.1-0.3-0.1-0.4-0.2c-0.1,0-0.3-0.1-0.6-0.1c-0.2,0-0.6,0-1,0s-0.9,0-1.6,0
		V66.2z"/>
	<path class="st0" d="M199.7,71.5c0,1.7-0.4,2.9-1.2,3.8c-0.8,0.8-1.8,1.2-3.2,1.2c-0.9,0-1.6-0.1-2.1-0.4c-0.6-0.3-1-0.7-1.3-1.2
		c-0.3-0.5-0.6-1.1-0.7-1.7c-0.1-0.6-0.2-1.3-0.2-2V71c0-0.2,0.1-0.3,0.1-0.4c0.1-0.1,0.2-0.2,0.4-0.2h0.9c0.2,0,0.3,0.1,0.4,0.2
		c0.1,0.1,0.1,0.2,0.1,0.4v0.3c0,0.7,0.1,1.2,0.2,1.6c0.1,0.4,0.3,0.8,0.5,1c0.2,0.3,0.5,0.4,0.8,0.5c0.3,0.1,0.6,0.1,0.9,0.1
		c0.7,0,1.3-0.2,1.8-0.6c0.4-0.4,0.7-1.2,0.7-2.3c0-0.6-0.2-1.1-0.5-1.6c-0.3-0.4-0.7-0.8-1.2-1.2c-0.5-0.4-1-0.7-1.6-1.1
		c-0.6-0.4-1.1-0.8-1.6-1.2c-0.5-0.5-0.9-1-1.2-1.6c-0.3-0.6-0.5-1.3-0.5-2.1c0-0.5,0.1-1,0.3-1.5c0.2-0.5,0.4-0.9,0.8-1.3
		c0.3-0.4,0.8-0.7,1.3-0.9c0.5-0.2,1.1-0.3,1.8-0.3c0.7,0,1.3,0.1,1.8,0.3c0.5,0.2,0.9,0.5,1.2,0.9c0.3,0.4,0.6,0.8,0.8,1.3
		c0.2,0.5,0.3,1,0.3,1.4v0.2c0,0.2-0.1,0.3-0.2,0.4c-0.1,0.1-0.2,0.2-0.4,0.2h-0.8c-0.2,0-0.3-0.1-0.4-0.2s-0.2-0.2-0.2-0.4v0
		c0-0.6-0.2-1.1-0.6-1.5c-0.4-0.4-0.9-0.6-1.5-0.6c-0.4,0-0.7,0.1-1,0.2c-0.3,0.1-0.5,0.3-0.6,0.5c-0.2,0.2-0.3,0.4-0.4,0.7
		c-0.1,0.3-0.1,0.5-0.1,0.8c0,0.6,0.2,1.1,0.5,1.5c0.3,0.4,0.7,0.8,1.2,1.2c0.5,0.4,1,0.8,1.6,1.2s1.1,0.8,1.6,1.2
		c0.5,0.4,0.9,1,1.2,1.5C199.6,70.1,199.7,70.7,199.7,71.5z"/>
	<path class="st0" d="M204.1,76.3c-0.2,0-0.3-0.1-0.4-0.2c-0.1-0.1-0.2-0.3-0.2-0.4V59.6c0-0.1,0.1-0.3,0.2-0.4
		c0.1-0.1,0.2-0.2,0.4-0.2h0.8c0.2,0,0.3,0.1,0.4,0.2c0.1,0.1,0.1,0.2,0.1,0.4v16.1c0,0.1,0,0.3-0.1,0.4c-0.1,0.1-0.2,0.2-0.4,0.2
		H204.1z"/>
	<path class="st0" d="M217.6,60.4c0,0.2-0.1,0.3-0.2,0.4c-0.1,0.1-0.3,0.2-0.4,0.2h-2.8v14.7c0,0.1,0,0.3-0.1,0.4
		c-0.1,0.1-0.2,0.2-0.4,0.2h-0.8c-0.2,0-0.3-0.1-0.4-0.2c-0.1-0.1-0.2-0.3-0.2-0.4V61h-2.8c-0.1,0-0.3-0.1-0.4-0.2
		c-0.1-0.1-0.2-0.2-0.2-0.4v-0.8c0-0.2,0.1-0.3,0.2-0.4c0.1-0.1,0.2-0.1,0.4-0.1h7.5c0.1,0,0.3,0,0.4,0.1c0.1,0.1,0.2,0.2,0.2,0.4
		V60.4z"/>
	<path class="st0" d="M223.8,59c0.3,0,0.5,0.2,0.6,0.6l3.2,16.2c0,0.2,0,0.3-0.1,0.4c-0.1,0.1-0.2,0.2-0.4,0.2h-1
		c-0.3,0-0.5-0.2-0.6-0.6l-0.6-2.9h-3.4l-0.6,2.9c-0.1,0.4-0.3,0.6-0.6,0.6h-1c-0.2,0-0.3-0.1-0.4-0.2c-0.1-0.1-0.1-0.2-0.1-0.4
		l3.2-16.2c0-0.2,0.1-0.3,0.2-0.4c0.1-0.1,0.2-0.2,0.4-0.2H223.8z M219.7,56.9c0-0.4,0.1-0.7,0.4-0.9c0.3-0.3,0.6-0.4,0.9-0.4
		c0.4,0,0.7,0.1,0.9,0.4c0.3,0.3,0.4,0.6,0.4,0.9c0,0.3-0.1,0.6-0.4,0.9c-0.3,0.3-0.6,0.4-0.9,0.4c-0.3,0-0.6-0.1-0.9-0.4
		C219.9,57.5,219.7,57.2,219.7,56.9z M224.6,70.9l-1-6.1l-0.3-3.3h-0.1l-0.3,3.3l-1,6.1H224.6z M224.2,56.9c0-0.4,0.1-0.7,0.4-0.9
		c0.3-0.3,0.6-0.4,0.9-0.4c0.4,0,0.7,0.1,0.9,0.4c0.3,0.3,0.4,0.6,0.4,0.9c0,0.3-0.1,0.6-0.4,0.9c-0.3,0.3-0.6,0.4-0.9,0.4
		c-0.3,0-0.6-0.1-0.9-0.4C224.4,57.5,224.2,57.2,224.2,56.9z"/>
	<path class="st0" d="M237.6,60.4c0,0.2-0.1,0.3-0.2,0.4c-0.1,0.1-0.3,0.2-0.4,0.2h-2.8v14.7c0,0.1-0.1,0.3-0.1,0.4
		c-0.1,0.1-0.2,0.2-0.4,0.2h-0.8c-0.2,0-0.3-0.1-0.4-0.2c-0.1-0.1-0.2-0.3-0.2-0.4V61h-2.8c-0.1,0-0.3-0.1-0.4-0.2
		c-0.1-0.1-0.2-0.2-0.2-0.4v-0.8c0-0.2,0.1-0.3,0.2-0.4c0.1-0.1,0.2-0.1,0.4-0.1h7.5c0.1,0,0.3,0,0.4,0.1c0.1,0.1,0.2,0.2,0.2,0.4
		V60.4z"/>
	<path class="st0" d="M248.4,71.5c0,1.7-0.4,2.9-1.2,3.8c-0.8,0.8-1.8,1.2-3.2,1.2c-0.9,0-1.6-0.1-2.1-0.4c-0.6-0.3-1-0.7-1.3-1.2
		c-0.3-0.5-0.6-1.1-0.7-1.7c-0.1-0.6-0.2-1.3-0.2-2V71c0-0.2,0-0.3,0.1-0.4c0.1-0.1,0.2-0.2,0.4-0.2h0.9c0.2,0,0.3,0.1,0.4,0.2
		c0.1,0.1,0.1,0.2,0.1,0.4v0.3c0,0.7,0.1,1.2,0.2,1.6c0.1,0.4,0.3,0.8,0.5,1c0.2,0.3,0.5,0.4,0.8,0.5c0.3,0.1,0.6,0.1,0.9,0.1
		c0.7,0,1.3-0.2,1.8-0.6c0.4-0.4,0.7-1.2,0.7-2.3c0-0.6-0.2-1.1-0.5-1.6c-0.3-0.4-0.7-0.8-1.2-1.2c-0.5-0.4-1-0.7-1.6-1.1
		c-0.6-0.4-1.1-0.8-1.6-1.2c-0.5-0.5-0.9-1-1.2-1.6c-0.3-0.6-0.5-1.3-0.5-2.1c0-0.5,0.1-1,0.3-1.5c0.2-0.5,0.4-0.9,0.8-1.3
		c0.3-0.4,0.8-0.7,1.3-0.9c0.5-0.2,1.1-0.3,1.8-0.3c0.7,0,1.3,0.1,1.8,0.3c0.5,0.2,0.9,0.5,1.2,0.9c0.3,0.4,0.6,0.8,0.8,1.3
		c0.2,0.5,0.3,1,0.3,1.4v0.2c0,0.2-0.1,0.3-0.2,0.4c-0.1,0.1-0.2,0.2-0.4,0.2h-0.8c-0.2,0-0.3-0.1-0.4-0.2c-0.1-0.1-0.2-0.2-0.2-0.4
		v0c0-0.6-0.2-1.1-0.6-1.5c-0.4-0.4-0.9-0.6-1.5-0.6c-0.4,0-0.7,0.1-1,0.2c-0.3,0.1-0.5,0.3-0.6,0.5c-0.2,0.2-0.3,0.4-0.4,0.7
		c-0.1,0.3-0.1,0.5-0.1,0.8c0,0.6,0.2,1.1,0.5,1.5c0.3,0.4,0.7,0.8,1.2,1.2c0.5,0.4,1,0.8,1.6,1.2c0.6,0.4,1.1,0.8,1.6,1.2
		c0.5,0.4,0.9,1,1.2,1.5C248.3,70.1,248.4,70.7,248.4,71.5z"/>
	<path class="st0" d="M255.2,59c0.7,0,1.3,0,1.8,0.1c0.5,0.1,0.9,0.2,1.3,0.4c0.6,0.3,1,0.8,1.3,1.5c0.3,0.7,0.4,1.4,0.4,2.2
		c0,1.3-0.1,2.2-0.4,2.7c-0.2,0.3-0.4,0.6-0.5,0.8c-0.2,0.2-0.4,0.3-0.7,0.5c0.7,0.2,1.2,0.7,1.5,1.3c0.3,0.6,0.5,1.5,0.5,2.6
		c0,0.6,0,1.3-0.1,1.9c-0.1,0.6-0.3,1.2-0.6,1.7c-0.3,0.5-0.7,0.9-1.3,1.2c-0.6,0.3-1.4,0.5-2.4,0.5h-3.5c-0.2,0-0.3-0.1-0.4-0.2
		c-0.1-0.1-0.2-0.3-0.2-0.4V59.6c0-0.2,0.1-0.3,0.2-0.4c0.1-0.1,0.2-0.1,0.4-0.1H255.2z M253.9,66.2h1.5c0.4,0,0.7,0,1.1-0.1
		c0.3,0,0.6-0.2,0.9-0.3c0.2-0.2,0.4-0.5,0.6-0.9c0.1-0.4,0.2-1,0.2-1.7c0-0.5-0.1-1-0.2-1.3c-0.1-0.3-0.3-0.5-0.6-0.7
		c-0.3-0.2-0.6-0.2-0.9-0.3c-0.4,0-0.8,0-1.2,0h-1.3V66.2z M253.9,68.2v6.1h2c0.4,0,0.8,0,1.1-0.1c0.3-0.1,0.6-0.3,0.8-0.5
		c0.2-0.2,0.4-0.6,0.5-1c0.1-0.4,0.2-1,0.2-1.7c0-0.6-0.1-1-0.2-1.4c-0.1-0.4-0.3-0.6-0.6-0.8c-0.3-0.2-0.6-0.3-1-0.4
		c-0.4-0.1-0.8-0.1-1.3-0.1H253.9z"/>
	<path class="st0" d="M265.2,76.3c-0.2,0-0.3-0.1-0.4-0.2c-0.1-0.1-0.2-0.3-0.2-0.4V59.6c0-0.1,0.1-0.3,0.2-0.4
		c0.1-0.1,0.2-0.2,0.4-0.2h0.8c0.2,0,0.3,0.1,0.4,0.2c0.1,0.1,0.1,0.2,0.1,0.4v16.1c0,0.1,0,0.3-0.1,0.4c-0.1,0.1-0.2,0.2-0.4,0.2
		H265.2z"/>
	<path class="st0" d="M274.8,59c0.7,0,1.3,0,1.8,0.1c0.5,0.1,0.9,0.2,1.3,0.4c0.6,0.3,1,0.8,1.3,1.5c0.3,0.7,0.4,1.4,0.4,2.2
		c0,1.3-0.1,2.2-0.4,2.7c-0.2,0.3-0.4,0.6-0.5,0.8c-0.2,0.2-0.4,0.3-0.7,0.5c0.7,0.2,1.2,0.7,1.5,1.3c0.3,0.6,0.5,1.5,0.5,2.6
		c0,0.6,0,1.3-0.1,1.9c-0.1,0.6-0.3,1.2-0.6,1.7c-0.3,0.5-0.7,0.9-1.3,1.2c-0.6,0.3-1.4,0.5-2.4,0.5H272c-0.2,0-0.3-0.1-0.4-0.2
		c-0.1-0.1-0.2-0.3-0.2-0.4V59.6c0-0.2,0.1-0.3,0.2-0.4c0.1-0.1,0.2-0.1,0.4-0.1H274.8z M273.4,66.2h1.5c0.4,0,0.7,0,1.1-0.1
		c0.3,0,0.6-0.2,0.9-0.3c0.2-0.2,0.4-0.5,0.6-0.9c0.1-0.4,0.2-1,0.2-1.7c0-0.5-0.1-1-0.2-1.3c-0.1-0.3-0.3-0.5-0.6-0.7
		c-0.3-0.2-0.6-0.2-0.9-0.3c-0.4,0-0.8,0-1.2,0h-1.3V66.2z M273.4,68.2v6.1h2c0.4,0,0.8,0,1.1-0.1c0.3-0.1,0.6-0.3,0.8-0.5
		c0.2-0.2,0.4-0.6,0.5-1c0.1-0.4,0.2-1,0.2-1.7c0-0.6-0.1-1-0.2-1.4c-0.1-0.4-0.3-0.6-0.6-0.8c-0.3-0.2-0.6-0.3-1-0.4
		c-0.4-0.1-0.8-0.1-1.3-0.1H273.4z"/>
	<path class="st0" d="M291.1,75.7c0,0.2-0.1,0.3-0.2,0.4c-0.1,0.1-0.3,0.2-0.4,0.2h-6.1c-0.2,0-0.3-0.1-0.4-0.2
		c-0.1-0.1-0.2-0.3-0.2-0.4V59.6c0-0.1,0.1-0.3,0.2-0.4c0.1-0.1,0.2-0.2,0.4-0.2h0.8c0.2,0,0.3,0.1,0.4,0.2c0.1,0.1,0.1,0.2,0.1,0.4
		v14.8h4.7c0.1,0,0.3,0,0.4,0.1c0.1,0.1,0.2,0.2,0.2,0.4V75.7z"/>
	<path class="st0" d="M295,76.3c-0.2,0-0.3-0.1-0.4-0.2c-0.1-0.1-0.2-0.3-0.2-0.4V59.6c0-0.1,0.1-0.3,0.2-0.4
		c0.1-0.1,0.2-0.2,0.4-0.2h0.8c0.2,0,0.3,0.1,0.4,0.2c0.1,0.1,0.1,0.2,0.1,0.4v16.1c0,0.1-0.1,0.3-0.1,0.4c-0.1,0.1-0.2,0.2-0.4,0.2
		H295z"/>
	<path class="st0" d="M304.9,76.5c-0.9,0-1.6-0.2-2.2-0.5c-0.5-0.3-1-0.7-1.3-1.1c-0.3-0.4-0.5-0.9-0.6-1.4
		c-0.1-0.5-0.2-0.9-0.2-1.3c-0.1-1.6-0.1-3.2-0.1-4.6c0-1.5,0-3,0.1-4.6c0-0.4,0.1-0.8,0.2-1.3c0.1-0.5,0.3-1,0.6-1.4
		c0.3-0.4,0.7-0.8,1.3-1.1c0.5-0.3,1.3-0.5,2.2-0.5c0.9,0,1.6,0.2,2.2,0.5c0.6,0.3,1,0.7,1.3,1.1c0.3,0.4,0.5,0.9,0.6,1.4
		c0.1,0.5,0.2,0.9,0.2,1.3c0.1,1.6,0.1,3.1,0.1,4.6c0,1.5,0,3-0.1,4.6c0,0.4-0.1,0.8-0.2,1.3c-0.1,0.5-0.3,1-0.6,1.4
		c-0.3,0.5-0.7,0.8-1.3,1.1C306.6,76.4,305.8,76.5,304.9,76.5z M304.9,60.7c-0.5,0-0.8,0.1-1.1,0.3c-0.3,0.2-0.5,0.4-0.7,0.7
		c-0.2,0.3-0.3,0.6-0.3,1c-0.1,0.4-0.1,0.7-0.1,1.1c-0.1,1.3-0.1,2.6-0.1,3.8c0,1.2,0,2.5,0.1,3.9c0,0.4,0.1,0.8,0.1,1.1
		c0.1,0.4,0.2,0.7,0.3,1c0.2,0.3,0.4,0.5,0.7,0.7c0.3,0.2,0.7,0.3,1.1,0.3c0.5,0,0.8-0.1,1.1-0.3c0.3-0.2,0.5-0.4,0.7-0.7
		c0.2-0.3,0.3-0.6,0.3-1c0.1-0.4,0.1-0.7,0.1-1.1c0-1.4,0.1-2.6,0.1-3.9c0-1.2,0-2.5-0.1-3.8c0-0.4-0.1-0.7-0.1-1.1
		c-0.1-0.4-0.2-0.7-0.3-1c-0.2-0.3-0.4-0.5-0.7-0.7C305.8,60.8,305.4,60.7,304.9,60.7z"/>
	<path class="st0" d="M319.9,60.4c0,0.2-0.1,0.3-0.2,0.4c-0.1,0.1-0.3,0.2-0.4,0.2h-2.8v14.7c0,0.1,0,0.3-0.1,0.4s-0.2,0.2-0.4,0.2
		h-0.8c-0.2,0-0.3-0.1-0.4-0.2c-0.1-0.1-0.2-0.3-0.2-0.4V61h-2.8c-0.1,0-0.3-0.1-0.4-0.2c-0.1-0.1-0.2-0.2-0.2-0.4v-0.8
		c0-0.2,0.1-0.3,0.2-0.4c0.1-0.1,0.2-0.1,0.4-0.1h7.5c0.1,0,0.3,0,0.4,0.1c0.1,0.1,0.2,0.2,0.2,0.4V60.4z"/>
	<path class="st0" d="M330,76.3c-0.2,0-0.3-0.1-0.4-0.2c-0.1-0.1-0.2-0.3-0.2-0.4v-7.4h-4.5v7.4c0,0.1,0,0.3-0.1,0.4
		c-0.1,0.1-0.2,0.2-0.4,0.2h-0.8c-0.2,0-0.3-0.1-0.4-0.2c-0.1-0.1-0.2-0.3-0.2-0.4V59.6c0-0.1,0.1-0.3,0.2-0.4
		c0.1-0.1,0.2-0.2,0.4-0.2h0.8c0.2,0,0.3,0.1,0.4,0.2c0.1,0.1,0.1,0.2,0.1,0.4v6.8h4.5v-6.8c0-0.1,0.1-0.3,0.2-0.4
		c0.1-0.1,0.2-0.2,0.4-0.2h0.8c0.2,0,0.3,0.1,0.4,0.2c0.1,0.1,0.1,0.2,0.1,0.4v16.1c0,0.1,0,0.3-0.1,0.4c-0.1,0.1-0.2,0.2-0.4,0.2
		H330z"/>
	<path class="st0" d="M343.5,75.7c0,0.2-0.1,0.3-0.2,0.4c-0.1,0.1-0.3,0.2-0.4,0.2h-6.4c-0.2,0-0.3-0.1-0.4-0.2
		c-0.1-0.1-0.2-0.3-0.2-0.4V59.6c0-0.1,0.1-0.3,0.2-0.4c0.1-0.1,0.2-0.2,0.4-0.2h6.3c0.1,0,0.3,0,0.4,0.1c0.1,0.1,0.2,0.2,0.2,0.4
		v0.8c0,0.2-0.1,0.3-0.2,0.4c-0.1,0.1-0.3,0.2-0.4,0.2h-4.9v5.4h4.2c0.1,0,0.3,0,0.4,0.1c0.1,0.1,0.2,0.2,0.2,0.4v0.8
		c0,0.2-0.1,0.3-0.2,0.4c-0.1,0.1-0.3,0.2-0.4,0.2h-4.2v6h5c0.1,0,0.3,0,0.4,0.1c0.1,0.1,0.2,0.2,0.2,0.4V75.7z"/>
	<path class="st0" d="M355.6,75.7c0.1,0.1,0.1,0.3,0,0.4c-0.1,0.1-0.2,0.2-0.3,0.2h-1.1c-0.2,0-0.3-0.1-0.4-0.2
		c-0.1-0.1-0.2-0.2-0.2-0.4l-3.4-8l-1.2,2.1v5.9c0,0.2-0.1,0.3-0.2,0.4c-0.1,0.1-0.2,0.2-0.4,0.2h-0.8c-0.1,0-0.3-0.1-0.4-0.2
		c-0.1-0.1-0.2-0.2-0.2-0.4V59.6c0-0.1,0.1-0.3,0.2-0.4c0.1-0.1,0.2-0.2,0.4-0.2h0.8c0.1,0,0.3,0.1,0.4,0.2c0.1,0.1,0.2,0.2,0.2,0.4
		v7l4.2-7.2c0.1-0.1,0.2-0.2,0.2-0.3c0.1-0.1,0.2-0.1,0.4-0.1h1.3c0.1,0,0.2,0,0.2,0.1c0.1,0,0.1,0.1,0.1,0.2c0,0.1,0,0.2-0.1,0.3
		l-3.8,6.4L355.6,75.7z"/>
</g>
</svg>
