<svg xmlns="http://www.w3.org/2000/svg" xmlns:xlink="http://www.w3.org/1999/xlink" xmlns:serif="http://www.serif.com/" width="100%" height="100%" viewBox="0 0 1024 1024" xml:space="preserve" style="fill-rule:evenodd;clip-rule:evenodd;stroke-linejoin:round;stroke-miterlimit:2;">    <g id="ArtBoard1" transform="matrix(0.374817,0,0,0.5,0,0)">        <rect x="0" y="0" width="2732" height="2048" style="fill:none;"></rect>        <g transform="matrix(1.759,0,0,1.3186,-3836.66,144.793)">            <circle cx="2867.47" cy="631.168" r="511.146" style="fill:white;"></circle>        </g>        <g transform="matrix(1.0766,0.247932,-0.330738,0.807059,653.947,-26.5168)">            <path d="M351.669,394.221C351.751,393.581 351.66,392.912 351.37,392.285C350.547,390.505 348.433,389.727 346.653,390.55C346.335,390.697 344.383,391.841 344.576,394.673C344.825,398.337 347.736,415.956 347.914,417.22C357.328,484.058 361.312,551.505 369.435,618.524C392.496,808.777 429.863,997.289 450.34,1187.88C454.812,1229.51 473.399,1277.21 469.895,1319.26C469.732,1321.21 471.187,1322.93 473.141,1323.09C475.096,1323.26 476.814,1321.8 476.977,1319.85C480.516,1277.38 461.923,1229.17 457.406,1187.12C436.926,996.498 399.555,807.954 376.49,617.669C368.361,550.605 364.371,483.112 354.951,416.229C354.778,414.996 351.926,397.87 351.669,394.221ZM349.923,396.851L349.81,396.914L349.837,396.901L349.923,396.851ZM350.872,396.053C350.622,396.353 350.32,396.615 349.97,396.824C350.281,396.642 350.592,396.396 350.872,396.053ZM350.938,395.97L350.908,396.008L350.925,395.987L350.938,395.97Z" style="fill:rgb(10,31,64);"></path>        </g>        <g transform="matrix(1.0766,0.247932,-0.330738,0.807059,653.947,-26.5168)">            <path d="M479.026,1320.21C477.445,1320.32 476.079,1321.49 475.785,1323.12C475.545,1324.46 475.905,1325.65 477.126,1326.58C477.297,1326.71 478.332,1327.56 480.18,1327.23C481.798,1326.94 490.078,1324.82 491.557,1324.53C504.907,1321.91 518.433,1320.36 531.79,1317.78C565.862,1311.19 599.606,1303.81 634.033,1299.15C740.335,1284.76 846.608,1268.6 953.014,1255.3C954.96,1255.05 956.342,1253.28 956.099,1251.33C955.856,1249.38 954.078,1248 952.132,1248.25C845.703,1261.55 739.406,1277.72 633.08,1292.11C598.52,1296.79 564.646,1304.19 530.442,1310.8C517.078,1313.38 503.546,1314.93 490.189,1317.55C488.811,1317.82 480.043,1319.96 479.026,1320.21ZM481.645,1321.1C482.493,1321.86 482.96,1323 482.808,1324.2C482.973,1323.02 482.647,1321.96 481.645,1321.1Z" style="fill:rgb(10,31,64);"></path>        </g>        <g transform="matrix(1.0766,0.247932,-0.330738,0.807059,653.947,-26.5168)">            <path d="M354.815,387.738C354.615,387.436 354.365,387.161 354.067,386.924C352.532,385.704 350.294,385.96 349.074,387.495C347.757,389.152 347.733,390.566 347.918,391.479C348.159,392.673 348.84,393.699 350.174,394.356C351.089,394.807 353.024,395.052 355.476,394.77C358.835,394.382 363.791,393.193 366.382,393.418C376.899,394.333 387.344,395.767 397.894,396.402C430.07,398.341 462.294,396.843 494.462,399.006C592.931,405.625 688.708,400.934 787.067,395.5C880.086,390.36 974.671,392.136 1067.16,380.379C1123.68,373.193 1178.17,354.079 1233.79,342.159C1368.56,313.282 1506.59,283.898 1638.67,244.273C1640.55,243.709 1641.62,241.727 1641.06,239.848C1640.49,237.97 1638.51,236.902 1636.63,237.466C1504.73,277.037 1366.88,306.372 1232.3,335.21C1176.87,347.088 1122.59,366.169 1066.26,373.329C973.942,385.065 879.526,383.274 786.675,388.404C688.608,393.822 593.116,398.515 494.939,391.915C462.754,389.751 430.513,391.248 398.321,389.309C387.834,388.677 377.452,387.247 366.998,386.338C364.095,386.086 358.422,387.382 354.815,387.738Z" style="fill:rgb(10,31,64);"></path>        </g>        <g transform="matrix(1.0766,0.247932,-0.330738,0.807059,653.947,-26.5168)">            <path d="M1644.12,240.519C1644.4,239.875 1644.49,239.144 1644.34,238.406C1643.91,236.308 1643,235.518 1642.79,235.355C1641.85,234.602 1640.89,234.487 1640.05,234.609C1639.42,234.7 1637.31,235.176 1636.97,237.856C1636.78,239.369 1637.57,250.039 1637.45,254.166C1637.23,261.942 1637.29,269.718 1637.29,277.497C1637.29,302.997 1638.4,328.436 1637.66,353.946C1635.4,432.71 1631.68,511.41 1636.61,590.143C1649.15,790.919 1664.85,992.89 1667.11,1194.13C1667.5,1228.33 1659.78,1262.08 1659.78,1296.32C1659.78,1298.28 1661.37,1299.87 1663.33,1299.87C1665.29,1299.87 1666.88,1298.28 1666.88,1296.32C1666.88,1262.05 1674.6,1228.28 1674.22,1194.05C1671.96,992.689 1656.26,790.597 1643.7,589.7C1638.79,511.183 1642.51,432.698 1644.77,354.15C1645.5,328.572 1644.4,303.066 1644.4,277.497C1644.4,269.785 1644.34,262.075 1644.56,254.366C1644.64,251.368 1644.29,243.936 1644.12,240.519Z" style="fill:rgb(10,31,64);"></path>        </g>        <g transform="matrix(1.0766,0.247932,-0.330738,0.807059,653.947,-26.5168)">            <path d="M1139.37,1253.06C1146.47,1256.31 1157.17,1257.64 1168.73,1258.12C1185.17,1258.81 1203.42,1257.89 1214.7,1259.44C1360.19,1279.43 1511.01,1303.97 1658.12,1303.97C1660.08,1303.97 1661.67,1302.38 1661.67,1300.41C1661.67,1298.45 1660.08,1296.86 1658.12,1296.86C1511.33,1296.86 1360.85,1272.35 1215.67,1252.4C1204.23,1250.83 1185.7,1251.72 1169.03,1251.02C1158.52,1250.58 1148.78,1249.55 1142.32,1246.6C1140.54,1245.78 1138.43,1246.57 1137.62,1248.35C1136.8,1250.13 1137.58,1252.24 1139.37,1253.06Z" style="fill:rgb(10,31,64);"></path>        </g>        <g transform="matrix(1.0766,0.247932,-0.330738,0.807059,653.947,-26.5168)">            <path d="M1643.44,284.016C1647.48,284.268 1654.28,285.04 1657.45,284.637C1668.21,283.27 1679.06,281.645 1689.86,280.663C1691.81,280.486 1693.26,278.756 1693.08,276.803C1692.9,274.85 1691.17,273.408 1689.22,273.586C1678.34,274.575 1667.4,276.21 1656.56,277.587C1653.79,277.939 1648.01,277.236 1644.26,276.961C1641.97,276.794 1640.21,276.857 1639.55,277.041C1637.7,277.55 1637.08,278.808 1636.85,279.693C1636.66,280.383 1636.37,282.956 1639.7,284.493C1640.97,285.081 1642.42,284.849 1643.44,284.016Z" style="fill:rgb(10,31,64);"></path>        </g>        <g transform="matrix(1.0766,0.247932,-0.330738,0.807059,653.947,-26.5168)">            <path d="M1688.54,279.685C1688.65,278.657 1688.31,277.592 1687.53,276.805C1686.14,275.416 1683.89,275.414 1682.5,276.799C1682.48,276.819 1681.61,277.431 1681.47,279.048C1681.44,279.351 1681.31,280.989 1681.09,283.726C1678.95,310.922 1668.38,447.375 1668.34,459.933C1667.86,607.778 1671.11,740.12 1672.11,881.639C1672.45,930.211 1671.48,1131.37 1668.93,1179.82C1668.83,1181.78 1670.34,1183.45 1672.3,1183.55C1674.25,1183.66 1675.93,1182.15 1676.03,1180.19C1678.59,1131.67 1679.56,930.23 1679.22,881.589C1678.22,740.095 1674.97,607.776 1675.44,459.955C1675.48,447.436 1686.04,311.399 1688.18,284.286C1688.39,281.592 1688.55,279.682 1688.55,279.682L1688.54,279.685Z" style="fill:rgb(10,31,64);"></path>        </g>        <g transform="matrix(1.0766,0.247932,-0.330738,0.807059,653.947,-26.5168)">            <path d="M1710.89,1329.86C1636.56,1330.98 1164.2,1279.66 1164.2,1279.66C1162.26,1279.45 1160.5,1280.86 1160.29,1282.81C1160.08,1284.76 1161.49,1286.51 1163.44,1286.73C1163.44,1286.73 1637.12,1338.15 1711.14,1336.96C1713.4,1336.93 1715.72,1335.72 1717.67,1332.88C1720.49,1328.78 1722.96,1320.3 1724.88,1308.67C1735.19,1246.14 1733.08,1088.11 1733.99,1066.62C1737.05,993.924 1748.53,425.028 1744.96,319.35C1744.77,313.644 1742.94,309.801 1740.16,307.232C1737.43,304.706 1733.64,303.363 1729.03,303.016C1717.73,302.165 1700.74,307.573 1685.47,309.44C1683.52,309.677 1682.13,311.451 1682.37,313.398C1682.61,315.344 1684.38,316.732 1686.33,316.494C1701.12,314.686 1717.55,309.278 1728.49,310.102C1731.3,310.313 1733.68,310.916 1735.34,312.452C1736.96,313.944 1737.75,316.276 1737.86,319.589C1741.42,425.192 1729.95,993.677 1726.89,1066.32C1725.99,1087.74 1728.14,1245.2 1717.87,1307.51C1716.4,1316.41 1714.73,1323.29 1712.68,1327.37C1712.26,1328.2 1711.83,1328.9 1711.38,1329.42C1711.24,1329.58 1710.99,1329.79 1710.89,1329.86Z" style="fill:rgb(10,31,64);"></path>        </g>        <g transform="matrix(1.0766,0.247932,-0.330738,0.807059,653.947,-26.5168)">            <path d="M1021.43,389.188C1021.53,390.437 1021.7,392.47 1021.76,393.134C1024.14,418.591 1024.84,444.212 1026.38,469.727C1029.66,524.213 1033.8,578.642 1038.88,632.993C1054.35,798.751 1060.72,950.606 1073.46,1116.27C1073.62,1118.22 1075.33,1119.69 1077.28,1119.54C1079.24,1119.39 1080.7,1117.68 1080.55,1115.72C1067.81,950.021 1061.43,798.13 1045.95,632.333C1040.89,578.059 1036.75,523.707 1033.47,469.299C1031.93,443.706 1031.23,418.006 1028.83,392.471C1028.71,391.121 1028.63,387.353 1028.01,385.681C1027.36,383.947 1026.15,383.116 1025.1,382.819C1024.09,382.536 1022.87,382.541 1021.53,383.502C1019.94,384.65 1019.59,386.873 1020.73,388.463C1020.94,388.744 1021.17,388.987 1021.43,389.188ZM1025.52,389.38L1025.51,389.386L1025.52,389.38Z" style="fill:rgb(10,31,64);"></path>        </g>        <g transform="matrix(1.0766,0.247932,-0.330738,0.807059,653.947,-26.5168)">            <path d="M927.752,1019.96C921.06,1025.63 916.992,1032.43 914.612,1038.04C907.073,1055.79 910.975,1090.88 937.785,1106.65C939.505,1107.66 942.199,1107.86 945.3,1107.11C950.097,1105.94 956.328,1102.6 958.966,1101.67C974.444,1096.24 1003.71,1092.63 1015.35,1087.19C1019.3,1085.35 1021.38,1081.34 1021.76,1076.12C1022.45,1066.7 1017.45,1052.97 1014.85,1048.19C1009.13,1037.7 996.779,1022.98 981.366,1014.69C965.429,1006.12 946.327,1004.23 927.753,1019.96L927.752,1019.96ZM941.291,1100.46C918.039,1086.71 914.599,1056.25 921.153,1040.81C923.183,1036.03 926.637,1030.22 932.345,1025.38L932.346,1025.38C948.161,1011.99 964.43,1013.65 978,1020.95C992.093,1028.53 1003.38,1041.99 1008.6,1051.59C1010.54,1055.15 1014.05,1064.43 1014.64,1072.17C1014.81,1074.43 1014.75,1076.55 1014.21,1078.28C1013.86,1079.37 1013.33,1080.3 1012.35,1080.75C1000.84,1086.12 971.904,1089.6 956.61,1094.97C954.413,1095.74 949.661,1098.26 945.412,1099.68C944.258,1100.06 943.153,1100.36 942.183,1100.46C941.882,1100.5 941.409,1100.47 941.291,1100.46Z" style="fill:rgb(10,31,64);"></path>        </g>        <g transform="matrix(1.0766,0.247932,-0.330738,0.807059,653.947,-26.5168)">            <path d="M1435.29,2041.28C1434.46,2042.63 1434.61,2044.43 1435.77,2045.62C1437.13,2047.03 1439.39,2047.06 1440.79,2045.7C1442.95,2043.6 1443.16,2041.21 1441.97,2038.6C1441.37,2037.27 1440.25,2035.82 1438.96,2034.38C1437.65,2032.92 1436.09,2031.46 1435.39,2030.07C1420.87,2001.01 1408.59,1971.05 1398.98,1940.02C1376.6,1867.77 1370.59,1794.13 1372.82,1718.81C1374.41,1665.41 1383.72,1609.5 1399.15,1558.33C1413.95,1509.25 1475.33,1386.91 1479.04,1320.29C1479.14,1318.34 1477.64,1316.66 1475.68,1316.55C1473.73,1316.44 1472.05,1317.94 1471.94,1319.9C1468.26,1386.07 1407.05,1507.52 1392.35,1556.28C1376.74,1608.03 1367.32,1664.59 1365.72,1718.6C1363.47,1794.71 1369.58,1869.12 1392.19,1942.12C1401.92,1973.52 1414.34,2003.85 1429.04,2033.25C1429.93,2035.04 1431.76,2037.01 1433.46,2038.89C1434.1,2039.6 1434.9,2040.71 1435.29,2041.28Z" style="fill:rgb(10,31,64);"></path>        </g>        <g transform="matrix(1.0766,0.247932,-0.330738,0.807059,653.947,-26.5168)">            <path d="M1258.3,1418.37C1258,1419.08 1257.94,1419.89 1258.16,1420.68C1258.7,1422.57 1260.66,1423.67 1262.55,1423.13C1265.38,1422.33 1266.25,1420.61 1266.45,1419.14C1266.62,1417.94 1266.26,1416.32 1264.83,1414.7C1263.44,1413.13 1260.59,1411.12 1257.66,1409.11C1255.28,1407.48 1252.83,1405.85 1251.56,1404.44C1242.49,1394.31 1234.26,1383.44 1225.54,1373.01C1201.01,1343.64 1178.48,1313.65 1159.56,1280.34C1142.74,1250.71 1099.04,1131.72 1043.2,1058.44C1004.67,1007.87 960.176,979.303 914.922,1012.24C890.424,1030.08 884.986,1056.73 888.909,1085.74C894.56,1127.52 919.867,1174.27 932.081,1204.48C954.76,1260.58 977.244,1317.84 981.163,1378.97C984.021,1423.56 971.271,1462.69 968.51,1506.31C962.496,1601.34 968.694,1696.82 996.946,1787.22C997.531,1789.1 999.526,1790.14 1001.4,1789.55C1003.27,1788.97 1004.31,1786.98 1003.73,1785.1C975.736,1695.53 969.643,1600.92 975.603,1506.76C978.383,1462.83 991.133,1423.42 988.255,1378.51C984.287,1316.62 961.632,1258.62 938.67,1201.82C926.626,1172.03 901.524,1125.99 895.952,1084.79C892.394,1058.48 896.89,1034.16 919.104,1017.99C961.13,987.398 1001.76,1015.79 1037.55,1062.75C1093.17,1135.75 1136.62,1254.34 1153.38,1283.85C1172.51,1317.53 1195.28,1347.86 1220.09,1377.56C1228.85,1388.06 1237.14,1399 1246.27,1409.18C1248.4,1411.56 1253.26,1414.6 1256.85,1417.2C1257.32,1417.55 1257.84,1417.97 1258.3,1418.37Z" style="fill:rgb(10,31,64);"></path>        </g>        <g transform="matrix(1.0766,0.247932,-0.330738,0.807059,653.947,-26.5168)">            <path d="M1201.74,1330.06C1202.33,1329.76 1203.24,1329.32 1203.95,1329.08C1206.52,1328.19 1209.33,1327.62 1209.89,1327.48C1237.16,1320.36 1272.46,1318.13 1297.77,1305.47C1299.52,1304.6 1300.23,1302.46 1299.36,1300.71C1298.48,1298.95 1296.34,1298.24 1294.59,1299.12C1269.69,1311.57 1234.93,1313.6 1208.1,1320.6C1207.15,1320.85 1200.71,1322.23 1197.6,1324.19C1194.36,1326.23 1193.64,1328.99 1195.13,1331.54C1196.12,1333.24 1198.29,1333.82 1199.99,1332.83C1201.03,1332.23 1201.64,1331.18 1201.74,1330.06Z" style="fill:rgb(10,31,64);"></path>        </g>        <g transform="matrix(1.0766,0.247932,-0.330738,0.807059,653.947,-26.5168)">            <path d="M710.795,1325.36C728.158,1333.22 762.684,1340.96 792.537,1339.75C813.2,1338.91 831.587,1333.64 841.214,1321.88C842.456,1320.36 842.232,1318.12 840.714,1316.88C839.196,1315.63 836.956,1315.86 835.714,1317.38C827.161,1327.83 810.607,1331.91 792.25,1332.65C763.575,1333.81 730.404,1326.44 713.726,1318.89C711.94,1318.08 709.833,1318.87 709.024,1320.66C708.215,1322.44 709.008,1324.55 710.795,1325.36Z" style="fill:rgb(10,31,64);"></path>        </g>        <g transform="matrix(1.0766,0.247932,-0.330738,0.807059,653.947,-26.5168)">            <path d="M814.475,1340.46C816.598,1340.92 818.881,1342.05 821.15,1343.24C824.944,1345.23 828.651,1347.55 831.592,1348.75C848.831,1355.79 870.213,1359.26 888.857,1357.88C898.745,1357.15 908.696,1352.72 916.976,1347.45C918.63,1346.4 919.119,1344.2 918.066,1342.54C917.013,1340.89 914.815,1340.4 913.161,1341.45C905.837,1346.11 897.078,1350.15 888.332,1350.8C870.733,1352.1 850.551,1348.81 834.278,1342.17C830.897,1340.79 826.478,1337.84 822.104,1335.77C818.569,1334.1 815.033,1333.01 811.946,1333.16C810.834,1333.21 809.553,1333.77 808.727,1335.16C808.309,1335.87 808.011,1336.92 807.966,1337.7C807.92,1338.47 808.079,1339.11 808.246,1339.52C808.768,1340.81 809.719,1341.43 810.682,1341.69C811.491,1341.91 812.577,1341.98 813.786,1341.12C814.051,1340.92 814.281,1340.71 814.475,1340.46ZM811.251,1334.71C810.804,1334.75 810.317,1334.9 809.806,1335.23C810.256,1334.94 810.75,1334.77 811.251,1334.71Z" style="fill:rgb(10,31,64);"></path>        </g>        <g transform="matrix(1.0766,0.247932,-0.330738,0.807059,653.947,-26.5168)">            <path d="M898.212,1356.2C897.839,1355.56 897.265,1355.04 896.533,1354.73C894.727,1353.96 892.64,1354.81 891.876,1356.61C891.355,1357.85 891.41,1358.89 891.678,1359.75C892.044,1360.93 892.916,1362.02 894.494,1362.65C895.335,1362.99 896.565,1363.21 897.891,1363.35C898.873,1363.45 899.969,1363.41 900.614,1363.74C925.678,1376.27 950.057,1389.92 974.88,1402.33C976.634,1403.21 978.77,1402.5 979.647,1400.74C980.524,1398.99 979.812,1396.85 978.058,1395.98C953.235,1383.56 928.856,1369.91 903.792,1357.38C902.869,1356.92 901.552,1356.62 900.14,1356.44C899.585,1356.38 898.827,1356.28 898.212,1356.2Z" style="fill:rgb(10,31,64);"></path>        </g>        <g transform="matrix(1.0766,0.247932,-0.330738,0.807059,653.947,-26.5168)">            <path d="M969.584,1470.13C965.141,1476.11 961.616,1485.08 958.692,1494.96C954.507,1509.12 951.486,1525.2 948.231,1536.38C908.671,1672.2 939.043,1782.49 974.515,1899.64C975.084,1901.51 977.069,1902.58 978.946,1902.01C980.823,1901.44 981.885,1899.45 981.317,1897.58C946.238,1781.73 915.933,1672.68 955.054,1538.37C958.307,1527.2 961.325,1511.13 965.507,1496.98C968.163,1488 971.251,1479.8 975.287,1474.37C976.457,1472.8 976.129,1470.57 974.555,1469.4C972.982,1468.23 970.754,1468.56 969.584,1470.13Z" style="fill:rgb(10,31,64);"></path>        </g>        <g transform="matrix(1.0766,0.247932,-0.330738,0.807059,653.947,-26.5168)">            <path d="M969.925,1181.82C973.02,1173.79 980.628,1166.89 989.794,1161.03C1004.27,1151.78 1022.73,1145.27 1035.46,1141.95C1037.36,1141.45 1038.49,1139.51 1038,1137.61C1037.5,1135.71 1035.56,1134.58 1033.66,1135.07C1020.36,1138.54 1001.1,1145.37 985.967,1155.04C975.392,1161.8 966.864,1170 963.294,1179.27C962.588,1181.1 963.501,1183.15 965.331,1183.86C967.161,1184.56 969.219,1183.65 969.925,1181.82Z" style="fill:rgb(10,31,64);"></path>        </g>        <g transform="matrix(1.0766,0.247932,-0.330738,0.807059,653.947,-26.5168)">            <path d="M1005.09,1180.82C1006.48,1180.06 1014.78,1175.46 1015.44,1175.15C1017.21,1174.31 1017.98,1172.19 1017.14,1170.42C1016.31,1168.64 1014.19,1167.88 1012.41,1168.72C1011.6,1169.1 1002.07,1174.12 1000.52,1175.33C999.008,1176.52 998.954,1177.91 998.957,1178.37C998.966,1179.64 999.492,1180.67 1000.66,1181.39C1002.11,1182.29 1003.96,1182.01 1005.09,1180.82ZM1004.55,1175.45C1005.34,1176 1005.84,1176.82 1006.01,1177.7C1005.87,1176.79 1005.4,1176.03 1004.55,1175.45Z" style="fill:rgb(10,31,64);"></path>        </g>        <g transform="matrix(1.0766,0.247932,-0.330738,0.807059,653.947,-26.5168)">            <path d="M995.557,1202.09C994.615,1202.89 994.116,1204.16 994.357,1205.46C994.647,1207.01 995.404,1207.43 995.489,1207.51C996.851,1208.73 998.201,1208.65 999.413,1208.07C999.608,1207.97 1001.4,1205.21 1001.4,1205.21C1001.4,1205.21 1000.69,1207.09 999.989,1207.59C1003.38,1205.16 1008.49,1204.23 1013.71,1203.53C1019.7,1202.72 1025.86,1202.31 1030.44,1201.16C1042.65,1198.11 1053.58,1194.06 1062.61,1185.03C1063.99,1183.65 1063.99,1181.39 1062.61,1180.01C1061.22,1178.62 1058.97,1178.62 1057.58,1180.01C1049.51,1188.08 1039.64,1191.54 1028.72,1194.27C1023.41,1195.6 1015.92,1195.86 1009.16,1197.03C1004.02,1197.93 999.272,1199.36 995.849,1201.81C995.751,1201.88 995.653,1201.98 995.557,1202.09ZM1000.45,1202.38C1000.85,1202.82 1001.16,1203.36 1001.3,1203.97C1001.09,1203.04 1000.7,1202.59 1000.45,1202.38ZM998.11,1201.26C998.39,1201.28 998.664,1201.34 998.925,1201.42C998.651,1201.32 998.379,1201.27 998.11,1201.26Z" style="fill:rgb(10,31,64);"></path>        </g>        <g transform="matrix(1.0766,0.247932,-0.330738,0.807059,653.947,-26.5168)">            <path d="M423.438,1358.31C423.016,1355.95 422.327,1351.92 421.73,1347.62C416.844,1312.42 406.575,1219.33 399.643,1170.18C378.718,1021.8 355.598,871.269 340.235,722.244C336.345,684.515 311.954,520.592 310.92,453.107C310.769,443.314 311.096,435.618 312.105,430.75C312.414,429.26 313.105,427.67 313.289,427.263C316.863,426.043 339.443,420.034 344.4,419.121L344.656,419.079C345.618,419.1 346.586,418.733 347.303,417.982C348.657,416.565 348.606,414.313 347.188,412.959C346.86,412.645 346.383,412.293 345.661,412.093C345.405,412.021 344.507,411.875 343.114,412.132C337.754,413.118 312.659,419.848 310.337,420.777C308.647,421.453 306.887,423.289 305.816,426.689C304.265,431.614 303.624,440.868 303.814,453.216C304.851,520.856 329.267,685.158 333.165,722.973C348.538,872.085 371.668,1022.71 392.606,1171.17C400.409,1226.5 412.443,1337.47 416.274,1359.02C416.641,1361.08 416.98,1362.45 417.214,1363.05C417.491,1363.77 417.836,1364.2 418.07,1364.45C419.034,1365.48 420.094,1365.66 420.96,1365.61C487.954,1361.24 741.646,1321.07 822.684,1306.64C866.461,1298.84 914.166,1297.54 961.249,1287.21C963.164,1286.79 964.378,1284.89 963.957,1282.97C963.537,1281.06 961.64,1279.84 959.724,1280.27C912.738,1290.58 865.127,1291.86 821.438,1299.64C741.698,1313.84 494.467,1353.03 423.438,1358.31Z" style="fill:rgb(10,31,64);"></path>        </g>        <g transform="matrix(1.0766,0.247932,-0.330738,0.807059,653.947,-26.5168)">            <path d="M1690.06,327.272C1691.69,327.358 1694.33,327.476 1695.45,327.412C1698.06,327.263 1702.39,326.534 1706.11,326.705C1707.24,326.757 1708.3,326.881 1709.16,327.215C1709.59,327.379 1709.96,327.597 1709.99,328.095C1711.35,353.007 1710.7,393.188 1709.26,409.28C1703.72,471.165 1703.16,527.779 1703.16,589.813C1703.16,715.945 1700.53,841.93 1698.95,968.073C1698.3,1020.15 1693.18,1071.25 1695.05,1123.57C1695.83,1145.42 1691.8,1269 1688.44,1292.13C1687.8,1296.52 1683.64,1296.57 1679.54,1296.41C1675.3,1296.24 1670.83,1295.41 1667.58,1295.31C1665.6,1295.25 1663.95,1295.47 1662.77,1295.95C1660.95,1296.67 1660.06,1298.74 1660.79,1300.57C1661.52,1302.38 1663.59,1303.27 1665.41,1302.54C1666.37,1302.16 1667.96,1302.41 1669.83,1302.6C1673.9,1303.01 1678.91,1303.8 1683.21,1303.45C1689.5,1302.95 1694.43,1300.3 1695.47,1293.15C1698.86,1269.85 1702.93,1145.34 1702.15,1123.32C1700.28,1071.12 1705.41,1020.12 1706.06,968.162C1707.64,841.989 1710.27,715.974 1710.27,589.813C1710.27,527.997 1710.82,471.582 1716.34,409.914C1717.8,393.62 1718.46,352.933 1717.09,327.708C1716.83,323.107 1713.72,320.674 1709.09,319.881C1704.63,319.117 1698.48,320.121 1695.04,320.317C1693.4,320.412 1689.98,319.958 1688.2,320.103C1686.94,320.206 1686.03,320.597 1685.5,320.965C1684.43,321.705 1683.94,322.685 1683.83,323.768C1683.75,324.594 1683.85,325.814 1685.07,327.106C1686.41,328.518 1688.64,328.588 1690.06,327.272Z" style="fill:rgb(10,31,64);"></path>        </g>        <g transform="matrix(1.0766,0.247932,-0.330738,0.807059,651.431,-5.28824)">            <path d="M488.259,544.557C487.375,543.929 486.215,543.713 485.104,544.073C483.239,544.678 482.216,546.684 482.821,548.55C483.172,549.632 483.762,550.377 484.453,550.912C485.365,551.62 486.54,552.001 487.959,551.907C488.92,551.843 490.111,551.501 491.339,551.048C492.23,550.719 493.143,550.214 493.882,550.214C523.349,550.214 553.368,547.394 582.776,545.556C686.401,539.08 790.858,526.362 894.728,526.362C896.689,526.362 898.281,524.769 898.281,522.808C898.281,520.847 896.689,519.255 894.728,519.255C790.71,519.255 686.104,531.978 582.333,538.463C553.071,540.292 523.202,543.108 493.882,543.108C492.816,543.108 491.534,543.418 490.236,543.879C489.672,544.08 488.856,544.357 488.259,544.557Z" style="fill:rgb(10,31,64);"></path>        </g>        <g transform="matrix(1.0766,0.247932,-0.330738,0.807059,651.431,-5.28824)">            <path d="M492.533,685.969C493.243,685.865 505.346,684.102 507.571,683.894C519.665,682.76 531.762,681.954 543.889,681.219C580.009,679.03 616.036,677.15 652.042,673.334C758.317,662.074 866.617,655.029 972.147,638.366C974.085,638.061 975.409,636.24 975.103,634.302C974.797,632.365 972.976,631.041 971.039,631.347C865.627,647.991 757.448,655.019 651.294,666.267C615.393,670.071 579.473,671.943 543.46,674.126C531.255,674.865 519.08,675.677 506.908,676.818C504.52,677.042 493.249,678.607 491.207,678.986C488.439,679.498 488.045,681.904 488.023,682.061C487.917,682.821 488.041,683.552 488.419,684.249C488.701,684.768 489.209,685.491 490.34,685.899C491.073,686.164 491.837,686.172 492.533,685.969ZM495.009,683.347C494.894,683.908 494.616,684.654 493.814,685.291C494.287,684.9 494.665,684.381 494.888,683.763C494.938,683.625 494.978,683.487 495.009,683.347ZM494.839,681.226C494.983,681.58 495.07,681.958 495.093,682.345C495.073,681.964 494.989,681.59 494.839,681.226ZM494.787,681.105L494.808,681.152L494.796,681.123L494.787,681.105ZM494.513,680.603L494.572,680.697L494.549,680.658L494.513,680.603ZM492.926,679.282C493.594,679.563 494.135,680.029 494.51,680.597C494.225,680.149 493.761,679.626 492.926,679.282Z" style="fill:rgb(10,31,64);"></path>        </g>        <g transform="matrix(1.0766,0.247932,-0.330738,0.807059,651.431,-5.28824)">            <path d="M500.341,738.43L500.566,738.292C516.486,734.499 534.654,736.533 550.887,735.18C587.696,732.113 624.364,727.047 661.134,723.488C769.441,713.007 876.232,695.347 984.934,688.553C986.891,688.431 988.381,686.743 988.259,684.785C988.136,682.828 986.448,681.338 984.491,681.461C875.708,688.26 768.837,705.925 660.449,716.415C623.711,719.97 587.074,725.033 550.297,728.098C533.574,729.492 514.848,727.478 498.487,731.482C498.164,731.562 496.074,732.593 495.214,733.379C494.323,734.193 494.008,735.099 493.91,735.646C493.634,737.191 494.12,738.459 495.543,739.364C497.144,740.381 499.253,739.957 500.341,738.43ZM499.525,733.481C500.334,734.062 500.831,734.93 500.965,735.857C500.89,734.912 500.43,734.11 499.525,733.481Z" style="fill:rgb(10,31,64);"></path>        </g>        <g transform="matrix(1.0766,0.247932,-0.330738,0.807059,651.431,-5.28824)">            <path d="M505.974,788.359C509.07,786.253 515.283,785.367 522.784,784.825C542.198,783.424 569.655,785.347 580.621,784.129C715.005,769.197 849.066,742.131 984.039,733.695C985.997,733.573 987.486,731.884 987.364,729.927C987.242,727.969 985.553,726.48 983.596,726.602C848.509,735.045 714.333,762.121 579.836,777.065C568.923,778.278 541.594,776.342 522.272,777.737C513.17,778.394 505.732,779.928 501.976,782.484C500.355,783.587 499.934,785.799 501.037,787.421C502.141,789.042 504.353,789.463 505.974,788.359Z" style="fill:rgb(10,31,64);"></path>        </g>        <g transform="matrix(1.0766,0.247932,-0.330738,0.807059,651.431,-5.28824)">            <path d="M518.163,835.618C517.744,834.535 516.801,833.68 515.581,833.423C513.662,833.02 511.776,834.251 511.373,836.171C510.852,838.655 511.623,840.259 512.728,841.33C513.657,842.231 515.1,842.87 517.05,842.885C518.853,842.899 521.397,842.337 524.104,841.571C527.327,840.66 530.846,839.432 533.192,839.305C545.129,838.659 557.073,838.159 569.012,837.576C604.565,835.842 639.839,833.759 675.058,828.235C778.498,812.009 879.249,797.337 983.176,786.397C985.126,786.192 986.543,784.441 986.338,782.491C986.133,780.541 984.382,779.124 982.432,779.329C878.385,790.282 777.516,804.97 673.956,821.214C638.989,826.699 603.965,828.756 568.666,830.478C556.714,831.061 544.757,831.563 532.809,832.208C529.614,832.381 524.48,834.188 520.325,835.229C519.655,835.397 518.834,835.528 518.163,835.618Z" style="fill:rgb(10,31,64);"></path>        </g>        <g transform="matrix(1.0766,0.247932,-0.330738,0.807059,651.431,-5.28824)">            <path d="M533.177,1015.86C564.226,1012.9 603.562,1007.59 634.405,1002.6C635.764,1002.38 637.124,1002.17 638.481,1001.94C751.857,982.903 865.678,972.842 979.797,960.162C981.747,959.945 983.153,958.187 982.937,956.238C982.72,954.289 980.962,952.882 979.013,953.099C864.762,965.793 750.81,975.872 637.305,994.928C635.961,995.154 634.615,995.363 633.271,995.581C602.568,1000.55 563.411,1005.84 532.503,1008.78C530.551,1008.97 529.117,1010.71 529.303,1012.66C529.489,1014.61 531.225,1016.05 533.177,1015.86Z" style="fill:rgb(10,31,64);"></path>        </g>        <g transform="matrix(1.0766,0.247932,-0.330738,0.807059,651.431,-5.28824)">            <path d="M539.133,1047.79C538.246,1047.83 537.37,1048.19 536.707,1048.89C535.724,1049.91 535.637,1050.98 535.754,1051.83C535.86,1052.6 536.189,1053.38 536.955,1054.04C537.055,1054.12 538.006,1055.07 539.869,1054.86C541.153,1054.72 547.97,1053.67 549.324,1053.47C557.7,1052.23 566.198,1052 574.609,1051.04C605.84,1047.48 637.077,1042.95 668.205,1038.57C739.564,1028.5 816.503,1015.84 890.402,1012.01C892.361,1011.91 893.869,1010.24 893.767,1008.28C893.666,1006.32 891.993,1004.82 890.035,1004.92C815.928,1008.75 738.772,1021.44 667.213,1031.53C636.147,1035.91 604.972,1040.42 573.803,1043.98C565.314,1044.95 556.737,1045.19 548.282,1046.44L539.133,1047.79ZM542.806,1050.96C542.909,1051.9 542.634,1052.88 541.976,1053.65C542.797,1052.71 542.898,1051.74 542.806,1050.96ZM542.787,1050.82L542.797,1050.89L542.794,1050.86L542.787,1050.82ZM541.849,1048.89C542.349,1049.42 542.658,1050.06 542.774,1050.73C542.666,1050.1 542.398,1049.46 541.849,1048.89Z" style="fill:rgb(10,31,64);"></path>        </g>        <g transform="matrix(1.0766,0.247932,-0.330738,0.807059,651.431,-5.28824)">            <path d="M548.691,1094.13C547.863,1093.16 546.537,1092.67 545.207,1092.97C543.293,1093.4 542.089,1095.31 542.52,1097.22C542.999,1099.35 544.575,1100.78 547.089,1101.2C549.474,1101.6 553.292,1100.72 554.627,1100.52C594.177,1094.7 632.584,1087.74 672.336,1083.49C743.635,1075.88 811.168,1062.2 887.344,1057.16C889.301,1057.03 890.785,1055.34 890.655,1053.38C890.526,1051.42 888.832,1049.94 886.875,1050.07C810.598,1055.12 742.975,1068.8 671.582,1076.43C631.736,1080.68 593.236,1087.66 553.593,1093.49C552.826,1093.6 549.814,1093.99 548.691,1094.13Z" style="fill:rgb(10,31,64);"></path>        </g>        <g transform="matrix(1.0766,0.247932,-0.330738,0.807059,673.537,-18.8109)">            <path d="M1319.58,664.045C1257.2,666.184 1200,721.363 1202.29,780.537C1205.19,855.629 1258,914.118 1328.69,911.431C1370.27,909.851 1399.91,896.282 1418.99,873.627C1438.01,851.05 1446.6,819.301 1445.73,780.876C1444.43,723.663 1392.38,661.549 1319.58,664.045L1319.58,664.045ZM1319.82,671.148C1388.34,668.798 1437.4,727.187 1438.62,781.037C1439.45,817.465 1431.59,847.644 1413.56,869.049C1395.59,890.375 1367.57,902.842 1328.42,904.33C1261.62,906.868 1212.13,851.215 1209.39,780.262C1207.24,724.69 1261.25,673.156 1319.82,671.148L1319.82,671.148Z" style="fill:rgb(10,31,64);"></path>        </g>        <g transform="matrix(1.0766,0.247932,-0.330738,0.807059,653.947,-26.5168)">            <path d="M1267.46,534.558C1267.59,534.74 1267.72,534.925 1267.84,535.11C1270.76,539.694 1274.88,548.121 1279.69,558.613C1296.17,594.484 1320.59,653.924 1333.42,669.956C1334.64,671.488 1336.88,671.737 1338.41,670.511C1339.94,669.286 1340.19,667.048 1338.97,665.517C1324.49,647.42 1295.24,573.239 1279.63,541.908C1276.75,536.144 1274.3,531.769 1272.48,529.318C1271.31,527.75 1270.22,526.803 1269.4,526.361C1267.95,525.583 1266.4,525.605 1264.86,526.541C1264.1,526.996 1263.28,527.793 1262.56,528.802C1261.59,530.163 1260.73,532.008 1260.37,532.56C1249.81,548.931 1240.93,566.406 1230.72,583C1194.16,642.409 1156.05,704.825 1124.1,765.114C1123.18,766.847 1123.85,768.999 1125.58,769.918C1127.31,770.836 1129.46,770.175 1130.38,768.442C1162.26,708.283 1200.29,646.005 1236.77,586.724C1246.96,570.174 1255.81,552.741 1266.34,536.413C1266.51,536.16 1266.98,535.365 1267.46,534.558Z" style="fill:rgb(10,31,64);"></path>        </g>        <g transform="matrix(1.0766,0.247932,-0.330738,0.807059,653.947,-26.5168)">            <path d="M1127.83,767.528C1127.69,767.465 1127.55,767.41 1127.4,767.365C1125.54,766.774 1123.54,767.813 1122.95,769.683C1122.41,771.384 1122.83,772.541 1123.28,773.279C1123.83,774.183 1124.66,774.846 1125.88,775.097C1126.67,775.259 1128.12,775.139 1129.8,774.45C1131.47,773.763 1133.81,772.374 1135.19,772.121C1143.46,770.612 1151.85,769.795 1160.22,769.143C1168.85,768.471 1185.14,770.201 1199.42,769.924C1209.8,769.724 1219.17,768.342 1224.49,764.798C1226.12,763.71 1226.56,761.502 1225.47,759.871C1224.38,758.239 1222.18,757.797 1220.55,758.885C1216.05,761.88 1208.06,762.649 1199.29,762.819C1184.85,763.098 1168.38,761.379 1159.67,762.058C1151.06,762.729 1142.42,763.577 1133.91,765.13C1132.72,765.348 1130.98,766.085 1129.29,766.879C1128.85,767.084 1128.32,767.32 1127.83,767.528Z" style="fill:rgb(10,31,64);"></path>        </g>        <g transform="matrix(1.0766,0.247932,-0.330738,0.807059,653.947,-26.5168)">            <path d="M1365.49,956.982C1365.33,956.801 1365.18,956.601 1365.05,956.384C1364.42,955.29 1364.41,953.94 1365.04,952.84C1366.68,949.954 1368.96,950.468 1370.05,950.954L1370.23,951.041C1423.11,950.963 1482.43,947.871 1534.69,942.064C1536.37,941.877 1542.33,940.405 1545.94,940.654C1549.48,940.898 1551.49,942.756 1551.88,945.067C1556.58,972.502 1552.98,1013.58 1553.42,1031.67C1553.91,1051.88 1555.99,1094.51 1554.05,1117.46C1553.96,1118.49 1553.46,1119.87 1551.66,1120.85C1550.13,1121.68 1545.84,1122.58 1539.64,1123.25C1512.01,1126.2 1442.49,1127.41 1432.45,1127.86C1426.49,1128.12 1391.32,1130.49 1377.02,1129.03C1373.9,1128.71 1371.6,1128.12 1370.41,1127.47C1368.81,1126.59 1368.14,1125.37 1367.93,1124.27C1362.82,1097.6 1362.57,1049.67 1363.54,1026.44C1364.11,1012.59 1366.31,997.874 1364.55,984.14C1364.1,980.548 1365.68,963.462 1365.49,956.982ZM1372.58,958.143C1425.12,957.978 1483.74,954.876 1535.47,949.128C1536.57,949.005 1539.58,948.28 1542.47,947.911C1543.28,947.808 1544.37,947.796 1545.13,947.804C1549.38,974.893 1545.89,1014.3 1546.31,1031.84C1546.78,1051.3 1548.77,1091.71 1547.12,1114.85C1545.47,1115.2 1542.23,1115.82 1538.88,1116.18C1511.37,1119.12 1442.13,1120.32 1432.13,1120.76C1426.28,1121.02 1391.77,1123.39 1377.75,1121.96C1376.62,1121.84 1375.41,1121.6 1374.63,1121.43C1369.88,1094.93 1369.7,1049.14 1370.64,1026.74C1371.23,1012.49 1373.41,997.362 1371.6,983.24C1371.19,979.977 1372.5,965.468 1372.58,958.143Z" style="fill:rgb(10,31,64);"></path>        </g>    </g></svg>