<?xml version="1.0" encoding="utf-8"?>
<!-- Generator: Adobe Illustrator 25.2.2, SVG Export Plug-In . SVG Version: 6.00 Build 0)  -->
<svg version="1.1" xmlns="http://www.w3.org/2000/svg" xmlns:xlink="http://www.w3.org/1999/xlink" x="0px" y="0px"
	 viewBox="0 0 523.4 113.39" style="enable-background:new 0 0 523.4 113.39;" xml:space="preserve">
<style type="text/css">
	.st0{fill:#EFEFEA;}
	.st1{fill:#2E2741;}
	.st2{fill:#FF7024;}
	.st3{fill:#FE5719;}
	.st4{fill:#FFFFFF;}
	.st5{fill:#ECECED;}
	.st6{fill:#868889;}
</style>
<g id="Logos_Farbe">
	<g>
		<rect x="151.18" y="0" class="st1" width="372.22" height="113.39"/>
		<g>
			<path class="st0" d="M170.08,41.32V18.9h13.46v2.45h-10.79v7.21h7.94v2.39h-7.94v10.36H170.08z"/>
			<path class="st0" d="M183.84,37.53c0-3.24,2.76-5.55,10.7-6.67v-0.73c0-2-1.06-2.97-3.03-2.97c-2.42,0-4.21,1.06-5.79,2.42
				l-1.36-1.64c1.85-1.7,4.24-2.97,7.43-2.97c3.82,0,5.33,2,5.33,5.34v7.06c0,1.94,0.12,3.12,0.45,3.94h-2.67
				c-0.21-0.67-0.36-1.3-0.36-2.21c-1.79,1.67-3.79,2.46-6.18,2.46C185.6,41.56,183.84,40.11,183.84,37.53z M194.54,37.17v-4.48
				c-6.09,0.97-8.12,2.45-8.12,4.46c0,1.54,1.03,2.36,2.7,2.36C191.24,39.5,193.06,38.63,194.54,37.17z"/>
			<path class="st0" d="M200.97,33.32c0-5.85,3.76-8.33,7.33-8.33c3.61,0,5.3,2.12,6.27,4.49l-2.21,0.91
				c-0.79-2.06-2.03-3.18-4.12-3.18c-2.3,0-4.64,1.61-4.64,6.12c0,3.94,1.88,6.15,4.58,6.15c2.03,0,3.27-0.88,4.3-3.21l2.15,0.85
				c-1.24,2.67-3.09,4.55-6.55,4.55C204.39,41.66,200.97,38.81,200.97,33.32z"/>
			<path class="st0" d="M218.43,41.32V18.9h2.64v8.82c1.39-1.36,3.39-2.73,6-2.73c3.06,0,4.73,1.76,4.73,4.79v11.55h-2.61V30.35
				c0-2.12-0.91-3.12-2.94-3.12c-1.91,0-3.52,1-5.18,2.58v11.52H218.43z"/>
			<path class="st0" d="M236.68,21.9v-2.55h2.73v2.55H236.68z M236.74,41.32v-16h2.61v16H236.74z"/>
			<path class="st0" d="M244.44,41.32v-16h2.64v2.39c1.39-1.36,3.39-2.73,6-2.73c3.06,0,4.73,1.76,4.73,4.79v11.55h-2.61V30.35
				c0-2.12-0.91-3.12-2.94-3.12c-1.91,0-3.52,1-5.18,2.58v11.52H244.44z"/>
			<path class="st0" d="M263.81,41.32V27.47h-2.79v-2.15h2.79v-2.15c0-2.7,1.42-4.33,4.82-4.33c0.45,0,1.24,0.09,1.49,0.09v2.12
				c-0.24-0.06-0.76-0.09-1.12-0.09c-1.46,0-2.58,0.51-2.58,2.24v2.12h3.52v2.15h-3.52v13.85H263.81z"/>
			<path class="st0" d="M271.78,33.32c0-5.52,3.52-8.33,7.46-8.33c3.91,0,7.43,2.82,7.43,8.33c0,5.49-3.52,8.33-7.43,8.33
				C275.33,41.66,271.78,38.81,271.78,33.32z M284.03,33.32c0-3.33-1.61-6.09-4.79-6.09c-3.06,0-4.82,2.49-4.82,6.09
				c0,3.39,1.58,6.12,4.82,6.12C282.27,39.44,284.03,36.99,284.03,33.32z"/>
			<path class="st0" d="M290.67,41.32v-16h2.61v2.97h0.06c1.18-1.85,3.06-3.3,6.18-3.3h0.33l-0.18,2.43
				c-0.09-0.03-0.67-0.03-0.76-0.03c-2.55,0-4.46,1.34-5.64,3.61v10.33H290.67z"/>
			<path class="st0" d="M303.1,41.32v-16h2.61v2.43c1.52-1.52,3.36-2.76,5.76-2.76c2.7,0,3.85,1.15,4.4,2.82
				c1.55-1.51,3.52-2.82,5.91-2.82c3.27,0,4.64,1.91,4.64,4.79v11.55h-2.61V30.35c0-2.12-0.7-3.12-2.79-3.12
				c-1.79,0-3.27,1-4.94,2.58v11.52h-2.61V30.35c0-2.12-0.7-3.12-2.79-3.12c-1.76,0-3.27,1-4.97,2.58v11.52H303.1z"/>
			<path class="st0" d="M330.23,37.53c0-3.24,2.76-5.55,10.7-6.67v-0.73c0-2-1.06-2.97-3.03-2.97c-2.42,0-4.21,1.06-5.79,2.42
				l-1.36-1.64c1.85-1.7,4.24-2.97,7.43-2.97c3.82,0,5.33,2,5.33,5.34v7.06c0,1.94,0.12,3.12,0.45,3.94h-2.67
				c-0.21-0.67-0.36-1.3-0.36-2.21c-1.79,1.67-3.79,2.46-6.18,2.46C331.99,41.56,330.23,40.11,330.23,37.53z M340.93,37.17v-4.48
				c-6.09,0.97-8.12,2.45-8.12,4.46c0,1.54,1.03,2.36,2.7,2.36C337.62,39.5,339.44,38.63,340.93,37.17z"/>
			<path class="st0" d="M349.42,37.44v-9.97h-2.79v-2.15h2.79v-5.7h2.61v5.7h4.15v2.15h-4.15v9.4c0,1.7,0.55,2.55,2.49,2.55
				c0.58,0,1.21-0.09,1.64-0.21v2.15c-0.45,0.09-1.45,0.18-2.27,0.18C350.51,41.54,349.42,40.23,349.42,37.44z"/>
			<path class="st0" d="M360.12,21.9v-2.55h2.73v2.55H360.12z M360.18,41.32v-16h2.61v16H360.18z"/>
			<path class="st0" d="M366.97,33.32c0-5.52,3.52-8.33,7.46-8.33c3.91,0,7.43,2.82,7.43,8.33c0,5.49-3.52,8.33-7.43,8.33
				C370.52,41.66,366.97,38.81,366.97,33.32z M379.21,33.32c0-3.33-1.61-6.09-4.79-6.09c-3.06,0-4.82,2.49-4.82,6.09
				c0,3.39,1.58,6.12,4.82,6.12C377.46,39.44,379.21,36.99,379.21,33.32z"/>
			<path class="st0" d="M385.85,41.32v-16h2.64v2.39c1.39-1.36,3.39-2.73,6-2.73c3.06,0,4.73,1.76,4.73,4.79v11.55h-2.61V30.35
				c0-2.12-0.91-3.12-2.94-3.12c-1.91,0-3.52,1-5.18,2.58v11.52H385.85z"/>
			<path class="st0" d="M402.83,38.9l1.58-1.58c1.21,1.3,2.82,2.21,5,2.21c2.49,0,3.85-0.88,3.85-2.52c0-1.61-1.39-2.21-4.12-2.85
				c-3.4-0.82-5.73-1.73-5.73-4.82c0-2.42,2.12-4.36,5.61-4.36c2.82,0,4.64,0.91,6.12,2.3l-1.36,1.73
				c-1.21-1.12-2.85-1.91-4.64-1.91c-2.33,0-3.24,1.03-3.24,2.15c0,1.49,1.27,2.03,3.79,2.61c3.61,0.88,6.09,1.76,6.09,5.06
				c0,3.06-2.76,4.7-6.39,4.7C406.5,41.63,404.13,40.47,402.83,38.9z"/>
			<path class="st0" d="M418.69,33.35c0-5.58,2.91-8.37,6.82-8.37c1.94,0,3.76,0.97,4.97,2.36V18.9h2.61v18.49
				c0,1.94,0.12,3.12,0.49,3.94h-2.73c-0.18-0.51-0.36-1.45-0.36-2.27c-1.27,1.39-2.88,2.51-5.27,2.51
				C421.54,41.56,418.69,38.93,418.69,33.35z M430.48,36.96v-7.33c-1.39-1.58-2.91-2.43-4.61-2.43c-2.79,0-4.58,1.97-4.58,6.18
				c0,4.09,1.97,6.03,4.55,6.03C427.69,39.41,429.14,38.41,430.48,36.96z"/>
			<path class="st0" d="M438.15,21.9v-2.55h2.73v2.55H438.15z M438.21,41.32v-16h2.61v16H438.21z"/>
			<path class="st0" d="M445,33.32c0-5.82,3.88-8.33,7.24-8.33c3.79,0,6.67,2.67,6.67,8.46v0.54H447.6
				c0.09,3.61,2.18,5.55,4.82,5.55c2.3,0,3.61-0.94,4.82-2.61l1.52,1.33c-1.49,2.12-3.52,3.39-6.52,3.39
				C448.45,41.66,445,38.9,445,33.32z M456.42,31.96c-0.21-2.85-1.58-4.79-4.21-4.79c-2.15,0-4.18,1.49-4.55,4.79H456.42z"/>
			<path class="st0" d="M462.94,41.32v-16h2.64v2.39c1.39-1.36,3.39-2.73,6-2.73c3.06,0,4.73,1.76,4.73,4.79v11.55h-2.61V30.35
				c0-2.12-0.91-3.12-2.94-3.12c-1.91,0-3.52,1-5.18,2.58v11.52H462.94z"/>
			<path class="st0" d="M479.92,38.9l1.58-1.58c1.21,1.3,2.82,2.21,5,2.21c2.49,0,3.85-0.88,3.85-2.52c0-1.61-1.39-2.21-4.12-2.85
				c-3.4-0.82-5.73-1.73-5.73-4.82c0-2.42,2.12-4.36,5.61-4.36c2.82,0,4.64,0.91,6.12,2.3l-1.36,1.73
				c-1.21-1.12-2.85-1.91-4.64-1.91c-2.33,0-3.24,1.03-3.24,2.15c0,1.49,1.27,2.03,3.79,2.61c3.61,0.88,6.09,1.76,6.09,5.06
				c0,3.06-2.76,4.7-6.39,4.7C483.59,41.63,481.22,40.47,479.92,38.9z"/>
			<path class="st0" d="M497.74,37.44v-9.97h-2.79v-2.15h2.79v-5.7h2.61v5.7h4.15v2.15h-4.15v9.4c0,1.7,0.55,2.55,2.49,2.55
				c0.58,0,1.21-0.09,1.64-0.21v2.15c-0.45,0.09-1.46,0.18-2.27,0.18C498.84,41.54,497.74,40.23,497.74,37.44z"/>
		</g>
		<g>
			<path class="st0" d="M170.08,94.49V55.76h15.56c7.15,0,13.87,1.73,13.87,9.58c0,5.49-3.47,8.11-7.41,8.9v0.11
				c4.73,0.84,8.46,3.3,8.46,9.47c0,7.8-6.88,10.68-14.14,10.68H170.08z M178.49,71.72h6.31c4.47,0,6.52-1.68,6.52-4.66
				c0-3.03-1.84-4.71-6.41-4.71h-6.41V71.72z M178.49,88h6.89c4.73,0,6.83-1.88,6.83-5.18c0-3.4-2.47-5.07-7.2-5.07h-6.52V88z"/>
			<path class="st2" d="M206.45,94.49v-9h9.04v9H206.45z"/>
		</g>
		<g>
			<path class="st0" d="M230.08,94.49l13.77-38.89H252l13.77,38.89h-8.67l-2.89-8.63h-13.24l-3,8.63H230.08z M243.07,79.67h9.15
				l-4.47-13.19h-0.1L243.07,79.67z"/>
			<path class="st2" d="M270.09,94.49v-9h9.04v9H270.09z"/>
		</g>
		<g>
			<path class="st0" d="M293.71,79.67V55.76h8.57v23.71c0,5.6,2.15,8.74,7.25,8.74c5.05,0,7.15-3.09,7.15-8.74V55.76h8.41v23.87
				c0,9.53-4.83,15.49-15.66,15.49C298.6,95.12,293.71,89.15,293.71,79.67z"/>
			<path class="st2" d="M330.3,94.49v-9h9.04v9H330.3z"/>
		</g>
		<g>
			<path class="st0" d="M358.32,80.66c0-9.67,5.04-14.51,11.82-14.51c3.36,0,6.52,1.68,8.62,4.1V55.59h4.52v32.06
				c0,3.36,0.21,5.41,0.84,6.83h-4.73c-0.31-0.89-0.63-2.52-0.63-3.94c-2.21,2.42-4.99,4.36-9.15,4.36
				C363.26,94.9,358.32,90.33,358.32,80.66z M378.76,86.91V74.2c-2.42-2.74-5.04-4.21-7.99-4.21c-4.84,0-7.94,3.42-7.94,10.72
				c0,7.1,3.41,10.46,7.88,10.46C373.93,91.17,376.45,89.44,378.76,86.91z"/>
			<path class="st0" d="M392.07,60.8v-4.42h4.73v4.42H392.07z M392.17,94.48V66.73h4.52v27.75H392.17z"/>
			<path class="st0" d="M402.42,98.27c0-2.84,1.95-4.94,5.05-6.15c-1.58-0.74-2.36-1.89-2.36-3.52c0-1.78,1.47-3.31,3.47-4.47
				c-2.68-1.73-4.26-4.52-4.26-7.99c0-5.83,4.68-9.99,11.3-9.99c3.42,0,6.25,1.16,8.2,2.89c1.68-1.26,4.31-2.32,6.57-2.58v3.99
				c-1.52,0-3.36,0.26-4.99,0.9c0.89,1.26,1.42,2.89,1.42,4.78c0,5.99-4.73,9.88-11.19,9.88c-1.63,0-3-0.26-4.42-0.68
				c-1.16,0.53-1.94,1.21-1.94,2.15c0,1.16,0.89,1.68,3.84,1.95l5.68,0.47c7.04,0.48,10.62,2.73,10.62,7.2
				c0,5.25-5.52,8.04-13.56,8.04C406.47,105.15,402.42,102.47,402.42,98.27z M425.23,97.53c0-2.47-1.84-3.57-7.67-3.99l-5.25-0.37
				c-0.53-0.05-1.05-0.11-1.58-0.16c-2.68,0.95-4.1,2.68-4.1,4.57c0,2.78,2.89,4.15,9.78,4.15
				C421.92,101.74,425.23,100.05,425.23,97.53z M422.6,76.25c0-4.05-2.52-6.57-6.99-6.57c-4.31,0-6.99,2.58-6.99,6.57
				c0,3.99,2.79,6.46,7.04,6.46C419.92,82.71,422.6,80.24,422.6,76.25z"/>
			<path class="st0" d="M436.48,60.8v-4.42h4.73v4.42H436.48z M436.59,94.48V66.73h4.52v27.75H436.59z"/>
			<path class="st0" d="M451.94,87.76V70.46h-4.84v-3.73h4.84v-9.88h4.52v9.88h7.2v3.73h-7.2v16.29c0,2.94,0.95,4.42,4.31,4.42
				c1,0,2.1-0.16,2.84-0.37v3.73c-0.79,0.16-2.52,0.31-3.94,0.31C453.83,94.85,451.94,92.59,451.94,87.76z"/>
			<path class="st0" d="M468.39,87.91c0-5.62,4.78-9.62,18.55-11.56v-1.26c0-3.47-1.84-5.15-5.26-5.15c-4.2,0-7.31,1.84-10.04,4.2
				l-2.36-2.84c3.21-2.94,7.36-5.15,12.88-5.15c6.62,0,9.25,3.47,9.25,9.25v12.25c0,3.36,0.21,5.41,0.79,6.83h-4.63
				c-0.37-1.16-0.63-2.26-0.63-3.84c-3.1,2.89-6.57,4.26-10.72,4.26C471.44,94.9,468.39,92.38,468.39,87.91z M486.94,87.28v-7.78
				c-10.56,1.68-14.09,4.25-14.09,7.73c0,2.68,1.79,4.1,4.68,4.1C481.21,91.33,484.37,89.81,486.94,87.28z"/>
			<path class="st0" d="M499.98,94.48V55.59h4.52v38.89H499.98z"/>
		</g>
		<path class="st0" d="M32.24,81.15v7.79h-7.79v-7.79H32.24 M37.8,75.59H18.9v18.9h18.9V75.59L37.8,75.59z"/>
		<path class="st2" d="M32.24,24.45v7.79h-7.79v-7.79H32.24 M37.8,18.9H18.9v18.9h18.9V18.9L37.8,18.9z"/>
		<g>
			<rect class="st0" width="18.9" height="18.9"/>
		</g>
		<g>
			<rect y="37.8" class="st1" width="18.9" height="18.9"/>
		</g>
		<path class="st0" d="M51.14,5.56v7.79h-7.79V5.56H51.14 M56.69,0H37.8v18.9h18.9V0L56.69,0z"/>
		<g>
			<path class="st2" d="M151.18,18.9V0H75.59v18.9h-18.9v18.9v18.9H37.8v18.9h18.9v18.9H37.8v18.9h113.39V37.8h-18.9V18.9H151.18z
				 M113.39,75.59h-37.8V37.8h37.8V75.59z"/>
		</g>
		<g>
			<rect x="132.28" y="18.9" class="st1" width="18.9" height="18.9"/>
		</g>
	</g>
</g>
<g id="Logos_SW">
</g>
</svg>
