<svg xmlns="http://www.w3.org/2000/svg" xmlns:xlink="http://www.w3.org/1999/xlink" xmlns:serif="http://www.serif.com/" width="100%" height="100%" viewBox="0 0 1084 1084" xml:space="preserve" style="fill-rule:evenodd;clip-rule:evenodd;stroke-linecap:round;stroke-linejoin:round;stroke-miterlimit:1.5;"><g id="g858"></g><rect id="Didaktische-Templates" serif:id="Didaktische Templates" x="0" y="0" width="1083.33" height="1083.33" style="fill:none;"></rect><circle cx="495.515" cy="541.667" r="410.646" style="fill:#edf6e9;"></circle><path d="M906.162,504.397l-0,-32.628" style="fill:none;stroke:#0a1f40;stroke-width:6.25px;"></path><path d="M906.162,327.384l-0,-142.049c-0,-14.993 -12.173,-27.166 -27.167,-27.166l-556.727,-0c-14.993,-0 -27.166,12.173 -27.166,27.166l-0,426.106c-0,14.993 12.173,27.166 27.166,27.166l342.017,0" style="fill:none;stroke:#0a1f40;stroke-width:6.25px;"></path><g><path d="M912.768,720.919c0.113,23.688 -0.206,35.141 1.135,58.886c0.882,15.627 -2.361,39.286 19.853,38.989c1.622,-0.021 8.341,0.357 8.338,0c-0.074,-7.21 -0.272,-54.985 -1.013,-73.491c-0.587,-14.65 -0.257,-31.195 -0.242,-30.807c1.318,33.971 9.865,100.093 10.261,104.298c0.038,0.41 16.382,2.224 20.938,-4.311c6.256,-8.973 3.447,-36.541 3.268,-45.274c-0.829,-40.421 -2.069,-80.866 -2.069,-121.262c0,-0.827 0.004,5.198 0.017,6.76c0.038,4.729 0.059,10.54 0.143,15.332c0.065,3.665 1.583,29.925 1.909,31.792c1.398,8.005 5.702,14.759 13.012,16.833c3.388,0.961 9.537,-0.201 9.731,-9.894c0.231,-11.568 0.634,-24.089 0.269,-35.653c-0.391,-12.407 -0.351,-21.661 -0.351,-34.063c0,-12.371 -1.185,-24.142 -13.978,-29.672c-7.059,-3.052 -16.982,-0.073 -22.851,-5.043c-7.46,-6.318 -3.801,-14.434 -3.801,-14.434" style="fill:none;stroke:#0a1f40;stroke-width:6.36px;"></path><path d="M957.447,521.29l-0,-6.363c-0,-5.262 -3.92,-9.533 -8.749,-9.533l-275.018,-0c-4.829,-0 -8.749,4.271 -8.749,9.533l0,184.31c0,5.261 3.92,9.533 8.749,9.533c-0,0 170.401,1.618 213.068,0c30.229,-1.146 25.342,-35.927 25.086,-54.063c-0.29,-20.499 -28.595,-25.294 -45.431,-31.802c-3.951,-1.527 -14.993,-4.773 -18.926,-6.359c-10.248,-4.134 -23.535,-10.07 -17.722,-24.348c6.228,-15.296 24.918,-5.289 36.016,-1.64c16.318,5.367 34.654,8.492 50.828,10.38c25.685,2.997 21.47,-9.556 17.969,-11.033c-10.553,-4.45 -17.969,-14.896 -17.969,-27.06c0,-16.2 13.153,-29.353 29.354,-29.353c16.2,-0 29.353,13.153 29.353,29.353c-0,5.868 -1.726,11.336 -4.696,15.924" style="fill:none;stroke:#0a1f40;stroke-width:6.36px;"></path><path d="M729.273,708.77l-64.342,110.024" style="fill:none;stroke:#0a1f40;stroke-width:6.36px;"></path><path d="M942.182,792.693l6.869,11.745" style="fill:none;stroke:#0a1f40;stroke-width:6.36px;"></path><path d="M962.23,587.269c-1.535,1.026 -3.172,1.911 -4.893,2.636" style="fill:none;stroke:#0a1f40;stroke-width:6.36px;"></path><path d="M970.596,578.896c5.666,-0.726 9.231,3.682 9.231,8.373c0,4.692 -3.809,8.501 -8.501,8.501c-4.691,0 -9.007,-2.7 -8.976,-8.462" style="fill:none;stroke:#0a1f40;stroke-width:6.36px;"></path></g><path d="M839.585,638.607l26.514,36.366l-53.029,0l26.515,-36.366Z" style="fill:none;stroke:#0a1f40;stroke-width:6.25px;"></path><circle cx="748.578" cy="568.181" r="26.514" style="fill:none;stroke:#0a1f40;stroke-width:6.25px;"></circle><rect x="722.064" y="621.945" width="53.029" height="53.029" style="fill:none;stroke:#0a1f40;stroke-width:6.25px;"></rect><path d="M957.555,334.179c0,-3.686 -2.992,-6.678 -6.678,-6.678l-276.314,-0c-3.686,-0 -6.678,2.992 -6.678,6.678l-0,128.418c-0,3.686 2.992,6.678 6.678,6.678l276.314,0c3.686,0 6.678,-2.992 6.678,-6.678l0,-128.418Z" style="fill:none;stroke:#0a1f40;stroke-width:6.25px;"></path><path d="M628.339,339.084c0,-6.393 -5.19,-11.583 -11.582,-11.583l-266.505,-0c-6.393,-0 -11.583,5.19 -11.583,11.583l0,222.741c0,6.393 5.19,11.583 11.583,11.583l266.505,-0c6.392,-0 11.582,-5.19 11.582,-11.583l0,-222.741Z" style="fill:none;stroke:#0a1f40;stroke-width:6.25px;"></path><path d="M295.102,253.878l611.06,0" style="fill:none;stroke:#0a1f40;stroke-width:6.25px;"></path><path d="M377.232,193.55c0,-3.642 -2.956,-6.598 -6.598,-6.598l-25.367,-0c-3.641,-0 -6.598,2.956 -6.598,6.598l0,25.367c0,3.641 2.957,6.598 6.598,6.598l25.367,-0c3.642,-0 6.598,-2.957 6.598,-6.598l0,-25.367Z" style="fill:none;stroke:#0a1f40;stroke-width:6.25px;"></path><path d="M453.792,193.55c0,-3.642 -2.956,-6.598 -6.598,-6.598l-25.367,-0c-3.641,-0 -6.598,2.956 -6.598,6.598l0,25.367c0,3.641 2.957,6.598 6.598,6.598l25.367,-0c3.642,-0 6.598,-2.957 6.598,-6.598l0,-25.367Z" style="fill:none;stroke:#0a1f40;stroke-width:6.25px;"></path><path d="M530.791,193.55c0,-3.642 -2.956,-6.598 -6.598,-6.598l-25.367,-0c-3.641,-0 -6.598,2.956 -6.598,6.598l0,25.367c0,3.641 2.957,6.598 6.598,6.598l25.367,-0c3.642,-0 6.598,-2.957 6.598,-6.598l0,-25.367Z" style="fill:none;stroke:#0a1f40;stroke-width:6.25px;"></path><path d="M668.376,444.526l98.125,-62.81l90.053,62.81l50.34,-37.528l50.871,37.528" style="fill:none;stroke:#0a1f40;stroke-width:6.25px;"></path><circle cx="866.099" cy="375.787" r="26.542" style="fill:none;stroke:#0a1f40;stroke-width:6.25px;"></circle><path d="M369.787,375.787l110.436,-0" style="fill:none;stroke:#0a1f40;stroke-width:6.25px;"></path><path d="M369.787,424.777l216.541,-0" style="fill:none;stroke:#0a1f40;stroke-width:6.25px;"></path><rect x="369.787" y="472.426" width="216.541" height="59.239" style="fill:none;stroke:#0a1f40;stroke-width:6.25px;"></rect></svg>