
        <svg xmlns="http://www.w3.org/2000/svg" xmlns:xlink="http://www.w3.org/1999/xlink" version="1.1" width="3279.0697674418607" 
        height="1378.1134243355327" viewBox="0 0 3279.0697674418607 1378.1134243355327">
			
			<g transform="scale(13.953488372093023) translate(10, 10)">
				<defs id="SvgjsDefs13511"><linearGradient id="SvgjsLinearGradient13518"><stop id="SvgjsStop13519" stop-color="#2d388a" offset="0"></stop><stop id="SvgjsStop13520" stop-color="#00aeef" offset="1"></stop></linearGradient><linearGradient id="SvgjsLinearGradient13521"><stop id="SvgjsStop13522" stop-color="#2d388a" offset="0"></stop><stop id="SvgjsStop13523" stop-color="#00aeef" offset="1"></stop></linearGradient><linearGradient id="SvgjsLinearGradient13524"><stop id="SvgjsStop13525" stop-color="#2d388a" offset="0"></stop><stop id="SvgjsStop13526" stop-color="#00aeef" offset="1"></stop></linearGradient></defs><g id="SvgjsG13512" featureKey="symbolFeature-0" transform="matrix(0.6,0,0,0.6,154.99999884665013,-0.003136503696442361)" fill="url(#SvgjsLinearGradient13518)"><path xmlns="http://www.w3.org/2000/svg" style="" d="m 44.37686,99.84968 c -8.752555,-0.956 -17.169887,-4.2716 -24.403174,-9.6125 -3.41205,-2.5193 -7.686309,-6.7936 -10.2056575,-10.2056 -5.3732263,-7.2772 -8.6824812,-15.7131 -9.61640011,-24.514 -0.2021713,-1.9052 -0.2021713,-9.1195 0,-11.0247 1.01855351,-9.5984 4.86707041,-18.768 11.06585361,-26.3658 1.316735,-1.6139 5.061099,-5.3814 6.656804,-6.6979 7.681651,-6.3375995 16.898073,-10.2412995 26.613356,-11.27229949 1.90519,-0.2022 9.119525,-0.2022 11.024718,0 8.800899,0.93389999 17.236796,4.24319999 24.513954,9.61639999 3.412052,2.5193995 7.686307,6.7935995 10.205658,10.2056995 5.373224,7.2771 8.682489,15.713 9.616396,24.5139 0.202172,1.9052 0.202172,9.1195 0,11.0247 -1.03135,9.7191 -4.941798,18.9502 -11.273856,26.6134 -2.057491,2.49 -5.981226,6.2109 -8.548198,8.1062 -7.280463,5.3757 -15.709063,8.6821 -24.513954,9.6164 -1.786416,0.1896 -9.388374,0.1869 -11.1355,0 z m 10.847232,-0.2828 c 10.162928,-1.2213 18.950024,-4.9609 26.70633,-11.3657 2.476504,-2.045 7.045253,-6.9008 7.686635,-8.1696 0.135736,-0.2685 0.389883,-0.686 0.564772,-0.9277 0.454205,-0.6276 0.950601,-1.6612 1.313064,-2.7341 0.307587,-0.9103 0.466407,-1.3371 1.135825,-3.0521 0.334889,-0.8579 0.624954,-2.3669 0.628563,-3.2698 0.0012,-0.2975 0.162374,-0.9208 0.448408,-1.7339 0.245609,-0.6982 0.48653,-1.4336 0.535385,-1.6342 0.04885,-0.2006 0.271207,-0.7499 0.494115,-1.2206 0.374369,-0.7905 0.409217,-0.934 0.456735,-1.8811 0.0602,-1.1997 0.05728,-2.4471 -0.0077,-3.2711 -0.02539,-0.3222 -0.05233,-0.7931 -0.05986,-1.0463 -0.01074,-0.3607 -0.07714,-0.5327 -0.306642,-0.7941 -0.161116,-0.1835 -0.292939,-0.3683 -0.292939,-0.4107 0,-0.042 -0.06888,-0.1532 -0.153071,-0.2462 -0.221017,-0.2442 -0.456908,-1.4459 -0.343599,-1.7503 0.109497,-0.2942 0.228509,-1.6125 0.242422,-2.6853 0.0094,-0.7249 -0.004,-0.7799 -0.185084,-0.7636 -0.107372,0.01 -0.230391,-0.045 -0.273379,-0.122 -0.10445,-0.1867 -0.259904,-0.1763 -0.795147,0.053 -0.443878,0.1902 -0.452463,0.1903 -0.637648,0.01 -0.10324,-0.1032 -0.232883,-0.3548 -0.288089,-0.559 -0.197011,-0.7288 -0.666925,-1.0464 -0.983667,-0.6647 -0.06665,0.08 -0.289636,0.1964 -0.495514,0.2581 -0.281409,0.084 -0.388258,0.1756 -0.430433,0.3676 -0.03086,0.1405 -0.18806,0.3429 -0.349349,0.4498 -0.16128,0.1069 -0.317031,0.3042 -0.346098,0.4384 -0.02907,0.1343 -0.135518,0.3979 -0.236547,0.5859 -0.176381,0.3282 -0.206182,0.3421 -0.749808,0.3502 -0.311375,0 -0.672511,-0.03 -0.802522,-0.077 -0.353238,-0.1279 -0.915175,0.1383 -1.673834,0.7929 -0.808294,0.6974 -1.260906,0.8153 -1.852777,0.4827 -0.209041,-0.1175 -0.515527,-0.3822 -0.681073,-0.5882 -0.169084,-0.2104 -0.387071,-0.3745 -0.497403,-0.3745 -0.108036,0 -0.358621,-0.1294 -0.556867,-0.2876 -0.253428,-0.2022 -0.519917,-0.3082 -0.897504,-0.3568 -0.571452,-0.073 -1.118475,-0.4009 -1.223676,-0.7324 -0.06686,-0.2107 -0.522065,-0.4785 -0.813286,-0.4785 -0.301072,0 -0.990082,-0.4967 -0.990082,-0.7138 0,-0.1049 -0.149313,-0.3316 -0.331801,-0.5037 -0.279746,-0.2638 -0.338685,-0.3959 -0.375713,-0.8415 -0.02415,-0.2908 -0.09985,-0.7923 -0.168217,-1.1145 -0.08773,-0.4135 -0.109575,-1.146 -0.07425,-2.49 0.05929,-2.2554 -0.01416,-2.5876 -0.679417,-3.073 -0.482264,-0.3519 -0.567748,-0.5399 -0.708703,-1.5586 -0.08782,-0.6347 -0.07694,-0.9962 0.06026,-2.0018 0.143611,-1.0525 0.205925,-1.2758 0.437878,-1.5689 0.303533,-0.3836 0.570452,-1.4483 0.570741,-2.2767 7.8e-5,-0.4267 0.03663,-0.5292 0.232266,-0.6527 0.803654,-0.5072 1.023638,-0.7001 1.122902,-0.9849 0.188559,-0.5409 0.129073,-0.9239 -0.241781,-1.5567 -0.297078,-0.5069 -0.340824,-0.6542 -0.284196,-0.9573 0.03681,-0.197 0.100872,-0.4021 0.142368,-0.4558 0.0415,-0.054 0.106465,-0.2271 0.144383,-0.3853 0.03792,-0.1582 0.197769,-0.4343 0.35523,-0.6137 0.207128,-0.2359 0.286136,-0.4263 0.285737,-0.6888 -0.0011,-0.7122 -0.166296,-1.0494 -0.725746,-1.481 l -0.527674,-0.4071 -0.406233,0.2072 c -0.374909,0.1913 -0.424161,0.1955 -0.638585,0.055 -0.13269,-0.087 -0.278082,-0.322 -0.338951,-0.5481 -0.06757,-0.2509 -0.181388,-0.4236 -0.310836,-0.4714 -0.150454,-0.056 -0.248648,-0.2463 -0.37287,-0.7238 -0.103271,-0.3969 -0.406123,-1.0494 -0.781383,-1.6834 l -0.612744,-1.0353 0.195496,-0.2621 c 0.107529,-0.1442 0.27873,-0.2761 0.380447,-0.2932 0.101716,-0.017 0.323405,-0.094 0.492639,-0.1709 0.169233,-0.077 0.542735,-0.1432 0.829995,-0.1472 0.582692,-0.01 1.172712,-0.1862 1.234745,-0.3723 0.06034,-0.181 -0.824575,-0.9854 -1.157237,-1.0519 -0.209362,-0.042 -0.287948,-0.1139 -0.288987,-0.265 -0.0021,-0.3088 -1.021555,-1.0335 -1.456972,-1.0358 -0.344482,0 -0.787469,-0.3116 -0.787469,-0.5508 0,-0.2277 -0.633078,-0.6227 -0.998135,-0.6227 -0.37865,0 -0.539743,-0.1374 -0.650787,-0.5552 -0.0938,-0.3529 -0.327296,-0.3868 -1.196748,-0.1737 -0.632922,0.1551 -0.68951,0.1553 -0.857704,0 -0.09904,-0.09 -0.207152,-0.3035 -0.240242,-0.4753 -0.03818,-0.1982 -0.206394,-0.4387 -0.46022,-0.658 l -0.400038,-0.3456 -0.01831,-0.8032 -0.01831,-0.8031 -0.484741,-0.3976 c -0.629304,-0.5162 -0.708687,-0.6889 -0.47628,-1.0365 0.175373,-0.2623 0.196925,-0.3115 0.223462,-0.5094 0.0067,-0.05 0.09808,-0.1184 0.20305,-0.1517 0.166397,-0.053 0.176232,-0.093 0.07674,-0.311 -0.100193,-0.2199 -0.08581,-0.2733 0.117981,-0.4383 0.311774,-0.2525 0.513277,-0.1941 0.609299,0.1764 0.120402,0.4647 0.567756,0.8879 1.014594,0.9598 0.210581,0.034 0.448792,0.1033 0.529346,0.1542 0.08056,0.051 0.249764,0.1371 0.376002,0.1914 0.126245,0.054 0.306149,0.1934 0.399796,0.309 0.211885,0.2617 0.558671,0.1855 0.406835,-0.089 -0.132847,-0.2405 -0.599496,-0.7312 -0.883803,-0.9294 -0.367464,-0.2562 -0.168484,-0.3165 0.653599,-0.198 0.903504,0.1301 1.160658,0.036 1.341945,-0.4913 0.113442,-0.33 0.106223,-0.3642 -0.106427,-0.5035 -0.378017,-0.2477 -0.448823,-0.1932 -0.376377,0.2899 0.05242,0.3496 0.03686,0.4394 -0.07615,0.4394 -0.334857,0 -1.084408,-0.2975 -1.514763,-0.6013 -0.255623,-0.1804 -0.63268,-0.4156 -0.837901,-0.5225 -0.699845,-0.3647 -0.953343,-0.6447 -1.015657,-1.1221 -0.03155,-0.2416 -0.127136,-0.5467995 -0.212417,-0.6780995 -0.08527,-0.1314 -0.141775,-0.3172 -0.125542,-0.413 0.01798,-0.1061 -0.07928,-0.2417 -0.248967,-0.3471 -0.153157,-0.095 -0.535299,-0.4586 -0.849213,-0.8076 -0.688877,-0.7661 -0.823192,-0.8789 -1.046865,-0.8789 -0.240702,0 -1.108186,-0.9535 -1.108186,-1.2181 0,-0.1184 -0.05855,-0.2862 -0.13012,-0.3727 -0.331616,-0.4011 0.216783,-0.852 0.801522,-0.659 0.178248,0.059 0.385711,0.087 0.461048,0.064 0.07533,-0.024 0.257794,-0.07 0.405483,-0.1022 0.147696,-0.032 0.268528,-0.1019 0.268528,-0.1546 0,-0.1305 -0.325952,-0.1213 -0.460197,0.013 -0.14072,0.1407 -0.320976,0.027 -0.320976,-0.2016 0,-0.1276 -0.259568,-0.3111 -0.90323,-0.6388 -0.496771,-0.2528 -0.993206,-0.5424 -1.10318,-0.6436 -0.299775,-0.2758 -1.730867,-0.7509 -2.774833,-0.9213 -0.296127,-0.048 -0.521402,-0.1626 -0.702313,-0.3563 -0.214612,-0.2297 -0.528276,-0.3599 -1.614614,-0.67 -1.434037,-0.40949999 -2.625145,-0.52189999 -3.185488,-0.30079999 -0.299697,0.11819999 -1.069612,0.14729999 -1.172688,0.044 -0.03534,-0.035 -0.01253,-0.12659995 0.05068,-0.20269995 0.08944,-0.1078 0.08384,-0.1585 -0.02526,-0.2285 -0.14447,-0.093 -0.422106,-0.063 -1.140957,0.1213 -0.383024,0.098 -0.462352,0.082 -1.032655,-0.2103 l -0.617759,-0.3169 -3.068507,0.048 c -3.253145,0.051 -4.381725,0.1511 -7.462596,0.6598 -1.962141,0.32399995 -5.291463,1.11609995 -5.51703,1.31269995 -0.08056,0.07 -0.379678,0.2445 -0.66471,0.3873 -0.285032,0.1429 -0.804116,0.4555 -1.153519,0.6947 -0.349403,0.2392 -0.692689,0.4349 -0.762859,0.4349 -0.266422,0 -1.849822,1.4995 -1.786688,1.692 0.02065,0.063 0.187954,0.1263 0.371787,0.1408 0.598388,0.047 0.773653,0.1166 0.773653,0.3061 0,0.1002 -0.09953,0.2474 -0.22117,0.3271 -0.18524,0.1214 -0.21957,0.2269 -0.21131,0.6494 0.01439,0.7363 0.114817,0.7696 0.775182,0.2568 0.313639,-0.2435 0.606513,-0.4428 0.650831,-0.4428 0.04432,0 0.08058,-0.044 0.08058,-0.098 0,-0.054 -0.109852,-0.098 -0.244116,-0.098 -0.523716,0 -0.139897,-0.5163 0.634702,-0.8538 0.603344,-0.2629 1.293591,-0.4395 1.562432,-0.3999 0.338363,0.05 0.469287,0.3213 0.264336,0.5478 -0.235911,0.2606 -0.206913,0.4965 0.07694,0.6259 0.194776,0.089 0.278114,0.081 0.414998,-0.037 0.129013,-0.1114 0.249585,-0.1266 0.488628,-0.062 0.174543,0.047 0.317352,0.1222 0.317352,0.1661 0,0.1062 -0.276663,0.3298 -0.623474,0.5039 -0.154942,0.078 -0.350235,0.246 -0.433986,0.3738 -0.139142,0.2124 -0.138006,0.2428 0.01318,0.3534 0.217279,0.1589 0.208992,0.2271 -0.05425,0.4467 -0.182915,0.1526 -0.19186,0.1838 -0.05342,0.1866 0.09146,0 0.278206,-0.048 0.414998,-0.1101 0.214781,-0.098 0.24871,-0.1755 0.24871,-0.5689 0,-0.6714 0.422779,-0.9878 1.48911,-1.1143 0.422891,-0.05 0.463821,-0.037 0.463821,0.149 0,0.1735 0.04011,0.1941 0.268528,0.1377 0.14769,-0.036 0.306443,-0.1034 0.352785,-0.1486 0.131608,-0.1284 -0.02332,-0.2945 -0.274727,-0.2945 -0.162494,0 -0.245614,-0.071 -0.29004,-0.2481 -0.03425,-0.1365 -0.10685,-0.2206 -0.161336,-0.1869 -0.126007,0.078 -1.68295,-0.049 -1.847161,-0.1503 -0.09699,-0.06 -0.08599,-0.1772 0.05169,-0.551 0.0962,-0.2612 0.205231,-0.5103 0.242297,-0.5535 0.03707,-0.043 0.56808,-0.1178 1.180031,-0.1655 0.611951,-0.048 1.25087,-0.1158 1.419818,-0.1512 0.242544,-0.051 0.35345,-0.018 0.527078,0.1554 0.217155,0.2172 0.224002,0.2177 0.54916,0.043 l 0.329262,-0.1773 0.271939,0.2605 c 0.282681,0.2709 0.692373,0.3506 0.711906,0.1385 0.0062,-0.067 0.0035,-0.1986 -0.006,-0.2922 -0.01112,-0.1096 0.03153,-0.1514 0.12002,-0.1174 0.0755,0.029 0.496676,-0.041 0.935947,-0.1544 0.439271,-0.1138 0.984389,-0.2206 1.211376,-0.2372 0.226986,-0.016 0.682608,-0.087 1.012493,-0.1567 0.495471,-0.1045 0.750224,-0.1036 1.464699,0.01 0.485818,0.074 0.899128,0.1888 0.942991,0.2615 0.126753,0.2101 0.575021,0.1513 1.697058,-0.2227 0.979411,-0.3264 1.115022,-0.3478 1.856105,-0.2928 0.439722,0.033 0.914948,0.1032 1.056051,0.1568 0.141111,0.054 0.484397,0.098 0.762854,0.099 0.838167,0 0.960584,0.064 0.888334,0.4493 -0.05851,0.3118 -0.02233,0.3659 0.694579,1.0377 0.415974,0.3898 0.893161,0.7565 1.060426,0.815 0.168889,0.059 0.320039,0.1893 0.339927,0.2929 0.01969,0.1027 0.118559,0.3033 0.219705,0.4459 0.101138,0.1425 0.183888,0.3546 0.183888,0.4713 0,0.1167 0.129792,0.3419 0.288424,0.5006 0.368331,0.3683 0.688041,0.8167 0.688041,0.965 0,0.063 -0.142126,0.3204 -0.315835,0.5708 -0.17371,0.2505 -0.323125,0.4693 -0.332022,0.4864 -0.0089,0.017 -0.311157,0.093 -0.671676,0.1680995 -0.749316,0.1567 -0.890716,0.2465 -0.972051,0.6168 -0.0799,0.3637 -0.759316,1.0882 -1.020555,1.0882 -0.115504,0 -0.318312,0.071 -0.45069,0.1577 -0.198847,0.1303 -0.240679,0.2369 -0.240679,0.613 0,0.2595 -0.06725,0.5513 -0.156367,0.6785 -0.09539,0.1362 -0.171413,0.4951 -0.194958,0.9203 -0.05361,0.968 -0.08947,1.0482 -0.469125,1.0482 -0.667191,0 -1.950251,-0.5314 -2.350212,-0.9734 -0.09877,-0.1091 -0.234016,-0.1984 -0.30054,-0.1984 -0.06652,0 -0.384314,-0.2577 -0.706203,-0.5727 -0.48921,-0.4787 -0.577178,-0.6149 -0.536057,-0.83 0.02726,-0.1426 0.0046,-0.2573 -0.05088,-0.2573 -0.05503,0 -0.260248,-0.2914 -0.456033,-0.6476 -0.425973,-0.775 -0.434676,-1.143 -0.02813,-1.1898 0.347153,-0.04 0.339849,-0.2059 -0.02441,-0.5548995 -0.350528,-0.3359 -0.364268,-0.4618 -0.07323,-0.6716 l 0.219705,-0.1584 -0.219705,-0.1584 c -0.120839,-0.087 -0.219704,-0.2575 -0.219704,-0.3786 0,-0.1212 -0.06874,-0.2773 -0.152751,-0.3471 -0.09671,-0.08 -0.131924,-0.2097 -0.09599,-0.3529 0.08549,-0.3406 -0.186826,-0.8948 -0.503294,-1.0243 -0.150291,-0.061 -0.595843,-0.1163 -0.990117,-0.1218 -0.628703,-0.01 -0.739779,-0.038 -0.90323,-0.2402 -0.235892,-0.2913 -0.244187,-0.7587 -0.01549,-0.8727 0.09399,-0.047 0.422793,-0.1392 0.730685,-0.2053 0.613707,-0.1318 0.730447,-0.2205 0.519934,-0.3952 -0.179874,-0.1493 -1.014766,0.1209 -1.562795,0.5058 -0.211976,0.1489 -0.464586,0.2707 -0.561357,0.2707 -0.09677,0 -0.357056,0.1758 -0.578416,0.3906 -0.22136,0.2148 -0.481391,0.3906 -0.577847,0.3906 -0.09645,0 -0.262315,0.1193 -0.368577,0.2652 -0.187052,0.2568 -0.219931,0.2645 -1.032715,0.2417 -0.680819,-0.019 -0.927132,-0.07 -1.303043,-0.2699 -0.318484,-0.1693 -0.540238,-0.2266 -0.708657,-0.183 l -0.245123,0.063 0.219704,0.1485 c 0.120838,0.082 0.219705,0.2129 0.219705,0.2916 0,0.1136 0.08302,0.1291 0.401831,0.075 0.23692,-0.04 0.487382,-0.024 0.610291,0.038 0.114653,0.058 0.533365,0.1399 0.930471,0.1814 0.485451,0.051 0.746134,0.1233 0.795637,0.2218 0.04049,0.081 0.150687,0.3332 0.244873,0.5614 0.106215,0.2574 0.234031,0.415 0.336576,0.415 0.09093,0 0.240296,0.083 0.331924,0.1841 0.09163,0.1013 0.296657,0.2101 0.455623,0.2419 0.409208,0.082 0.554461,0.4342 0.348866,0.8464 -0.152219,0.3050995 -0.139168,0.4852995 0.03515,0.4852995 0.142693,0 1.300636,0.8245 1.345046,0.9578 0.04264,0.1279 -0.5275,0.7215 -0.86809,0.9038 -0.159997,0.086 -0.249312,0.045 -0.539168,-0.2448 -0.191073,-0.1911 -0.408922,-0.3474 -0.48411,-0.3474 -0.234268,0 -0.149949,0.3892 0.143991,0.6646 0.459882,0.4309 0.528216,0.6408 0.302176,0.9282 -0.1067,0.1356 -0.220881,0.381 -0.253734,0.5453 -0.09588,0.4794 -0.263469,0.5523 -0.72118,0.3137 -0.21733,-0.1133 -0.450412,-0.2059 -0.517961,-0.2059 -0.06755,0 -0.295191,-0.088 -0.505872,-0.1953 -0.210682,-0.1075 -0.420525,-0.1953 -0.46632,-0.1953 -0.04579,0 -0.295397,-0.2307 -0.554673,-0.5127 -0.45147,-0.4909 -0.491246,-0.5119 -0.940359,-0.4949 -0.571886,0.022 -0.743145,-0.063 -1.013678,-0.5008 -0.163919,-0.2652 -0.187086,-0.3811 -0.106374,-0.5319 0.05675,-0.106 0.103184,-0.2396 0.103184,-0.2968 0,-0.1526 -0.537619,-0.1269 -0.950028,0.045 -0.196832,0.082 -0.415126,0.1276 -0.485096,0.1007 -0.205987,-0.079 -0.147378,0.1143 0.165719,0.5465 0.161117,0.2224 0.292939,0.4827 0.292939,0.5784 0,0.2472 -0.331203,0.3206 -0.665705,0.1476 -0.243721,-0.126 -0.311437,-0.1278 -0.468701,-0.012 -0.175111,0.1286 -0.171097,0.1399 0.08471,0.2375 0.337766,0.129 0.335733,0.1653 -0.01956,0.349 -0.598933,0.3097 -1.073688,0.081 -0.566317,-0.2734 0.212232,-0.148 0.202675,-0.1534 -0.280984,-0.1584 -0.531631,-0.01 -0.767097,-0.1591 -0.662307,-0.4321 0.09694,-0.2527 -0.438753,-0.2006 -0.995096,0.097 -0.263102,0.1406 -0.870327,0.4262 -1.349389,0.6347 -1.013701,0.441 -1.279853,0.6388 -1.119462,0.8321 0.05953,0.072 0.08281,0.1967 0.05174,0.2776 -0.09952,0.2594 0.287461,1.0079 0.539611,1.0438 0.130587,0.019 0.279637,0.1453 0.354011,0.3009 0.07065,0.1479 0.262066,0.338 0.425367,0.4224 0.238741,0.1235 0.283813,0.1952 0.230067,0.3659 -0.159759,0.5074 -0.11966,0.6039 0.243225,0.5854 0.187969,-0.01 0.48457,-0.048 0.659114,-0.084 0.303373,-0.064 0.317351,-0.054 0.317351,0.2314 0,0.164 0.04394,0.3254 0.09765,0.3586 0.05371,0.033 0.09765,0.1875 0.09765,0.3429 l 0,0.2826 0.512645,-0.057 c 0.281954,-0.031 0.666437,-0.1255 0.854407,-0.2089 l 0.341763,-0.1517 -0.291174,-0.039 c -0.160146,-0.022 -0.461026,0.012 -0.668621,0.074 -0.207596,0.062 -0.402371,0.088 -0.432833,0.058 -0.06312,-0.063 0.467008,-1.1614 0.584782,-1.2115 0.442916,-0.1885 1.626053,-1.5722 2.092253,-2.447 0.370434,-0.695 0.410014,-0.7232 0.9088,-0.6453 0.243788,0.038 0.593304,0.067 0.776704,0.065 0.1834,0 0.447046,0.056 0.585879,0.1301 0.286167,0.1522 0.789481,0.6072 0.789481,0.7137 0,0.039 0.09887,0.114 0.219705,0.167 0.126668,0.056 0.232347,0.1997 0.249558,0.3405 0.06738,0.5509 0.237496,0.8858 0.525703,1.0348 l 0.295174,0.1527 0.492394,-0.5109 c 0.589552,-0.6116 0.661525,-0.5919 1.130154,0.3094 0.178779,0.3438 0.387499,0.6945 0.463821,0.7793 0.07632,0.085 0.138767,0.2114 0.138767,0.2814 0,0.1571 0.351754,0.7546 0.626087,1.0634 0.112149,0.1262 0.401643,0.3229 0.643318,0.4369 0.241676,0.114 0.619879,0.3928 0.840449,0.6195 0.375814,0.3861 0.405171,0.4576 0.466649,1.136 0.06812,0.7518 -0.0045,1.1073 -0.271637,1.329 -0.226525,0.188 -0.194137,0.3346 0.126245,0.5714 0.215486,0.1594 0.366526,0.1956 0.633875,0.1522 0.387031,-0.063 0.667293,0.093 0.630406,0.3495 -0.01231,0.086 0.07379,0.3097 0.191324,0.4977 0.265826,0.4251 0.270263,0.7372 0.01641,1.1536 -0.15768,0.2586 -0.250749,0.3174 -0.463454,0.2929 -0.223822,-0.026 -0.266161,-0.077 -0.266161,-0.3236 0,-0.2126 -0.04016,-0.2822 -0.14647,-0.2539 -0.45133,0.1201 -0.655841,0.112 -0.774275,-0.031 -0.09647,-0.1163 -0.313906,-0.1552 -0.873261,-0.1563 -0.882776,0 -1.096854,-0.092 -0.914122,-0.3873 0.07052,-0.1138 0.09655,-0.3073 0.06059,-0.4506 -0.0526,-0.2096 0.01485,-0.3302 0.407547,-0.7289 0.25882,-0.2628 0.438404,-0.5099 0.399075,-0.5493 -0.115598,-0.1156 -0.864398,-0.025 -1.184131,0.1425 -0.182523,0.096 -0.555447,0.1576 -0.978458,0.1618 -0.37594,0 -0.705497,0.05 -0.73235,0.1037 -0.02685,0.053 0.115956,0.1745 0.317352,0.2693 0.201396,0.095 0.366174,0.238 0.366174,0.3181 0,0.1627 -0.34525,0.2004 -0.439409,0.048 -0.03319,-0.054 -0.156623,-0.098 -0.274291,-0.098 -0.187802,-4e-4 -0.496246,-0.2482 -0.99058,-0.7955 -0.199919,-0.2213 -0.728612,-0.094 -1.291942,0.3102 -0.237577,0.1706 -0.547558,0.3411 -0.688847,0.3789 -0.14129,0.038 -0.276622,0.1279 -0.300738,0.2002 -0.0324,0.097 0.01695,0.1138 0.188931,0.063 0.831589,-0.2433 1.298725,-0.3521 1.511795,-0.3521 0.348007,0 0.816828,0.2663 0.909413,0.5166 0.05819,0.1573 0.165988,0.217 0.40996,0.2271 0.421519,0.018 1.030071,0.1812 1.200825,0.3229 0.07256,0.06 0.156982,0.2347 0.187595,0.3878 0.03061,0.1531 0.189703,0.4124 0.353531,0.5762 0.376365,0.3763 0.373541,0.4708 -0.01948,0.6514 -0.174544,0.08 -0.383263,0.1879 -0.463821,0.2394 -0.257848,0.1647 -1.005225,0.4662 -1.708815,0.6894 -0.375939,0.1193 -0.878099,0.3667 -1.115911,0.5499 -0.305878,0.2357 -0.49158,0.315 -0.634702,0.2711 -0.274624,-0.084 -0.28634,-0.1003 -0.308742,-0.4238 -0.03967,-0.5731 -0.285727,-0.63 -1.065334,-0.2465 -0.268528,0.1321 -0.599293,0.2406 -0.735034,0.2411 -0.325177,0 -0.680841,0.2576 -0.680841,0.491 0,0.3093 0.39975,1.2771 0.551555,1.3354 0.07805,0.03 0.238539,-0.034 0.356644,-0.1418 0.550476,-0.503 1.240251,-0.6206 1.537768,-0.2621 0.26688,0.3216 -0.489457,0.9219 -1.161501,0.9219 -0.156282,0 -0.432325,0.061 -0.613427,0.136 -0.257671,0.1064 -0.437264,0.1135 -0.825859,0.033 -0.44011,-0.091 -0.559837,-0.077 -1.052794,0.1274 -0.342576,0.142 -0.651091,0.3549 -0.803237,0.5544 -0.135863,0.1781 -0.486105,0.5005 -0.778316,0.7163 -0.54521,0.4028 -1.011704,1.1359 -1.16062,1.8238 -0.114024,0.5268 -1.25813,1.4973 -2.453055,2.0809 -1.083454,0.5291 -1.518326,0.922 -1.945879,1.7582 -0.236317,0.4621 -0.439469,1.354 -0.439469,1.9294 0,0.1843 -0.06557,0.5387 -0.145707,0.7876 -0.08014,0.2489 -0.172117,0.7127 -0.204395,1.0306 -0.04601,0.4532 -0.116415,0.6358 -0.325809,0.8452 -0.429263,0.4293 -1.401918,0.611 -2.027423,0.3788 -0.405658,-0.1506 -0.517685,-0.3432 -0.412615,-0.7096 0.178432,-0.6222 0.106003,-1.9443 -0.14432,-2.6344 -0.275895,-0.7607 -0.816524,-1.6316 -1.012811,-1.6316 -0.07647,0 -0.250759,0.088 -0.387309,0.1953 -0.136551,0.1074 -0.366345,0.1953 -0.510652,0.1953 -0.308072,0 -1.108137,0.2428 -1.49909,0.4549 -0.288328,0.1565 -0.557053,0.1468 -2.313351,-0.083 -0.915988,-0.12 -1.675968,-0.049 -1.902941,0.1782 -0.0812,0.081 -0.147637,0.2777 -0.147637,0.4367 0,0.4013 -0.224888,0.8993 -0.628688,1.392 -0.188362,0.2299 -0.464507,0.6786 -0.613656,0.997 -0.263119,0.5619 -0.271125,0.628 -0.269403,2.2238 0.0014,1.343 0.02858,1.6655 0.147813,1.7577 0.08032,0.062 0.223193,0.2335 0.317494,0.3809 0.0943,0.1474 0.322412,0.3311 0.506915,0.4082 0.301999,0.1262 0.387026,0.1215 0.852489,-0.047 0.729383,-0.2637 0.983268,-0.5791 0.902029,-1.1209 -0.139104,-0.9276 0.317753,-1.5103 1.184159,-1.5103 0.671948,0 0.973884,-0.122 1.369013,-0.5534 0.320217,-0.3496 0.325442,-0.3513 0.645261,-0.2033 0.177338,0.082 0.417484,0.1777 0.53366,0.2127 0.175909,0.053 0.219448,0.1568 0.260398,0.6211 0.02704,0.3067 0.07887,0.6942 0.115172,0.8611 0.08385,0.3856 -0.219725,1.0115 -0.633411,1.3061 -0.260614,0.1856 -0.29515,0.2669 -0.29515,0.6952 0,0.2668 -0.06249,0.5823 -0.138861,0.7013 -0.07637,0.1189 -0.169698,0.428 -0.207389,0.6868 -0.04374,0.3003 -0.134793,0.5119 -0.251725,0.585 -0.187705,0.1172 -0.258209,0.5556 -0.08936,0.5556 0.05161,0 0.177395,0.09 0.279516,0.1993 0.14301,0.1535 0.29533,0.1958 0.662917,0.1842 0.262486,-0.01 0.749974,0.056 1.083308,0.1434 0.543884,0.1423 0.649071,0.1436 1.025288,0.013 0.664331,-0.2314 1.101725,-0.1941 1.391741,0.1186 0.283096,0.3053 0.342871,0.874 0.101599,0.9666 -0.08056,0.031 -0.14647,0.1232 -0.14647,0.2051 0,0.082 -0.09215,0.298 -0.204789,0.4803 -0.112634,0.1822 -0.182818,0.3886 -0.155965,0.4586 0.02685,0.07 -0.07873,0.3171 -0.234621,0.5492 -0.155894,0.2322 -0.283517,0.4704 -0.283604,0.5294 -7.9e-5,0.059 -0.174119,0.2711 -0.386735,0.4711 -0.672645,0.6329 -0.721303,0.7561 -0.496426,1.2567 0.225039,0.5009 0.806877,1.1625 1.022305,1.1625 0.08192,0 0.217109,0.1319 0.300425,0.293 0.08332,0.1611 0.21845,0.2929 0.300296,0.2929 0.179747,0 0.687266,-0.2531 1.00669,-0.502 0.337608,-0.2631 0.653397,-0.2262 0.954272,0.1114 0.143556,0.1611 0.303348,0.293 0.355094,0.293 0.05175,0 0.263204,0.1528 0.469908,0.3395 0.446341,0.4032 0.604722,0.3727 0.881698,-0.1703 0.110134,-0.2158 0.329546,-0.5013 0.48758,-0.6342 0.158034,-0.133 0.347448,-0.3581 0.42092,-0.5001 0.09723,-0.1881 0.283345,-0.3045 0.683885,-0.4278 0.302665,-0.093 0.669399,-0.1688 0.814961,-0.168 0.190664,0 0.362946,-0.1127 0.616187,-0.4071 0.323269,-0.3758 0.393912,-0.4107 0.878819,-0.434 0.290012,-0.014 0.669229,-0.055 0.842704,-0.092 0.289831,-0.061 0.358102,-0.022 0.841811,0.4813 0.289519,0.3013 0.570044,0.5479 0.623388,0.5479 0.05334,0 0.327408,0.2268 0.609034,0.504 0.495207,0.4875 0.52236,0.5003 0.825771,0.3906 0.391707,-0.1417 0.902402,-0.1468 0.98695,-0.01 0.03515,0.057 0.158712,0.091 0.274577,0.076 0.115864,-0.015 0.352553,0.031 0.525976,0.103 0.385508,0.1596 0.661489,0.081 0.561988,-0.161 -0.177206,-0.4303 -0.162666,-0.4868 0.153841,-0.5971 0.341411,-0.119 1.149594,-0.1474 1.405077,-0.049 0.08694,0.033 0.223533,0.1873 0.303545,0.342 l 0.145478,0.2813 0.363554,-0.1573 c 0.199956,-0.087 0.433902,-0.1779 0.519881,-0.2031 0.228603,-0.067 0.478378,0.2317 0.478378,0.5719 0,0.4153 0.258782,0.9129 0.541762,1.0419 0.142014,0.065 0.23941,0.1914 0.23941,0.3114 0,0.139 0.107049,0.2471 0.341763,0.3452 0.18797,0.079 0.341763,0.2081 0.341763,0.288 0,0.08 0.07755,0.1451 0.172335,0.1451 0.23926,0 1.377859,0.5636 1.728098,0.8554 0.248979,0.2074 0.355399,0.2332 0.764069,0.1848 0.286956,-0.034 0.546008,-0.012 0.654786,0.056 0.128191,0.08 0.245468,0.083 0.407546,0.011 0.33035,-0.1474 1.333281,0.2011 1.448145,0.5032 0.04619,0.1215 0.218845,0.2679 0.383665,0.3254 0.228985,0.08 0.293971,0.1566 0.275504,0.3253 -0.01699,0.1553 0.03386,0.2309 0.171116,0.2546 0.386477,0.067 1.004736,0.4374 1.108272,0.6646 0.05812,0.1276 0.257537,0.2954 0.443152,0.373 0.185622,0.078 0.410428,0.2523 0.499559,0.3883 0.08914,0.1361 0.308743,0.3339 0.488007,0.4397 0.191746,0.1131 0.3392,0.286 0.358167,0.4199 0.0219,0.1546 0.16696,0.2956 0.452455,0.4397 0.231126,0.1166 0.61058,0.3875 0.843245,0.602 0.232664,0.2145 0.554546,0.4579 0.715296,0.5411 0.160749,0.083 0.31789,0.2179 0.349207,0.2995 0.04067,0.106 0.138494,0.1321 0.34231,0.091 0.234094,-0.047 0.356332,0.01 0.68037,0.2998 0.217252,0.1963 0.530338,0.5678 0.695751,0.8255 0.361144,0.5628 0.837331,0.8096 1.525989,0.7909 1.531348,-0.042 1.72718,-0.014 2.039321,0.2836 0.163718,0.1562 0.451463,0.349 0.639429,0.4283 0.187973,0.079 0.52758,0.3257 0.754683,0.5475 0.490584,0.4793 0.804185,0.6167 1.387393,0.6082 0.529736,-0.01 0.689674,0.1123 0.689674,0.5177 0,0.1712 0.109856,0.5916 0.244116,0.9342 0.293846,0.7498 0.300634,0.9055 0.0545,1.249 -0.104286,0.1455 -0.260161,0.4861 -0.346387,0.757 -0.127362,0.4 -0.346512,0.6859 -1.168118,1.5235 -0.556242,0.5672 -1.099126,1.2024 -1.20642,1.4117 -0.107286,0.2093 -0.306899,0.4771 -0.443581,0.5952 -0.429832,0.3711 -0.567217,1.5037 -0.253513,2.0899 0.05424,0.1014 7e-5,0.3933 -0.154048,0.83 -0.143907,0.4079 -0.238515,0.8948 -0.239765,1.2339 -0.002,0.5437 -0.01323,0.5673 -0.380954,0.7995 -0.401859,0.2536 -0.792867,0.9119 -0.792867,1.3347 0,0.5304 -0.619891,1.0059 -1.427616,1.0952 -0.765353,0.084 -2.011933,0.6006 -2.259353,0.9352 -0.114614,0.155 -0.541056,0.4462 -0.947648,0.6471 -0.847159,0.4186 -1.254438,0.8592 -1.472284,1.5928 -0.120238,0.4049 -0.293572,0.6266 -1.070612,1.3695 -0.908949,0.8689 -0.92715,0.8952 -0.92715,1.3367 0,0.3671 -0.04737,0.4895 -0.256491,0.6626 -0.141071,0.1168 -0.349793,0.3009 -0.463821,0.4092 -0.114035,0.1083 -0.383094,0.3161 -0.597917,0.4619 -0.214822,0.1457 -0.606127,0.4856 -0.86957,0.7552 -0.263442,0.2695 -0.520745,0.4901 -0.571787,0.4901 -0.05103,0 -0.226243,0.1123 -0.389344,0.2495 -0.163093,0.1373 -0.498997,0.3524 -0.746441,0.478 -0.247444,0.1256 -0.670691,0.3758 -0.94054,0.556 -0.269856,0.1802 -0.889443,0.5424 -1.376866,0.8048 -0.820899,0.4419 -0.914288,0.5238 -1.266997,1.1112 -0.209425,0.3488 -0.479642,0.7403 -0.600479,0.87 -0.120838,0.1297 -0.219705,0.3242 -0.219705,0.4322 0,0.108 -0.13039,0.3155 -0.289756,0.461 -0.2059,0.1881 -0.27419,0.3242 -0.235968,0.4703 0.04281,0.1637 -0.0077,0.2272 -0.247301,0.3107 -0.165597,0.058 -0.301087,0.1488 -0.301087,0.2025 0,0.054 0.351528,0.33 0.781172,0.6142 0.429645,0.2841 0.781173,0.5615 0.781173,0.6164 0,0.2262 -0.411223,0.3575 -0.91417,0.2917 -1.870086,-0.2445 -3.281834,-0.6317 -3.724041,-1.0214 -0.107412,-0.095 -0.311501,-0.1995 -0.453536,-0.233 -0.444367,-0.1048 -1.215939,-1.1028 -1.450802,-1.8765 -0.11283,-0.3717 -0.240817,-0.7909 -0.284416,-0.9315 -0.04505,-0.1453 -0.03882,-0.328 0.01444,-0.4231 0.06872,-0.1228 0.04336,-0.2239 -0.0951,-0.3791 -0.120774,-0.1353 -0.229236,-0.4841 -0.301003,-0.9681 -0.06171,-0.4161 -0.225401,-1.0255 -0.363764,-1.3542 -0.249391,-0.5925 -0.249932,-0.5995 -0.06261,-0.8058 0.103931,-0.1145 0.223696,-0.34 0.266146,-0.5011 0.121081,-0.4595 0.05691,-1.8082 -0.110259,-2.3171 -0.09263,-0.282 -0.122363,-0.5482 -0.07635,-0.6835 0.04145,-0.122 0.06171,-0.2656 0.04501,-0.3194 -0.199003,-0.64 -0.198922,-0.6413 0.04601,-0.7344 0.286357,-0.1089 0.328318,-0.5239 0.06771,-0.6697 -0.136713,-0.077 -0.17524,-0.2483 -0.192677,-0.8593 -0.101168,-3.5445 -0.345468,-5.0195 -0.8929,-5.3911 -0.127354,-0.086 -0.325175,-0.2479 -0.439601,-0.3588 -0.269072,-0.2607 -1.163894,-0.7925 -2.209803,-1.3131 -0.891021,-0.4436 -1.855488,-1.118 -2.16931,-1.5169 -0.132444,-0.1684 -0.174292,-0.3235 -0.132351,-0.4907 0.04716,-0.1878 -0.02959,-0.3713 -0.332023,-0.7937 -0.216348,-0.3021 -0.393359,-0.6012 -0.393359,-0.6647 0,-0.063 -0.09273,-0.1992 -0.206065,-0.3015 -0.113336,-0.1023 -0.355728,-0.4829 -0.538649,-0.8458 -0.18292,-0.3629 -0.550574,-0.9006 -0.817009,-1.1948 -0.266433,-0.2942 -0.509012,-0.6564 -0.539061,-0.8048 -0.130272,-0.6437 -0.200394,-0.759 -0.526018,-0.8649 -0.21255,-0.069 -0.450591,-0.2752 -0.676598,-0.5859 -0.285047,-0.3917 -0.349926,-0.5683 -0.355517,-0.9674 -0.0038,-0.2685 -0.04308,-0.5457 -0.08736,-0.616 -0.04605,-0.073 -0.0083,-0.3947 0.08826,-0.7513 0.152031,-0.5617 0.154597,-0.6702 0.02585,-1.0928 -0.08143,-0.2674 -0.139556,-0.826 -0.135077,-1.2983 l 0.0079,-0.829 0.358725,-0.1692 c 0.197299,-0.093 0.385779,-0.2543 0.418845,-0.3585 0.03307,-0.1042 0.251753,-0.3464 0.485972,-0.5384 0.286534,-0.2348 0.468961,-0.4842 0.557621,-0.7624 0.08944,-0.2807 0.241409,-0.4871 0.473094,-0.6426 0.428441,-0.2875 0.577754,-0.8471 0.578718,-2.1691 7.03e-4,-0.9324 -0.04529,-1.1 -0.431811,-1.574 -0.402603,-0.4937 -1.095654,-0.7577 -1.265918,-0.4822 -0.03128,0.051 -0.252442,0.1213 -0.491483,0.1572 -0.623105,0.093 -1.349841,-0.1863 -1.729473,-0.6656 -0.161472,-0.2039 -0.422394,-0.4373 -0.579827,-0.5187 -0.185948,-0.096 -0.379569,-0.3427 -0.5526,-0.7036 -0.242768,-0.5064 -0.300098,-0.5611 -0.647303,-0.6175 -0.522587,-0.085 -0.664139,-0.3077 -0.587166,-0.9237 0.06091,-0.4875 0.05447,-0.5034 -0.414615,-1.0256 -0.262066,-0.2917 -0.547213,-0.6428 -0.633663,-0.7801 -0.112384,-0.1785 -0.328008,-0.2972 -0.756597,-0.4164 -0.697288,-0.1938 -1.224578,-0.5113 -1.366835,-0.823 -0.06251,-0.1369 -0.186609,-0.2197 -0.329475,-0.2197 -0.230524,0 -0.457286,-0.2021 -0.80667,-0.7188 -0.351088,-0.5193 -0.816064,-1.2817 -0.913575,-1.498 -0.105677,-0.2344 -0.575955,-0.5173 -0.859926,-0.5173 -0.09813,0 -0.277936,0.07 -0.399573,0.1549 -0.206662,0.1448 -0.241684,0.1397 -0.534371,-0.077 -0.172268,-0.1273 -0.434153,-0.284 -0.581967,-0.3482 -0.147813,-0.064 -0.345548,-0.24 -0.439409,-0.3906 -0.09386,-0.1506 -0.383081,-0.4681 -0.642709,-0.7056 -0.259627,-0.2374 -0.551582,-0.5875 -0.648786,-0.7778 -0.09721,-0.1904 -0.355641,-0.4899 -0.574303,-0.6654 -0.262896,-0.2112 -0.437597,-0.4529 -0.515742,-0.7137 -0.065,-0.217 -0.196833,-0.4366 -0.29297,-0.488 -0.278344,-0.149 -0.410558,-0.805 -0.270852,-1.3438 0.06491,-0.2504 0.113481,-0.653 0.107933,-0.8947 -0.0055,-0.2417 0.0308,-0.6449 0.08077,-0.896 0.07705,-0.3872 0.05415,-0.5578 -0.15068,-1.1225 -0.132846,-0.3663 -0.241537,-0.7861 -0.241537,-0.9329 0,-0.1468 -0.06989,-0.4416 -0.155303,-0.6551 -0.140462,-0.3511 -0.141117,-0.4515 -0.0069,-1.0517 0.163043,-0.7288 0.118935,-1.5221 -0.09448,-1.6992 -0.07367,-0.061 -0.133946,-0.1717 -0.133946,-0.2457 0,-0.1747 -0.140356,-0.1719 -0.287849,0.01 -0.07149,0.086 -0.110775,0.435 -0.101724,0.9033 0.0081,0.4196 -0.03074,1.1542 -0.08634,1.6325 -0.07274,0.6257 -0.0704,0.9843 0.0084,1.2787 0.121468,0.4542 0.06084,0.7322 -0.159644,0.7322 -0.09178,0 -0.167436,-0.1345 -0.205862,-0.3661 -0.03341,-0.2014 -0.147602,-0.5901 -0.25375,-0.8637 -0.167877,-0.4328 -0.17809,-0.5568 -0.07845,-0.9525 0.08447,-0.3354 0.08625,-0.5253 0.0068,-0.723 -0.113275,-0.2819 -0.212711,-1.6458 -0.13524,-1.8549 0.02487,-0.067 0.145661,-0.1221 0.268433,-0.1221 0.288527,0 0.374956,-0.2382 0.237508,-0.6547 -0.0854,-0.2588 -0.07732,-0.4762 0.0366,-0.986 0.08039,-0.3597 0.221909,-1.0055 0.314483,-1.4352 0.09257,-0.4296 0.228701,-0.8998 0.302506,-1.0448 0.183287,-0.3602 0.161809,-0.9385 -0.04959,-1.3353 -0.171885,-0.3225 -0.170629,-0.3452 0.05948,-1.0741 0.129288,-0.4095 0.280927,-0.8764 0.336974,-1.0375 0.05605,-0.1611 0.1164,-0.4262 0.134115,-0.5891 0.04201,-0.3862 1.255243,-2.5748 1.863513,-3.3615 0.261236,-0.3379 0.870442,-1.0494 1.353793,-1.5811 0.48335,-0.5317 1.098524,-1.2711 1.367052,-1.6431 0.268528,-0.372 0.603665,-0.7653 0.744749,-0.874 0.150119,-0.1156 0.326129,-0.4112 0.424349,-0.7126 0.09231,-0.2833 0.245033,-0.6908 0.339385,-0.9056 0.09435,-0.2148 0.198871,-0.4681 0.232262,-0.5629 0.03339,-0.095 0.17169,-0.2146 0.307328,-0.2661 0.135641,-0.052 0.246619,-0.1398 0.246619,-0.196 0,-0.056 0.105009,-0.15 0.233349,-0.2084 0.356353,-0.1624 0.595878,-0.7684 0.303711,-0.7684 -0.08056,0 -0.146186,-0.033 -0.145838,-0.073 0.0012,-0.1421 0.797508,-1.0009 0.928056,-1.0009 0.07278,0 0.475811,-0.3776 0.895633,-0.8391 0.419822,-0.4616 1.106488,-1.1915 1.525924,-1.6221 0.988131,-1.0144995 1.261953,-1.4292995 1.221605,-1.8503995 -0.03424,-0.3574 -0.0047,-0.3508 -0.910105,-0.2031 -0.526177,0.086 -1.037781,0.3981 -2.734103,1.6683995 -1.891774,1.4166 -3.243638,2.607 -5.329985,4.6934 -2.841733,2.8417 -4.432208,4.78 -6.4738903,7.8898 -3.8533351,5.8691 -6.4244844,12.4524 -7.52368841,19.2642 -0.532776,3.3016 -0.5923302,4.1066 -0.5923302,8.007 0,3.9004 0.059554,4.7054 0.5923302,8.007 1.40495651,8.7065 5.15517071,16.8904 10.96266671,23.9234 1.194544,1.4466 4.818881,5.071 6.265498,6.2655 7.807671,6.4472 16.847979,10.2769 26.803978,11.3549 0.751878,0.081 1.542815,0.1656 1.757638,0.187 0.214822,0.022 1.92852,0.028 3.808216,0.014 2.455365,-0.018 3.802536,-0.072 4.784681,-0.1898 z m -4.919511,-72.9968 c -0.27177,-0.2148 -0.532401,-0.3906 -0.579177,-0.3906 -0.04678,0 -0.19088,-0.088 -0.320226,-0.1955 -0.670028,-0.5571 -0.9344,-0.7537 -1.08958,-0.8102 -0.09398,-0.034 -0.170881,-0.1296 -0.170881,-0.2118 0,-0.1842 0.09103,-0.1853 0.330295,0 0.159336,0.1206 0.220619,0.1201 0.460072,0 0.255349,-0.1321 0.284198,-0.128 0.381087,0.053 0.160484,0.2999 0.318632,0.2408 0.245601,-0.092 -0.0562,-0.2559 -0.02207,-0.3134 0.309594,-0.5214 0.205011,-0.1287 0.490662,-0.263 0.634773,-0.2986 0.14411,-0.036 0.290674,-0.1549 0.325694,-0.2653 0.0907,-0.2858 0.602417,-0.2214 0.84601,0.1065 0.428699,0.5769 0.08007,2.6126 -0.500677,2.9235 -0.282457,0.1511 -0.337592,0.1328 -0.872585,-0.2901 z m -6.398662,0.2204 c -0.196855,-0.1969 0.415925,-1.1032 0.741376,-1.0966 0.07074,0 0.280627,0.1287 0.466418,0.2827 0.291795,0.2419 0.320089,0.3014 0.207748,0.4368 -0.07153,0.086 -0.229001,0.1567 -0.349937,0.1567 -0.120935,0 -0.397199,0.063 -0.613918,0.139 -0.216719,0.076 -0.419979,0.1131 -0.451687,0.081 z m 1.626752,-0.7302 c -0.270713,-0.1305 -0.288629,-0.369 -0.02773,-0.369 0.105589,0 0.345154,-0.073 0.532366,-0.1623 0.279709,-0.1334 0.367332,-0.14 0.491546,-0.037 0.258291,0.2144 0.168767,0.3701 -0.305644,0.5318 -0.251243,0.086 -0.459963,0.1526 -0.463821,0.149 -0.0039,0 -0.105885,-0.054 -0.226722,-0.1126 z m 1.546139,-1.1398 c -0.5106,-0.6447 -0.30946,-0.9728 0.321247,-0.5241 0.365268,0.2599 0.457532,0.5665 0.236898,0.7871 -0.176123,0.1761 -0.230673,0.1504 -0.558145,-0.263 z m -12.082361,-9.6252 c 0.035,-0.091 0.06363,-0.1842 0.06363,-0.2067 0,-0.022 0.06591,-0.041 0.14647,-0.041 0.214756,0 0.178536,0.1713 -0.06363,0.3009 -0.181399,0.097 -0.201407,0.09 -0.14647,-0.053 z m 7.615207,-0.2052 c -0.08531,-0.2223 0.142213,-0.4274 0.262717,-0.2368 0.05065,0.08 0.09276,0.2006 0.09358,0.2677 0.0021,0.1758 -0.286619,0.1507 -0.356298,-0.031 z m -4.524534,-1.3079 c 0,-0.1079 0.391001,-0.492 0.500881,-0.492 0.195792,0 0.191006,0.2453 -0.0079,0.4064 -0.238864,0.1934 -0.492952,0.2375 -0.492952,0.086 z m 1.562344,-1.1267 c 0,-0.081 0.0868,-0.1465 0.195293,-0.1465 0.108497,0 0.195294,0.065 0.195294,0.1465 0,0.081 -0.0868,0.1464 -0.195294,0.1464 -0.108496,0 -0.195293,-0.065 -0.195293,-0.1464 z m 20.279549,-0.9033 c -0.09373,-0.094 -0.374744,-0.2395 -0.624461,-0.3235 -0.556125,-0.1869 -0.69515,-0.3728 -0.53758,-0.7186 0.08983,-0.1971 0.185146,-0.2517 0.439871,-0.2517 0.178857,0 0.408404,0.061 0.510105,0.1352 0.161508,0.1181 0.228751,0.1083 0.531307,-0.078 0.235016,-0.1444 0.535533,-0.2209 0.934594,-0.2378 0.560398,-0.024 0.608198,-0.01 1.011213,0.3541 0.531267,0.4761 0.505512,0.6693 -0.135932,1.02 -0.406632,0.2223 -0.608455,0.2666 -1.222848,0.2685 -0.572904,0 -0.773571,-0.035 -0.906269,-0.1686 z m -48.18205,20.9611 c 0.196102,-0.3445 0.240577,-1.3585 0.05959,-1.3585 -0.238105,0 -0.370792,0.3552 -0.373834,1.0009 -0.0017,0.3625 0.02985,0.6588 0.07013,0.6585 0.04028,-4e-4 0.150131,-0.1358 0.244116,-0.3009 z M 39.177957,9.5155805 c 0.216596,-0.196 0.23003,-0.4553 0.0321,-0.6195 -0.292783,-0.243 -0.175002,-0.6301 0.33758,-1.1096 0.266227,-0.249 0.459738,-0.4528 0.430026,-0.4528 -0.02971,0 -0.291658,0.069 -0.582101,0.1536 -0.378233,0.1099 -0.597234,0.2441 -0.77179,0.473 -0.309381,0.4056 -0.307149,0.5788 0.01014,0.7867 0.195864,0.1283 0.242772,0.2243 0.205351,0.42 -0.04894,0.2561 0.0034,0.5103 0.105025,0.5103 0.0303,0 0.135455,-0.073 0.23367,-0.1617 z m 3.163765,-4.1906 c -0.08951,-0.09 -0.190401,-0.1351 -0.224202,-0.1013 -0.0338,0.034 0.02315,0.1233 0.126555,0.199 0.243123,0.1777 0.308096,0.1128 0.09765,-0.098 z m 22.262188,-2.7302 c -0.104247,-0.079 -0.321757,-0.1434 -0.48335,-0.1434 -0.496599,0 -0.05764,0.256 0.477601,0.2785 0.192645,0.01 0.192723,0.01 0.0058,-0.1351 z m -1.084744,-0.2241 c -0.163866,-0.1425 -0.87678,-0.3296 -1.123294,-0.2948 -0.193762,0.027 -0.146666,0.065 0.249358,0.1986 0.519276,0.1753 1.029515,0.2315 0.873936,0.096 z" fill="url(#SvgjsLinearGradient13518)"></path></g><g id="SvgjsG13513" featureKey="nameFeature-0" transform="matrix(2.2171255719353544,0,0,2.2171255719353544,-8.099159443634639,-25.245806465217917)" fill="url(#SvgjsLinearGradient13521)"><path d="M20.02 16.934 l-10.469 0 l0 6.4063 l9.2773 0 l0 5.0977 l-9.2773 0 l0 6.3867 l10.469 0 l0 5.1758 l-16.367 0 l0 -28.223 l16.367 0 l0 5.1563 z M35.42934375 40.39063 c-6.0547 0 -10.781 -2.9102 -11.641 -8.2031 l6.0547 -1.3867 c0.39063 3.1641 2.7148 4.8047 5.8203 4.8047 c2.3828 0 4.2773 -1.0547 4.2578 -3.4375 c-0.019531 -2.6563 -3.1445 -3.4961 -6.582 -4.5508 c-4.1406 -1.2891 -8.5742 -2.8125 -8.5742 -8.0078 c0 -5.2539 4.2969 -8.2227 9.9609 -8.2227 c4.9609 0 9.9609 2.0117 11.094 7.4219 l-5.6641 1.4063 c-0.52734 -2.8125 -2.4219 -4.043 -5.0781 -4.043 c-2.3633 0 -4.375 0.97656 -4.375 3.3008 c0 2.168 2.7734 2.8906 5.9766 3.8477 c4.2578 1.2891 9.2969 2.9297 9.2969 8.5547 c0 5.9961 -5.0195 8.5156 -10.547 8.5156 z M60.761375 40.39063 c-6.0547 0 -10.781 -2.9102 -11.641 -8.2031 l6.0547 -1.3867 c0.39063 3.1641 2.7148 4.8047 5.8203 4.8047 c2.3828 0 4.2773 -1.0547 4.2578 -3.4375 c-0.019531 -2.6563 -3.1445 -3.4961 -6.582 -4.5508 c-4.1406 -1.2891 -8.5742 -2.8125 -8.5742 -8.0078 c0 -5.2539 4.2969 -8.2227 9.9609 -8.2227 c4.9609 0 9.9609 2.0117 11.094 7.4219 l-5.6641 1.4063 c-0.52734 -2.8125 -2.4219 -4.043 -5.0781 -4.043 c-2.3633 0 -4.375 0.97656 -4.375 3.3008 c0 2.168 2.7734 2.8906 5.9766 3.8477 c4.2578 1.2891 9.2969 2.9297 9.2969 8.5547 c0 5.9961 -5.0195 8.5156 -10.547 8.5156 z"></path></g><g id="SvgjsG13514" featureKey="sloganFeature-0" transform="matrix(0.3975156243972303,0,0,0.3975156243972303,0.27397754184722967,70.73684410012959)" fill="url(#SvgjsLinearGradient13524)"><path d="M10.01 8.467 l-5.2344 0 l0 3.2031 l4.6387 0 l0 2.5488 l-4.6387 0 l0 3.1934 l5.2344 0 l0 2.5879 l-8.1836 0 l0 -14.111 l8.1836 0 l0 2.5781 z M28.72361328125 20 l-1.0254 -2.9102 l-5.9277 0 l-1.0254 2.9102 l-2.998 0 l5.1953 -14.111 l3.584 0 l5.1953 14.111 l-2.998 0 z M22.62941328125 14.6387 l4.209 0 l-2.0996 -5.9863 z M47.5439015625 20 l-3.6719 -6.2109 l-0.84961 0 l0 6.2109 l-2.9297 0 l0 -14.111 l5.1172 0 c3.1934 0 4.541 1.8848 4.541 4.2188 c0 1.8945 -1.0742 3.125 -2.9883 3.5352 l4.248 6.3574 l-3.4668 0 z M43.0225015625 8.32 l0 3.3691 l1.7285 0 c1.5625 0 2.1973 -0.66406 2.1973 -1.6797 c0 -1.0059 -0.63477 -1.6895 -2.1973 -1.6895 l-1.7285 0 z M67.59544921875 5.888999999999999 l0 2.5781 l-3.3496 0 l0 11.533 l-2.9004 0 l0 -11.533 l-3.3691 0 l0 -2.5781 l9.6191 0 z M84.96128125 5.888999999999999 l2.9297 0 l0 14.111 l-2.9297 0 l0 -5.8008 l-5.9668 0 l0 5.8008 l-2.9297 0 l0 -14.111 l2.9297 0 l0 5.7617 l5.9668 0 l0 -5.7617 z M113.9306921875 20.19531 c-3.0273 0 -5.3906 -1.4551 -5.8203 -4.1016 l3.0273 -0.69336 c0.19531 1.582 1.3574 2.4023 2.9102 2.4023 c1.1914 0 2.1387 -0.52734 2.1289 -1.7188 c-0.0097656 -1.3281 -1.5723 -1.748 -3.291 -2.2754 c-2.0703 -0.64453 -4.2871 -1.4063 -4.2871 -4.0039 c0 -2.627 2.1484 -4.1113 4.9805 -4.1113 c2.4805 0 4.9805 1.0059 5.5469 3.7109 l-2.832 0.70313 c-0.26367 -1.4063 -1.2109 -2.0215 -2.5391 -2.0215 c-1.1816 0 -2.1875 0.48828 -2.1875 1.6504 c0 1.084 1.3867 1.4453 2.9883 1.9238 c2.1289 0.64453 4.6484 1.4648 4.6484 4.2773 c0 2.998 -2.5098 4.2578 -5.2734 4.2578 z M138.74744921875 5.888999999999999 l-4.6387 7.3535 l0 6.7578 l-2.9395 0 l0 -6.6895 l-4.668 -7.4219 l3.2422 0 l2.8809 4.8047 l2.8906 -4.8047 l3.2324 0 z M151.66995 20.19531 c-3.0273 0 -5.3906 -1.4551 -5.8203 -4.1016 l3.0273 -0.69336 c0.19531 1.582 1.3574 2.4023 2.9102 2.4023 c1.1914 0 2.1387 -0.52734 2.1289 -1.7188 c-0.0097656 -1.3281 -1.5723 -1.748 -3.291 -2.2754 c-2.0703 -0.64453 -4.2871 -1.4063 -4.2871 -4.0039 c0 -2.627 2.1484 -4.1113 4.9805 -4.1113 c2.4805 0 4.9805 1.0059 5.5469 3.7109 l-2.832 0.70313 c-0.26367 -1.4063 -1.2109 -2.0215 -2.5391 -2.0215 c-1.1816 0 -2.1875 0.48828 -2.1875 1.6504 c0 1.084 1.3867 1.4453 2.9883 1.9238 c2.1289 0.64453 4.6484 1.4648 4.6484 4.2773 c0 2.998 -2.5098 4.2578 -5.2734 4.2578 z M174.08470703125 5.888999999999999 l0 2.5781 l-3.3496 0 l0 11.533 l-2.9004 0 l0 -11.533 l-3.3691 0 l0 -2.5781 l9.6191 0 z M190.7375390625 8.467 l-5.2344 0 l0 3.2031 l4.6387 0 l0 2.5488 l-4.6387 0 l0 3.1934 l5.2344 0 l0 2.5879 l-8.1836 0 l0 -14.111 l8.1836 0 l0 2.5781 z M216.17915234375 20 l-2.9199 0 l-0.92773 -10.635 l-3.5742 10.635 l-1.8945 0 l-3.5742 -10.635 l-0.9375 10.635 l-2.9297 0 l1.1816 -14.111 l4.1797 0 l3.0078 8.8574 l3.0469 -8.8574 l4.1797 0 z M241.63332890625 20.19531 c-3.0273 0 -5.3906 -1.4551 -5.8203 -4.1016 l3.0273 -0.69336 c0.19531 1.582 1.3574 2.4023 2.9102 2.4023 c1.1914 0 2.1387 -0.52734 2.1289 -1.7188 c-0.0097656 -1.3281 -1.5723 -1.748 -3.291 -2.2754 c-2.0703 -0.64453 -4.2871 -1.4063 -4.2871 -4.0039 c0 -2.627 2.1484 -4.1113 4.9805 -4.1113 c2.4805 0 4.9805 1.0059 5.5469 3.7109 l-2.832 0.70313 c-0.26367 -1.4063 -1.2109 -2.0215 -2.5391 -2.0215 c-1.1816 0 -2.1875 0.48828 -2.1875 1.6504 c0 1.084 1.3867 1.4453 2.9883 1.9238 c2.1289 0.64453 4.6484 1.4648 4.6484 4.2773 c0 2.998 -2.5098 4.2578 -5.2734 4.2578 z M262.1142859375 20.19531 c-4.1504 0 -7.2168 -2.8223 -7.2168 -7.2559 s3.0664 -7.2461 7.2168 -7.2461 c3.1445 0 5.6641 1.6113 6.6699 4.2871 l-2.7344 0.99609 c-0.625 -1.6406 -2.1191 -2.5879 -3.9355 -2.5879 c-2.4316 0 -4.2969 1.6992 -4.2969 4.5508 s1.8652 4.5605 4.2969 4.5605 c1.8164 0 3.3105 -0.95703 3.9355 -2.5977 l2.7344 0.99609 c-1.0059 2.6758 -3.5254 4.2969 -6.6699 4.2969 z M277.43899296875 20 l0 -14.111 l2.9297 0 l0 14.111 l-2.9297 0 z M298.4475 8.467 l-5.2344 0 l0 3.2031 l4.6387 0 l0 2.5488 l-4.6387 0 l0 3.1934 l5.2344 0 l0 2.5879 l-8.1836 0 l0 -14.111 l8.1836 0 l0 2.5781 z M317.35611328125 5.888999999999999 l2.9199 0 l0 14.111 l-3.3887 0 l-6.25 -10.088 l0 10.088 l-2.9199 0 l0 -14.111 l3.3496 0 l6.2891 10.029 l0 -10.029 z M336.4306921875 20.19531 c-4.1504 0 -7.2168 -2.8223 -7.2168 -7.2559 s3.0664 -7.2461 7.2168 -7.2461 c3.1445 0 5.6641 1.6113 6.6699 4.2871 l-2.7344 0.99609 c-0.625 -1.6406 -2.1191 -2.5879 -3.9355 -2.5879 c-2.4316 0 -4.2969 1.6992 -4.2969 4.5508 s1.8652 4.5605 4.2969 4.5605 c1.8164 0 3.3105 -0.95703 3.9355 -2.5977 l2.7344 0.99609 c-1.0059 2.6758 -3.5254 4.2969 -6.6699 4.2969 z M359.93919921875 8.467 l-5.2344 0 l0 3.2031 l4.6387 0 l0 2.5488 l-4.6387 0 l0 3.1934 l5.2344 0 l0 2.5879 l-8.1836 0 l0 -14.111 l8.1836 0 l0 2.5781 z M373.8965125 20.19531 c-3.0273 0 -5.3906 -1.4551 -5.8203 -4.1016 l3.0273 -0.69336 c0.19531 1.582 1.3574 2.4023 2.9102 2.4023 c1.1914 0 2.1387 -0.52734 2.1289 -1.7188 c-0.0097656 -1.3281 -1.5723 -1.748 -3.291 -2.2754 c-2.0703 -0.64453 -4.2871 -1.4063 -4.2871 -4.0039 c0 -2.627 2.1484 -4.1113 4.9805 -4.1113 c2.4805 0 4.9805 1.0059 5.5469 3.7109 l-2.832 0.70313 c-0.26367 -1.4063 -1.2109 -2.0215 -2.5391 -2.0215 c-1.1816 0 -2.1875 0.48828 -2.1875 1.6504 c0 1.084 1.3867 1.4453 2.9883 1.9238 c2.1289 0.64453 4.6484 1.4648 4.6484 4.2773 c0 2.998 -2.5098 4.2578 -5.2734 4.2578 z"></path></g>
			</g>
		</svg>
	