<?xml version="1.0" encoding="UTF-8" standalone="no"?><!DOCTYPE svg PUBLIC "-//W3C//DTD SVG 1.1//EN" "http://www.w3.org/Graphics/SVG/1.1/DTD/svg11.dtd"><svg width="100%" height="100%" viewBox="0 0 450 450" version="1.1" xmlns="http://www.w3.org/2000/svg" xmlns:xlink="http://www.w3.org/1999/xlink" xml:space="preserve" xmlns:serif="http://www.serif.com/" style="fill-rule:evenodd;clip-rule:evenodd;stroke-linecap:round;stroke-linejoin:round;stroke-miterlimit:1.5;"><rect id="engineering" x="0" y="0" width="450" height="450" style="fill:none;"/><g><g><path d="M174.579,173.168c-6.558,-0.637 -13.163,-0.637 -19.721,-0l-3.248,15.813c-6.286,0.962 -12.447,2.612 -18.372,4.922l-10.719,-12.07c-5.999,2.727 -11.719,6.03 -17.08,9.861l5.094,15.318c-4.963,3.976 -9.473,8.487 -13.45,13.449l-15.318,-5.093c-3.831,5.361 -7.133,11.081 -9.861,17.079l12.071,10.72c-2.31,5.924 -3.961,12.086 -4.923,18.372l-15.813,3.248c-0.637,6.558 -0.637,13.163 0,19.721l15.813,3.248c0.962,6.286 2.613,12.447 4.923,18.372l-12.071,10.72c2.728,5.998 6.03,11.718 9.861,17.079l15.318,-5.094c3.977,4.963 8.487,9.474 13.45,13.45l-5.094,15.318c5.361,3.831 11.081,7.133 17.08,9.861l10.719,-12.07c5.925,2.309 12.086,3.96 18.372,4.922l3.248,15.813c6.558,0.637 13.163,0.637 19.721,0l3.249,-15.813c6.286,-0.962 12.447,-2.613 18.371,-4.922l10.72,12.07c5.998,-2.728 11.718,-6.03 17.079,-9.861l-5.093,-15.318c4.963,-3.976 9.473,-8.487 13.449,-13.45l15.318,5.094c3.831,-5.361 7.134,-11.081 9.861,-17.079l-12.07,-10.72c2.31,-5.925 3.961,-12.086 4.922,-18.372l15.813,-3.248c0.638,-6.558 0.638,-13.163 0,-19.721l-15.813,-3.248c-0.961,-6.286 -2.612,-12.448 -4.922,-18.372l12.07,-10.72c-2.727,-5.998 -6.03,-11.718 -9.861,-17.079l-15.318,5.093c-3.976,-4.962 -8.486,-9.473 -13.449,-13.449l5.093,-15.318c-5.361,-3.831 -11.081,-7.134 -17.079,-9.861l-10.72,12.07c-5.924,-2.31 -12.085,-3.96 -18.371,-4.922l-3.249,-15.813Zm-4.688,5.325l2.388,11.627c0.477,2.322 2.349,4.101 4.692,4.46c5.875,0.899 11.633,2.442 17.171,4.601c2.208,0.861 4.719,0.256 6.293,-1.516l7.882,-8.876c3.076,1.563 6.067,3.289 8.958,5.172c-0,0 -3.745,11.264 -3.745,11.264c-0.748,2.249 -0.017,4.726 1.833,6.208c4.639,3.716 8.854,7.931 12.57,12.57c1.482,1.85 3.959,2.581 6.208,1.833l11.264,-3.745c1.883,2.891 3.609,5.882 5.172,8.958c-0,0 -8.875,7.882 -8.875,7.882c-1.773,1.574 -2.378,4.085 -1.517,6.293c2.159,5.538 3.702,11.296 4.601,17.171c0.359,2.343 2.138,4.215 4.46,4.692l11.627,2.388c0.185,3.446 0.185,6.899 0,10.344c-0,0.001 -11.627,2.389 -11.627,2.389c-2.322,0.477 -4.101,2.349 -4.46,4.692c-0.899,5.875 -2.442,11.633 -4.601,17.171c-0.861,2.208 -0.256,4.719 1.517,6.292l8.875,7.882c-1.563,3.077 -3.289,6.067 -5.172,8.958c-0,0.001 -11.264,-3.745 -11.264,-3.745c-2.249,-0.747 -4.726,-0.016 -6.208,1.834c-3.716,4.638 -7.931,8.854 -12.57,12.57c-1.85,1.482 -2.581,3.959 -1.833,6.208l3.745,11.263c-2.891,1.884 -5.882,3.61 -8.958,5.172c-0,0 -7.882,-8.875 -7.882,-8.875c-1.574,-1.772 -4.085,-2.377 -6.293,-1.516c-5.538,2.159 -11.296,3.702 -17.171,4.601c-2.343,0.359 -4.215,2.138 -4.692,4.46l-2.388,11.627c-3.446,0.185 -6.899,0.185 -10.344,-0c-0,-0 -2.389,-11.627 -2.389,-11.627c-0.477,-2.322 -2.349,-4.101 -4.691,-4.46c-5.876,-0.899 -11.634,-2.442 -17.172,-4.601c-2.208,-0.861 -4.719,-0.256 -6.292,1.516l-7.882,8.875c-3.077,-1.562 -6.067,-3.288 -8.958,-5.171c-0.001,-0.001 3.745,-11.264 3.745,-11.264c0.747,-2.249 0.016,-4.726 -1.834,-6.208c-4.638,-3.716 -8.854,-7.932 -12.57,-12.57c-1.482,-1.85 -3.959,-2.581 -6.208,-1.834l-11.263,3.746c-1.884,-2.892 -3.61,-5.882 -5.172,-8.958c-0,-0.001 8.875,-7.883 8.875,-7.883c1.772,-1.573 2.377,-4.084 1.516,-6.292c-2.159,-5.538 -3.702,-11.296 -4.601,-17.171c-0.358,-2.343 -2.138,-4.215 -4.459,-4.692l-11.628,-2.388c-0.185,-3.446 -0.185,-6.899 0,-10.344c0,-0.001 11.628,-2.389 11.628,-2.389c2.321,-0.477 4.101,-2.349 4.459,-4.692c0.899,-5.875 2.442,-11.633 4.601,-17.171c0.861,-2.208 0.256,-4.719 -1.516,-6.293l-8.875,-7.882c1.562,-3.076 3.288,-6.066 5.171,-8.958c0.001,0 11.264,3.745 11.264,3.745c2.249,0.748 4.726,0.017 6.208,-1.833c3.716,-4.639 7.932,-8.854 12.57,-12.57c1.85,-1.482 2.581,-3.959 1.834,-6.208l-3.746,-11.264c2.892,-1.883 5.882,-3.609 8.958,-5.172c0.001,0 7.883,8.876 7.883,8.876c1.573,1.772 4.084,2.377 6.292,1.516c5.538,-2.159 11.296,-3.702 17.172,-4.601c2.342,-0.359 4.214,-2.138 4.691,-4.46l2.389,-11.627c3.445,-0.185 6.898,-0.185 10.344,0l-0,0Z" style="fill:#0a1f40;"/><path d="M164.719,211.926c34.617,-0 62.721,28.104 62.721,62.721c0,34.617 -28.104,62.722 -62.721,62.722c-34.617,0 -62.722,-28.105 -62.722,-62.722c0,-34.617 28.105,-62.721 62.722,-62.721Zm-0,6.15c31.222,-0 56.571,25.349 56.571,56.571c0,31.223 -25.349,56.572 -56.571,56.572c-31.223,-0 -56.572,-25.349 -56.572,-56.572c0,-31.222 25.349,-56.571 56.572,-56.571Z" style="fill:#0a1f40;"/></g><path d="M343.65,203.287c-4.973,-1.565 -10.156,-2.359 -15.369,-2.352l-4.136,11.404c-3.571,0.379 -7.075,1.239 -10.415,2.558l-8.948,-8.192c-4.623,2.409 -8.849,5.513 -12.531,9.204l5.14,10.988c-2.257,2.793 -4.127,5.879 -5.556,9.174l-12.12,0.534c-1.565,4.973 -2.358,10.156 -2.352,15.369l11.404,4.135c0.379,3.572 1.239,7.075 2.558,10.416l-8.192,8.948c2.409,4.623 5.513,8.849 9.204,12.53l10.988,-5.139c2.793,2.257 5.879,4.126 9.174,5.556l0.534,12.119c4.973,1.566 10.156,2.359 15.369,2.353l4.136,-11.404c3.571,-0.379 7.075,-1.239 10.415,-2.558l8.948,8.192c4.623,-2.409 8.849,-5.513 12.531,-9.204l-5.14,-10.988c2.257,-2.794 4.127,-5.879 5.556,-9.174l12.12,-0.534c1.565,-4.973 2.358,-10.156 2.352,-15.369l-11.404,-4.136c-0.379,-3.571 -1.239,-7.075 -2.558,-10.415l8.192,-8.948c-2.409,-4.623 -5.513,-8.849 -9.204,-12.531l-10.988,5.14c-2.793,-2.258 -5.879,-4.127 -9.174,-5.557l-0.534,-12.119Zm-6.042,4.868l0.332,7.527c0.106,2.388 1.564,4.506 3.756,5.458c2.777,1.205 5.379,2.781 7.733,4.684c1.859,1.502 4.412,1.813 6.577,0.8l6.824,-3.192c1.079,1.306 2.082,2.672 3.006,4.092c-0,0 -5.088,5.557 -5.088,5.557c-1.614,1.763 -2.081,4.292 -1.203,6.515c1.111,2.816 1.837,5.77 2.156,8.78c0.252,2.377 1.837,4.402 4.084,5.217l7.083,2.568c-0.161,1.687 -0.417,3.362 -0.768,5.019c-0,0 -7.527,0.332 -7.527,0.332c-2.388,0.105 -4.507,1.563 -5.458,3.756c-1.205,2.777 -2.781,5.378 -4.684,7.733c-1.502,1.859 -1.813,4.412 -0.8,6.577l3.192,6.824c-1.306,1.079 -2.672,2.082 -4.092,3.006c-0,-0 -5.557,-5.088 -5.557,-5.088c-1.763,-1.614 -4.292,-2.081 -6.516,-1.203c-2.816,1.111 -5.769,1.836 -8.779,2.156c-2.377,0.252 -4.402,1.837 -5.217,4.084l-2.569,7.083c-1.686,-0.161 -3.361,-0.417 -5.018,-0.768c-0,-0 -0.332,-7.527 -0.332,-7.527c-0.106,-2.388 -1.564,-4.507 -3.756,-5.458c-2.777,-1.205 -5.379,-2.781 -7.733,-4.684c-1.859,-1.503 -4.412,-1.813 -6.577,-0.801l-6.824,3.193c-1.079,-1.307 -2.082,-2.673 -3.006,-4.092c0,-0.001 5.088,-5.558 5.088,-5.558c1.614,-1.763 2.081,-4.292 1.203,-6.515c-1.111,-2.816 -1.837,-5.769 -2.156,-8.78c-0.252,-2.376 -1.837,-4.401 -4.084,-5.216l-7.083,-2.569c0.161,-1.686 0.417,-3.361 0.768,-5.018c0,-0.001 7.527,-0.333 7.527,-0.333c2.388,-0.105 4.507,-1.563 5.458,-3.755c1.205,-2.778 2.781,-5.379 4.684,-7.733c1.502,-1.859 1.813,-4.412 0.8,-6.577l-3.192,-6.825c1.306,-1.078 2.672,-2.082 4.092,-3.005c0,-0 5.557,5.087 5.557,5.087c1.763,1.614 4.292,2.082 6.516,1.204c2.816,-1.112 5.769,-1.837 8.779,-2.156c2.377,-0.252 4.402,-1.837 5.217,-4.084l2.569,-7.083c1.686,0.161 3.361,0.417 5.018,0.768l0,0Zm-5.718,20.579c-12.793,-1.959 -24.77,6.838 -26.728,19.631c-1.959,12.793 6.838,24.769 19.631,26.728c12.793,1.958 24.77,-6.838 26.728,-19.631c1.959,-12.793 -6.838,-24.77 -19.631,-26.728l-0,-0Zm-0.946,6.178c9.384,1.436 15.836,10.221 14.399,19.604c-1.436,9.383 -10.221,15.835 -19.604,14.399c-9.384,-1.437 -15.836,-10.221 -14.399,-19.604c1.436,-9.384 10.221,-15.836 19.604,-14.399Z" style="fill:#54b6b5;"/><path d="M311.398,79.577c-5.169,-2.755 -10.69,-4.793 -16.409,-6.057l-7.655,13.012c-4.004,-0.502 -8.055,-0.52 -12.063,-0.055l-7.536,-13.082c-5.731,1.212 -11.269,3.199 -16.463,5.907l2.5,14.889c-3.39,2.189 -6.505,4.778 -9.277,7.712l-14.181,-5.178c-3.611,4.612 -6.577,9.695 -8.815,15.108l11.485,9.798c-1.189,3.856 -1.911,7.842 -2.149,11.871l-14.191,5.149c0.198,5.854 1.193,11.654 2.958,17.239l15.097,0.123c1.567,3.719 3.576,7.236 5.984,10.475l-7.562,13.067c3.915,4.357 8.406,8.16 13.348,11.304l11.643,-9.609c3.592,1.841 7.391,3.244 11.317,4.177l2.607,14.871c5.8,0.821 11.684,0.848 17.491,0.08l2.743,-14.846c3.935,-0.898 7.747,-2.266 11.355,-4.074l11.555,9.716c4.971,-3.099 9.496,-6.861 13.451,-11.182l-7.442,-13.136c2.437,-3.217 4.478,-6.715 6.079,-10.419l15.097,0.015c1.816,-5.569 2.865,-11.36 3.116,-17.212l-14.144,-5.279c-0.201,-4.031 -0.886,-8.022 -2.04,-11.89l11.575,-9.692c-2.189,-5.434 -5.108,-10.543 -8.677,-15.188l-14.228,5.048c-2.745,-2.959 -5.835,-5.576 -9.206,-7.797l2.637,-14.865Zm-6.979,3.559l-1.812,10.215c-0.435,2.457 0.632,4.937 2.716,6.31c2.951,1.945 5.658,4.237 8.062,6.829c1.697,1.829 4.32,2.473 6.672,1.639l9.777,-3.469c1.251,1.918 2.388,3.907 3.404,5.959c0,0 -7.954,6.661 -7.954,6.661c-1.913,1.602 -2.69,4.188 -1.976,6.579c1.011,3.387 1.611,6.883 1.787,10.413c0.124,2.493 1.719,4.672 4.057,5.545l9.72,3.627c-0.275,2.273 -0.683,4.528 -1.223,6.753c-0,-0 -10.374,-0.01 -10.374,-0.01c-2.496,-0.003 -4.753,1.479 -5.744,3.77c-1.402,3.244 -3.19,6.308 -5.324,9.125c-1.507,1.989 -1.686,4.684 -0.456,6.855l5.114,9.027c-1.672,1.564 -3.434,3.029 -5.277,4.386c-0,0.001 -7.941,-6.676 -7.941,-6.676c-1.91,-1.606 -4.592,-1.922 -6.823,-0.804c-3.16,1.584 -6.499,2.782 -9.944,3.569c-2.433,0.555 -4.303,2.504 -4.756,4.957l-1.885,10.202c-2.286,0.125 -4.577,0.114 -6.862,-0.031c-0,-0 -1.791,-10.219 -1.791,-10.219c-0.431,-2.458 -2.283,-4.424 -4.71,-5.001c-3.439,-0.818 -6.767,-2.046 -9.912,-3.659c-2.22,-1.138 -4.905,-0.847 -6.83,0.741l-8.001,6.604c-1.832,-1.374 -3.58,-2.855 -5.237,-4.435c0,-0 5.196,-8.98 5.196,-8.98c1.25,-2.159 1.095,-4.856 -0.393,-6.858c-2.109,-2.837 -3.868,-5.917 -5.241,-9.174c-0.969,-2.3 -3.213,-3.802 -5.708,-3.823l-10.374,-0.084c-0.52,-2.23 -0.908,-4.488 -1.161,-6.763c-0,-0.001 9.752,-3.539 9.752,-3.539c2.346,-0.851 3.96,-3.016 4.108,-5.507c0.208,-3.529 0.84,-7.019 1.882,-10.397c0.735,-2.384 -0.018,-4.977 -1.916,-6.597l-7.893,-6.733c1.035,-2.042 2.19,-4.021 3.458,-5.927c0.001,-0 9.746,3.558 9.746,3.558c2.344,0.855 4.972,0.235 6.686,-1.579c2.428,-2.569 5.155,-4.836 8.124,-6.754c2.097,-1.354 3.187,-3.825 2.774,-6.285l-1.719,-10.232c2.106,-0.899 4.263,-1.672 6.459,-2.317c0.001,-0 5.179,8.99 5.179,8.99c1.245,2.162 3.658,3.376 6.136,3.088c3.511,-0.407 7.059,-0.391 10.566,0.049c2.476,0.31 4.899,-0.882 6.164,-3.033l5.26,-8.942c2.191,0.665 4.341,1.459 6.438,2.377l0,-0Zm-13.648,27.063c-14.498,-5.352 -30.613,2.074 -35.965,16.571c-5.352,14.498 2.073,30.613 16.571,35.965c14.497,5.352 30.613,-2.073 35.965,-16.571c5.352,-14.497 -2.074,-30.613 -16.571,-35.965Zm-2.165,5.864c11.262,4.157 17.03,16.675 12.872,27.937c-4.157,11.261 -16.675,17.029 -27.937,12.872c-11.261,-4.158 -17.029,-16.676 -12.872,-27.937c4.158,-11.262 16.676,-17.03 27.937,-12.872Z" style="fill:#0a1f40;"/><g><path d="M59.75,184.542c-0,-0 36.17,-69.089 123.841,-55.077" style="fill:none;stroke:#0a1f40;stroke-width:6.25px;"/><path d="M171.812,108.806l17.539,21.134l-20.463,17.116" style="fill:none;stroke:#0a1f40;stroke-width:6.25px;"/></g><g><path d="M390.25,94.218l-22.325,-10.538l-8.1,22.648" style="fill:none;stroke:#0a1f40;stroke-width:6.25px;"/><path d="M369.47,86.177c-0,-0 27.946,58.23 -8.751,96.947" style="fill:none;stroke:#0a1f40;stroke-width:6.25px;"/></g></g></svg>