<svg xmlns="http://www.w3.org/2000/svg" xmlns:xlink="http://www.w3.org/1999/xlink" xmlns:serif="http://www.serif.com/" width="100%" height="100%" viewBox="0 0 512 512" xml:space="preserve" style="fill-rule:evenodd;clip-rule:evenodd;stroke-linecap:round;stroke-linejoin:round;stroke-miterlimit:1.5;">    <g transform="matrix(1,0,0,1,-1100.42,0)">        <g id="icon-Portalfunktionen" serif:id="icon Portalfunktionen" transform="matrix(0.887702,0,0,0.887702,-2850.9,-690.546)">            <rect x="4451.18" y="777.903" width="576.77" height="576.77" style="fill:none;"></rect>            <g transform="matrix(0.371354,0,0,0.371354,3629.97,814.479)">                <circle cx="2867.47" cy="631.168" r="511.146" style="fill:white;"></circle>            </g>            <g transform="matrix(0.551509,0,0,0.551509,4474.91,153.963)">                <path d="M318.279,1656.64L349.033,1656.64" style="fill:none;stroke:rgb(10,31,64);stroke-width:3.27px;"></path>            </g>            <g transform="matrix(0.551509,0,0,0.551509,4474.91,153.963)">                <path d="M404.094,1572.81L404.094,1602.86" style="fill:none;stroke:rgb(10,31,64);stroke-width:3.27px;"></path>            </g>            <g transform="matrix(0.754045,0,0,0.754045,4391.33,-163.066)">                <path d="M258.051,1505.44L685.033,1505.44" style="fill:none;stroke:rgb(10,31,64);stroke-width:2.39px;"></path>            </g>            <g transform="matrix(0.563278,0,0,0.563278,4450,119.49)">                <circle cx="306.806" cy="1468.33" r="8.362" style="fill:rgb(10,31,64);stroke:rgb(10,31,64);stroke-width:2.39px;"></circle>            </g>            <g transform="matrix(0.563278,0,0,0.563278,4469.69,119.49)">                <circle cx="306.806" cy="1468.33" r="8.362" style="fill:rgb(10,31,64);stroke:rgb(10,31,64);stroke-width:2.39px;"></circle>            </g>            <g transform="matrix(0.563278,0,0,0.563278,4488.99,119.49)">                <circle cx="306.806" cy="1468.33" r="8.362" style="fill:rgb(10,31,64);stroke:rgb(10,31,64);stroke-width:2.39px;"></circle>            </g>            <g transform="matrix(1,0,0,1,14.1657,6.2634)">                <g transform="matrix(0.551509,0,0,0.551509,4458.01,144.965)">                    <path d="M325.174,1578.39L366.57,1619.79" style="fill:none;stroke:rgb(10,31,64);stroke-width:3.27px;"></path>                </g>                <g transform="matrix(0.80518,0,0,0.80518,2010.62,914.892)">                    <path d="M3436,203.996C3436.05,203.956 3436.1,203.911 3436.14,203.861C3436.55,203.397 3436.51,202.69 3436.04,202.281C3435.66,201.942 3435.29,201.904 3435.02,201.93C3434.72,201.96 3434.45,202.086 3434.22,202.341C3434.05,202.526 3433.87,202.907 3433.8,203.428C3433.74,203.884 3433.77,204.566 3433.66,204.911C3433.21,206.351 3432.69,207.768 3432.16,209.183C3430.52,213.599 3429.26,218.216 3428.89,222.939C3428.85,223.555 3429.31,224.094 3429.93,224.141C3430.54,224.188 3431.08,223.727 3431.13,223.111C3431.47,218.596 3432.69,214.184 3434.26,209.963C3434.8,208.513 3435.33,207.062 3435.8,205.587C3435.9,205.278 3435.95,204.782 3435.98,204.293C3435.98,204.203 3435.99,204.098 3436,203.996ZM3434.7,204.067L3434.71,204.072L3434.7,204.067ZM3434.67,204.046L3434.69,204.059L3434.65,204.035L3434.67,204.046ZM3434.63,204.02L3434.65,204.031L3434.61,204.002L3434.63,204.02ZM3434.6,203.997L3434.56,203.962C3434.58,203.974 3434.59,203.986 3434.6,203.997Z" style="fill:rgb(10,31,64);"></path>                </g>                <g transform="matrix(0.80518,0,0,0.80518,2010.62,914.892)">                    <path d="M3491.47,210.571C3491.01,210.763 3490.26,211.087 3489.98,211.246C3488.72,211.94 3487.44,212.582 3486.16,213.223C3483.97,214.314 3481.11,215.539 3478.71,217.146C3476.98,218.301 3475.49,219.656 3474.57,221.265C3474.26,221.802 3474.45,222.486 3474.99,222.792C3475.52,223.099 3476.21,222.912 3476.51,222.376C3477.27,221.049 3478.53,219.959 3479.95,219.007C3482.27,217.453 3485.05,216.28 3487.16,215.225C3488.47,214.57 3489.78,213.913 3491.06,213.204C3491.44,212.993 3492.35,212.661 3492.78,212.447C3493.07,212.303 3493.25,212.146 3493.34,212.053C3493.67,211.676 3493.67,211.295 3493.6,211.017C3493.55,210.79 3493.34,210.119 3492.37,210.119C3492,210.119 3491.67,210.297 3491.47,210.571ZM3492.28,212.354L3492.29,212.355L3492.28,212.354Z" style="fill:rgb(10,31,64);"></path>                </g>                <g transform="matrix(0.80518,0,0,0.80518,2010.62,914.892)">                    <path d="M3442.24,249.625C3442.61,249.752 3439.53,243.184 3439.19,242.443C3436.88,237.459 3434.79,232.4 3432.03,227.643C3423.5,212.979 3415.13,186.861 3391.27,197.529C3369.28,207.361 3392.33,240.642 3396.98,253.383C3397.78,255.566 3403.93,273.962 3395.75,268.996C3390.44,265.773 3381.4,249.649 3377.66,243.943C3364.68,224.111 3351.87,204.815 3339.31,184.719C3334.23,176.579 3322.66,158.043 3309.7,168.739C3306.29,171.556 3306.65,179.656 3307.03,183.601C3308.31,197.097 3316.8,209.003 3321.68,221.482C3331.02,245.341 3347.1,264.948 3360.55,286.409C3368.54,299.17 3374.46,314.719 3380.12,328.588C3382.77,335.054 3385.66,341.153 3388.36,347.312C3391.37,354.184 3394.13,361.132 3396.04,368.749" style="fill:white;"></path>                    <path d="M3441.12,249.634C3441.13,250.095 3441.42,250.525 3441.88,250.683C3442.14,250.772 3442.36,250.758 3442.54,250.708C3442.81,250.637 3443.04,250.484 3443.21,250.22C3443.29,250.09 3443.47,249.75 3443.35,249.216C3443.11,248.209 3440.52,242.659 3440.2,241.972C3437.88,236.957 3435.78,231.868 3432.99,227.08C3428.7,219.693 3424.43,209.431 3418.24,202.35C3415.02,198.664 3411.28,195.827 3406.8,194.592C3402.32,193.357 3397.07,193.709 3390.81,196.507C3381.47,200.685 3379.68,208.807 3381.34,217.966C3383.69,230.962 3393.13,246.085 3395.93,253.767C3396.4,255.041 3398.75,261.984 3398.83,266.295C3398.84,267.033 3398.79,267.682 3398.62,268.182C3398.54,268.419 3398.47,268.626 3398.27,268.696C3398.12,268.751 3397.94,268.727 3397.72,268.673C3397.32,268.576 3396.87,268.364 3396.33,268.039C3394.82,267.123 3393.02,265.085 3391.1,262.564C3386.4,256.38 3381.21,247.31 3378.6,243.33C3365.62,223.505 3352.82,204.215 3340.26,184.126C3337.67,179.981 3333.42,173.201 3328.18,168.808C3324.86,166.027 3321.15,164.205 3317.22,164.394C3314.57,164.522 3311.81,165.553 3308.99,167.876C3307.45,169.15 3306.53,171.351 3306.08,173.853C3305.46,177.279 3305.68,181.265 3305.91,183.707C3307.21,197.305 3315.72,209.316 3320.64,221.89C3330,245.815 3346.11,265.483 3359.6,287.003C3367.56,299.711 3373.45,315.2 3379.09,329.011C3381.73,335.486 3384.63,341.593 3387.33,347.761C3390.32,354.576 3393.06,361.466 3394.95,369.021C3395.1,369.62 3395.71,369.985 3396.31,369.835C3396.91,369.685 3397.27,369.077 3397.12,368.478C3395.2,360.797 3392.41,353.792 3389.38,346.863C3386.69,340.712 3383.8,334.622 3381.16,328.165C3375.47,314.239 3369.52,298.628 3361.49,285.815C3348.08,264.412 3332.04,244.868 3322.73,221.074C3317.88,208.689 3309.41,196.889 3308.14,183.495C3307.92,181.204 3307.7,177.464 3308.28,174.25C3308.63,172.325 3309.23,170.582 3310.42,169.602C3312.78,167.647 3315.09,166.738 3317.33,166.63C3320.71,166.467 3323.88,168.126 3326.74,170.523C3331.79,174.759 3335.87,181.316 3338.37,185.312C3350.93,205.415 3363.74,224.718 3376.73,244.556C3379.35,248.564 3384.59,257.692 3389.32,263.919C3391.45,266.717 3393.49,268.935 3395.17,269.952C3396.77,270.922 3397.97,271.094 3398.82,270.869C3399.84,270.598 3400.54,269.786 3400.86,268.494C3401.17,267.232 3401.11,265.415 3400.8,263.444C3400.14,259.158 3398.43,254.092 3398.03,253C3395.26,245.393 3385.87,230.437 3383.54,217.569C3382.08,209.485 3383.48,202.238 3391.73,198.55C3397.4,196.015 3402.14,195.631 3406.21,196.75C3410.27,197.87 3413.63,200.48 3416.55,203.823C3422.65,210.799 3426.83,220.928 3431.06,228.206C3433.81,232.933 3435.88,237.961 3438.17,242.913C3438.45,243.512 3440.78,248.835 3441.12,249.634ZM3442.55,248.549C3442.34,248.486 3442.15,248.492 3441.98,248.537C3442.16,248.493 3442.36,248.494 3442.55,248.549Z" style="fill:rgb(10,31,64);"></path>                </g>                <g transform="matrix(0.80518,0,0,0.80518,2010.62,914.892)">                    <path d="M3316.39,165.025C3314.01,165.407 3311.85,165.82 3309.89,168.291C3309.49,168.789 3309.14,169.358 3308.87,169.926C3308.06,171.602 3307.72,173.6 3307.88,175.447C3308.32,180.821 3311.43,186.467 3317.49,186.338C3319.27,186.3 3322.65,185.35 3325.37,183.902C3327.32,182.862 3328.91,181.54 3329.52,180.194C3330.12,178.856 3329.9,176.769 3329.1,174.627C3327.99,171.667 3325.87,168.6 3324.22,167.473C3320.8,165.145 3319.09,164.59 3316.39,165.025L3316.39,165.025ZM3316.75,167.235C3318.9,166.887 3320.23,167.463 3322.96,169.323C3324.35,170.274 3326.07,172.911 3327,175.409C3327.56,176.905 3327.89,178.344 3327.47,179.278C3327.03,180.275 3325.76,181.156 3324.32,181.926C3321.94,183.192 3319,184.067 3317.45,184.1C3312.65,184.202 3310.46,179.51 3310.11,175.261C3309.98,173.801 3310.25,172.219 3310.88,170.893C3311.09,170.473 3311.35,170.052 3311.64,169.683C3313.17,167.76 3314.9,167.532 3316.74,167.235L3316.75,167.235Z" style="fill:rgb(10,31,64);"></path>                </g>                <g transform="matrix(0.80518,0,0,0.80518,2010.62,914.892)">                    <path d="M3486.54,251.951C3486.37,252.149 3486.26,252.408 3486.26,252.693C3486.26,253.311 3486.76,253.812 3487.38,253.812C3488.05,253.812 3488.83,253.282 3488.8,251.94C3488.76,250.045 3487.18,245.255 3487.02,244.783C3485.47,240.13 3484.49,235.437 3484.49,230.513C3484.49,219.615 3490.82,207.768 3503.66,210.977C3505.97,211.556 3507.92,213.503 3509.6,215.878C3512.34,219.734 3514.34,224.756 3515.71,227.854C3524.47,247.565 3528.05,270.914 3533.97,291.632C3544.51,328.522 3555.28,360.66 3581.78,389.88C3595.07,404.527 3611.6,417.225 3626.91,429.697C3630.72,432.797 3635.92,435.459 3639.34,438.78C3639.78,439.21 3640.49,439.2 3640.92,438.756C3641.35,438.313 3641.34,437.604 3640.9,437.174C3637.43,433.811 3632.18,431.1 3628.33,427.961C3613.1,415.559 3596.65,402.941 3583.44,388.376C3557.18,359.427 3546.56,327.565 3536.12,291.017C3530.17,270.202 3526.56,246.748 3517.76,226.944C3516.34,223.744 3514.26,218.566 3511.43,214.582C3509.4,211.731 3506.98,209.5 3504.2,208.805C3489.72,205.186 3482.25,218.221 3482.25,230.513C3482.25,235.681 3483.27,240.608 3484.9,245.491C3485.01,245.837 3485.97,248.672 3486.39,250.724C3486.47,251.152 3486.52,251.672 3486.54,251.951ZM3487,251.641C3487.12,251.597 3487.25,251.574 3487.38,251.574C3487.24,251.574 3487.11,251.593 3487,251.641Z" style="fill:rgb(10,31,64);"></path>                </g>                <g transform="matrix(0.80518,0,0,0.80518,2010.62,914.892)">                    <path d="M3485.82,252.389C3485.84,252.555 3485.89,252.719 3485.99,252.869C3486.35,253.44 3486.81,253.448 3486.9,253.455C3487.29,253.487 3487.6,253.35 3487.84,253.075C3487.93,252.965 3488.21,252.642 3488.08,252.064C3487.98,251.638 3485.63,246.505 3485.26,245.697C3483.18,241.203 3481.53,236.614 3479.79,231.988C3476.8,224.056 3473.99,211.683 3468.36,203.14C3464.42,197.158 3459.12,193.02 3451.59,193.2C3444.96,193.36 3440.44,195.189 3437.45,198.069C3432.99,202.372 3431.91,209.123 3432.61,216.646C3433.72,228.611 3439.28,242.558 3441.35,250.852C3441.5,251.451 3442.11,251.816 3442.71,251.666C3443.31,251.517 3443.68,250.908 3443.53,250.309C3441.47,242.095 3435.94,228.288 3434.84,216.438C3434.21,209.671 3434.99,203.551 3439.01,199.681C3441.67,197.112 3445.74,195.58 3451.65,195.438C3458.34,195.277 3462.99,199.054 3466.49,204.372C3472.03,212.778 3474.76,224.971 3477.69,232.776C3479.45,237.454 3481.13,242.092 3483.22,246.635C3483.53,247.307 3485.41,251.486 3485.82,252.389ZM3487.85,251.628L3487.88,251.67C3487.87,251.655 3487.86,251.641 3487.85,251.628Z" style="fill:rgb(10,31,64);"></path>                </g>                <g transform="matrix(0.80518,0,0,0.80518,2010.62,914.892)">                    <path d="M3384.43,341.26C3385.73,344.627 3386.3,346.74 3386.53,347.481C3387.36,350.167 3387.96,352.907 3388.45,355.674C3390.54,367.553 3392.24,380.32 3397.02,391.491C3397.27,392.059 3397.93,392.323 3398.49,392.079C3399.06,391.836 3399.33,391.177 3399.08,390.61C3394.36,379.594 3392.72,366.998 3390.65,355.285C3390.15,352.427 3389.52,349.598 3388.67,346.823C3388.44,346.064 3387.85,343.901 3386.52,340.453C3386.29,339.877 3385.64,339.59 3385.07,339.813C3384.49,340.036 3384.21,340.684 3384.43,341.26Z" style="fill:rgb(10,31,64);"></path>                </g>                <g transform="matrix(0.80518,0,0,0.80518,2010.62,914.892)">                    <path d="M3378.56,324.077C3378.18,323.68 3374.66,320.008 3374.33,319.738C3370.98,317.065 3367.08,314.785 3363.36,312.679C3355.85,308.428 3342.27,303.479 3330.36,303.259C3322.15,303.107 3314.74,305.215 3310.42,311.079C3307.92,314.48 3307.22,317.397 3307.68,319.925C3308.14,322.459 3309.78,324.652 3312.19,326.584C3315.51,329.251 3320.32,331.451 3325.05,333.582C3329.6,335.628 3334.07,337.605 3336.94,339.953C3342.24,344.287 3346.45,350.125 3350.8,355.368C3367.23,375.156 3370.7,387.338 3389.28,407.929C3391.64,410.552 3395.94,413.11 3400.78,415.452C3407.8,418.855 3415.96,421.84 3420.56,424.068C3430.8,429.028 3442.81,437.784 3452.91,443.161C3474.94,454.889 3492.72,468.228 3511.74,484.24C3512.21,484.638 3512.92,484.577 3513.31,484.105C3513.71,483.632 3513.65,482.926 3513.18,482.528C3494.04,466.41 3476.14,452.99 3453.96,441.185C3443.84,435.796 3431.8,427.025 3421.53,422.053C3416.93,419.825 3408.78,416.84 3401.75,413.437C3397.22,411.241 3393.16,408.889 3390.94,406.429C3372.38,385.867 3368.93,373.698 3352.52,353.939C3348.08,348.586 3343.77,342.644 3338.36,338.22C3333.43,334.191 3323.96,331.159 3317.14,327.216C3313.4,325.058 3310.45,322.68 3309.88,319.527C3309.51,317.481 3310.2,315.158 3312.23,312.405C3316.13,307.103 3322.89,305.36 3330.31,305.497C3341.85,305.71 3354.99,310.512 3362.26,314.627C3365.88,316.676 3369.68,318.886 3372.93,321.486C3373.29,321.774 3376.42,325.27 3377.23,325.891C3377.82,326.338 3378.34,326.199 3378.51,326.131C3379.08,325.899 3379.36,325.246 3379.13,324.674C3379.02,324.399 3378.81,324.192 3378.56,324.077ZM3377.73,324.033L3377.73,324.034L3377.77,324.021L3377.73,324.033ZM3377.8,324.013L3377.78,324.017L3377.83,324.005L3377.8,324.013ZM3377.86,323.996L3377.84,324.002L3377.88,323.993L3377.86,323.996ZM3377.93,323.984L3377.9,323.989L3377.94,323.983L3377.93,323.984Z" style="fill:rgb(10,31,64);"></path>                </g>                <g transform="matrix(0.80518,0,0,0.80518,2010.62,914.892)">                    <path d="M3310,323.109C3310.88,325.03 3313.2,326.843 3315.84,328.288C3319.55,330.322 3323.83,331.692 3324.82,331.935C3326.76,332.413 3328.24,332.326 3329.83,332.142C3331.83,331.91 3334.26,330.841 3335.9,329.229C3337.7,327.458 3338.58,325.08 3337.29,322.445C3335.98,319.774 3333.51,317.886 3330.87,316.894C3326.27,315.169 3322.1,313.89 3316.32,314.958C3314.56,315.285 3312.12,316.789 3310.78,318.625C3309.73,320.052 3309.34,321.661 3310,323.109ZM3312.04,322.179C3311.7,321.448 3312.05,320.669 3312.58,319.949C3313.6,318.568 3315.4,317.405 3316.73,317.16C3322.03,316.179 3325.86,317.406 3330.08,318.99C3332.21,319.789 3334.22,321.278 3335.28,323.429C3336.08,325.069 3335.45,326.531 3334.33,327.634C3333.04,328.897 3331.14,329.736 3329.57,329.918C3328.23,330.074 3326.99,330.163 3325.35,329.761C3324.42,329.533 3320.4,328.237 3316.91,326.325C3314.75,325.14 3312.76,323.755 3312.04,322.179Z" style="fill:rgb(10,31,64);"></path>                </g>                <g transform="matrix(0.80518,0,0,0.80518,2010.62,914.892)">                    <path d="M3345.58,346.886C3345.34,347.325 3345.41,347.892 3345.8,348.25C3346.21,348.637 3346.6,348.63 3346.83,348.596C3347.18,348.545 3347.51,348.363 3347.71,347.955C3347.78,347.813 3347.86,347.565 3347.85,347.234C3347.85,346.962 3347.79,346.216 3347.78,346.119C3348.15,344.907 3348.59,343.701 3349.05,342.52C3350.38,339.091 3352.7,336.663 3354.59,333.59C3354.91,333.064 3354.75,332.374 3354.22,332.05C3353.7,331.727 3353.01,331.891 3352.68,332.417C3350.72,335.608 3348.35,338.15 3346.97,341.711C3346.48,342.96 3346.01,344.236 3345.63,345.519C3345.55,345.758 3345.53,346.118 3345.55,346.502C3345.56,346.614 3345.57,346.756 3345.58,346.886Z" style="fill:rgb(10,31,64);"></path>                </g>                <g transform="matrix(0.80518,0,0,0.80518,2010.62,914.892)">                    <path d="M3353.85,353.671L3354.21,352.43C3354.51,351.418 3354.83,350.41 3355.15,349.405C3356.21,346.123 3357.49,343.294 3359.17,340.302C3359.48,339.763 3359.29,339.08 3358.75,338.777C3358.21,338.475 3357.53,338.666 3357.22,339.204C3355.47,342.331 3354.13,345.288 3353.02,348.717C3352.69,349.738 3352.37,350.763 3352.06,351.791C3352.03,351.9 3351.75,352.752 3351.65,353.211C3351.59,353.465 3351.58,353.668 3351.59,353.774C3351.63,354.276 3351.91,354.528 3352.1,354.657C3352.33,354.813 3352.61,354.888 3352.93,354.829C3353.49,354.728 3353.88,354.225 3353.85,353.671ZM3353.36,352.804C3353.14,352.644 3352.89,352.576 3352.59,352.618C3352.87,352.582 3353.14,352.654 3353.36,352.804Z" style="fill:rgb(10,31,64);"></path>                </g>                <g transform="matrix(0.80518,0,0,0.80518,2010.62,914.892)">                    <path d="M3325.89,206.19C3329.27,206.19 3336.79,203.308 3339.59,201.068C3340.07,200.682 3340.15,199.977 3339.76,199.494C3339.38,199.012 3338.67,198.934 3338.19,199.32C3335.67,201.333 3328.93,203.951 3325.89,203.951C3325.28,203.951 3324.78,204.453 3324.78,205.07C3324.78,205.688 3325.28,206.19 3325.89,206.19Z" style="fill:rgb(10,31,64);"></path>                </g>                <g transform="matrix(0.80518,0,0,0.80518,2010.62,914.892)">                    <path d="M3325.69,199.565C3325.84,199.463 3326.11,199.279 3326.34,199.161C3328.16,198.233 3331.48,197.316 3332.06,197.199C3332.67,197.078 3333.06,196.487 3332.94,195.882C3332.82,195.276 3332.23,194.882 3331.62,195.004C3330.88,195.154 3326.14,196.496 3324.48,197.665C3323.55,198.319 3323.35,199.125 3323.53,199.69C3323.71,200.28 3324.34,200.611 3324.93,200.428C3325.34,200.301 3325.62,199.96 3325.69,199.565Z" style="fill:rgb(10,31,64);"></path>                </g>                <g transform="matrix(0.80518,0,0,0.80518,2010.62,914.892)">                    <path d="M3330.88,197.439C3330.67,197.439 3330.46,197.497 3330.28,197.618C3329.34,198.223 3329.72,199.067 3329.78,199.176C3329.88,199.38 3330.21,199.888 3330.98,199.762C3331.22,199.723 3332.77,199.057 3333.38,198.82C3334.74,198.291 3336.2,197.862 3337.62,197.508C3338.22,197.358 3338.58,196.75 3338.43,196.151C3338.28,195.551 3337.67,195.186 3337.07,195.336C3335.57,195.713 3334.02,196.171 3332.57,196.734C3332.19,196.883 3331.39,197.232 3330.88,197.439Z" style="fill:rgb(10,31,64);"></path>                </g>                <g transform="matrix(0.80518,0,0,0.80518,2010.62,914.892)">                    <path d="M3341.85,244.105C3341.76,244.148 3341.67,244.205 3341.59,244.276C3341.13,244.684 3341.08,245.392 3341.49,245.855C3341.56,245.926 3342.25,246.538 3343.09,245.969C3343.83,245.471 3347.3,242.722 3347.5,242.535C3350.09,240.137 3352.67,238.279 3355.58,236.301C3356.09,235.954 3356.23,235.257 3355.88,234.746C3355.53,234.235 3354.84,234.102 3354.32,234.45C3351.32,236.494 3348.65,238.418 3345.98,240.894C3345.79,241.069 3342.57,243.616 3341.85,244.105ZM3342.46,244.003C3342.72,244.033 3342.98,244.158 3343.17,244.375C3343.02,244.201 3342.8,244.035 3342.46,244.003ZM3342.41,243.999L3342.42,244L3342.41,243.999Z" style="fill:rgb(10,31,64);"></path>                </g>                <g transform="matrix(0.80518,0,0,0.80518,2010.62,914.892)">                    <path d="M3352.92,246.089L3352.99,246.038C3353.82,245.482 3358.05,242.72 3358.77,242.114C3359.24,241.715 3359.3,241.008 3358.9,240.537C3358.5,240.065 3357.8,240.006 3357.32,240.405C3356.63,240.99 3352.54,243.645 3351.74,244.181C3351.56,244.304 3351.46,244.392 3351.44,244.408C3351.08,244.763 3351.11,245.115 3351.11,245.237C3351.12,245.635 3351.3,245.929 3351.61,246.136C3352.02,246.411 3352.55,246.377 3352.92,246.089Z" style="fill:rgb(10,31,64);"></path>                </g>                <g transform="matrix(0.80518,0,0,0.80518,2010.62,914.892)">                    <path d="M3348.97,249.856C3348.71,249.794 3348.42,249.826 3348.17,249.968C3347.28,250.465 3347.5,251.209 3347.57,251.404C3347.66,251.665 3347.88,252.024 3348.43,252.136C3348.53,252.157 3348.74,252.175 3349.02,252.135C3349.48,252.068 3350.41,251.827 3350.8,251.67C3351.91,251.227 3352.98,250.727 3354.07,250.23C3357.37,248.714 3360.35,246.984 3363.11,244.593C3363.58,244.189 3363.63,243.481 3363.23,243.014C3362.82,242.547 3362.11,242.497 3361.65,242.902C3359.05,245.151 3356.24,246.77 3353.13,248.196C3352.08,248.677 3351.04,249.163 3349.97,249.591C3349.78,249.667 3349.3,249.783 3348.97,249.856ZM3349.34,251.872L3349.33,251.884L3349.33,251.879L3349.34,251.872Z" style="fill:rgb(10,31,64);"></path>                </g>            </g>            <g transform="matrix(0.761392,0,0,0.723691,4389.44,-117.101)">                <path d="M645.079,1798.35L663.038,1798.35C672.903,1798.35 680.913,1789.92 680.913,1779.54L680.913,1454.04C680.913,1443.66 672.903,1435.23 663.038,1435.23L275.926,1435.23C266.06,1435.23 258.051,1443.66 258.051,1454.04L258.051,1779.54C258.051,1789.92 266.06,1798.35 275.926,1798.35L397.259,1798.35" style="fill:none;stroke:rgb(10,31,64);stroke-width:2.43px;"></path>            </g>        </g>    </g></svg>