<?xml version="1.0" encoding="UTF-8"?><svg id="Ebene_1" xmlns="http://www.w3.org/2000/svg" viewBox="0 0 2776.51 939.67"><defs><style>.cls-1{fill:#232a50;isolation:isolate;opacity:1;stroke-width:0px;}</style></defs><polygon class="cls-1" points="1731.83 372.49 1685.36 326.02 1581.82 429.56 1478.27 326.02 1431.8 372.49 1535.35 476.03 1431.8 579.58 1478.27 626.05 1581.82 522.5 1685.36 626.05 1731.83 579.58 1628.29 476.03 1731.83 372.49"/><path class="cls-1" d="M1927.34,230.26c-83.06,83.4-166.16,166.8-249.25,250.23,75.77,76.26,151.7,152.36,227.83,228.32,125.78.37,260.42.56,390.62.56,43.14,0,85.8-.02,127.47-.07V230.26h-496.67ZM2403.26,688.56l-106.72.05c-127.24,0-258.71-.17-382.01-.52-69.22-69.06-138.26-138.26-207.17-207.58l92.89-93.24,135.71-136.25h467.3v437.55Z"/><path class="cls-1" d="M609.44,459.39c0,31.27,2.79,65.6,8.38,103.01l-93.8-230.31h-77.47v289.77h55.69v-112.64c0-23.45-.77-43.89-2.3-61.35-1.54-17.44-3.56-36.08-6.07-55.9l92.12,229.89h79.14v-289.77h-55.69v127.3Z"/><polygon class="cls-1" points="715.97 621.86 777.52 621.86 777.52 503.78 864.62 503.78 864.62 458.97 777.52 458.97 777.52 376.9 877.6 376.9 884.3 332.09 715.97 332.09 715.97 621.86"/><path class="cls-1" d="M1095.26,362.87c-27.22-20.52-63.44-30.78-108.66-30.78h-75.79v289.77h82.91c41.59,0,75.72-10.95,102.38-32.87,26.66-21.91,39.99-59.67,39.99-113.27s-13.61-92.33-40.83-112.85ZM1052.55,554.65c-12.98,14.66-31.34,21.98-55.06,21.98h-25.13v-199.32h23.87c15.63,0,28.9,2.58,39.78,7.74,10.89,5.17,19.61,15.01,26.17,29.52,6.56,14.52,9.84,34.9,9.84,61.14,0,37.97-6.49,64.28-19.47,78.93Z"/><rect class="cls-1" x="1174.4" y="332.09" width="61.55" height="289.77"/><path class="cls-1" d="M1903.26,388.41c-11.17,22.76-16.75,49.9-16.75,81.45s5.44,59.95,16.33,82.7c10.89,22.76,26.1,39.99,45.64,51.72,19.54,11.72,42.29,17.59,68.26,17.59,18.42,0,35.24-3.42,50.46-10.26,15.21-6.84,27.98-15.56,38.31-26.17l-28.47-35.59c-9.77,7.54-19.12,13.33-28.06,17.38-8.94,4.05-18.84,6.07-29.73,6.07-20.94,0-37.48-8.44-49.62-25.33-12.15-16.89-18.22-42.92-18.22-78.1s6.07-62.46,18.22-79.35c12.14-16.89,28.54-25.33,49.2-25.33,18.43,0,36.01,6.84,52.76,20.52l30.57-35.59c-12.84-10.61-25.96-18.49-39.36-23.66-13.4-5.17-29.18-7.75-47.32-7.75-24.57,0-46.63,5.93-66.16,17.79-19.54,11.87-34.9,29.18-46.06,51.92Z"/><path class="cls-1" d="M2271.71,564.91c-9.07,6.98-21.15,10.47-36.22,10.47-14.24,0-27.36-2.44-39.36-7.33-12.01-4.88-23.59-12.07-34.76-21.57l-31.41,34.76c12.84,12.56,28.19,22.48,46.06,29.73,17.86,7.25,38.24,10.89,61.13,10.89s42.85-3.84,59.88-11.52c17.03-7.68,30.01-18.28,38.95-31.82,8.93-13.54,13.4-29.24,13.4-47.11,0-25.12-7.12-44.45-21.36-58-14.24-13.54-35.74-24.92-64.48-34.13-16.19-5.02-28.34-9.49-36.43-13.4-8.1-3.91-13.75-8.09-16.96-12.56-3.21-4.46-4.82-10.19-4.82-17.17,0-10.05,3.83-17.8,11.52-23.24,7.68-5.45,17.93-8.17,30.78-8.17,11.73,0,22.75,1.96,33.08,5.86,10.32,3.91,20.65,10.05,30.99,18.42l29.31-33.92c-13.12-12.28-27.43-21.42-42.92-27.43-15.49-6-33.71-9-54.65-9-19.54,0-36.99,3.35-52.34,10.05-15.36,6.7-27.36,16.27-36.01,28.68-8.66,12.43-12.98,26.73-12.98,42.92,0,22.06,6.77,39.92,20.31,53.6,13.54,13.68,36.08,25.4,67.63,35.17,14.79,4.47,26.1,8.79,33.92,12.98,7.81,4.19,13.33,8.87,16.54,14.03,3.21,5.17,4.82,11.66,4.82,19.47,0,12.56-4.54,22.34-13.61,29.31Z"/><path class="cls-1" d="M1235.59,230.81c-221.17-.37-442.35-.56-663.54-.56-73.18,0-146.37.02-219.55.07v479.02c76.83.03,153.65.07,230.46.07,224.36,0,448.73-.19,673.08-.54,76.27-76.27,152.55-152.55,228.81-228.81-83.08-83.08-166.18-166.18-249.25-249.25ZM1247.43,688.14c-221.48.34-442.99.52-664.46.52l-209.71-.07V251.06l198.8-.05c218.32,0,436.62.19,654.92.54l228.52,228.52-208.07,208.07Z"/></svg>