<svg xmlns="http://www.w3.org/2000/svg" viewBox="0 0 813 422"><g id="Dyptich_B_W" data-name="Dyptich B/W"><path d="M424.85,83.08h.08c1.37-1.79,4.15-2.78,6.5-2.78,5.09,0,8.17,3.38,8.17,8.34v13.47h-4.41V88.34c0-2.82-1.28-4.36-4.23-4.36-4.32,0-6.11,3-6.11,7v11.16h-4.41V80.69h4.41Z" style="fill:#1d1d1b"/><path d="M459.94,100.06a9.08,9.08,0,0,1-6.2,2.43c-4.15,0-7.7-2.26-7.7-6.62,0-5.56,5.22-7.23,9.92-7.23h4v-.77c0-2.44-.35-4.23-4-4.23-2.27,0-4.58.34-4.58,2.44H447c.3-4.75,4.83-5.78,8.77-5.78,6.19,0,8.59,2.18,8.59,8.47v13.34h-4.4ZM455.36,92c-2.39,0-4.92.89-4.92,3.72,0,2.22,1.59,3.46,3.72,3.46,3.89,0,5.78-3,5.78-6.46V92Z" style="fill:#1d1d1b"/><path d="M480.17,80.3h7.66V84h-7.66V94.71c0,2,.34,4.11,2.87,4.11a9.25,9.25,0,0,0,4.79-1.67v4.06a10.15,10.15,0,0,1-4.88,1.28c-5.17,0-7.18-3.42-7.18-8.21V84h-4.4V80.3h4.4V75.43l4.4-1.16Z" style="fill:#1d1d1b"/><path d="M507.1,80.69v21.42h-4.41V84.71h-6.88v-4Zm0-9.71v5.43H501V71Z" style="fill:#1d1d1b"/><path d="M537,91.29c0,6.33-3.8,11.2-10.39,11.2s-10.39-4.87-10.39-11.2c0-6.5,3.89-11,10.39-11S537,84.79,537,91.29Zm-16.37,0c0,4,1.37,7.87,6,7.87s6-3.89,6-7.87-1.58-7.73-6-7.73S520.61,87.36,520.61,91.33Z" style="fill:#1d1d1b"/><path d="M547.82,83.08h.08c1.37-1.79,4.15-2.78,6.5-2.78,5.09,0,8.17,3.38,8.17,8.34v13.47h-4.41V88.34c0-2.82-1.28-4.36-4.23-4.36-4.32,0-6.11,3-6.11,7v11.16h-4.41V80.69h4.41Z" style="fill:#1d1d1b"/><path d="M582.9,100.06a9.06,9.06,0,0,1-6.2,2.43c-4.15,0-7.69-2.26-7.69-6.62,0-5.56,5.21-7.23,9.92-7.23h4v-.77c0-2.44-.34-4.23-4-4.23-2.27,0-4.58.34-4.58,2.44H570c.3-4.75,4.83-5.78,8.76-5.78,6.2,0,8.6,2.18,8.6,8.47v13.34H582.9ZM578.33,92c-2.4,0-4.92.89-4.92,3.72,0,2.22,1.58,3.46,3.72,3.46,3.89,0,5.77-3,5.77-6.46V92Z" style="fill:#1d1d1b"/><path d="M601.65,93.86c0,3.55,1.32,4.57,4.83,4.57h2.86v3.68h-4c-6.41,0-8.12-3.34-8.12-9.36V71h4.4Z" style="fill:#1d1d1b"/><path d="M620.28,92.27a5.86,5.86,0,0,0,6.24,6.55c1.28,0,2.91-.13,3.38-1.5h4.36c-.21,4.06-4.62,5.17-8,5.17-6.8,0-10.43-4.27-10.43-10.94,0-6.37,3.12-11.25,9.87-11.25s9.32,4.41,9.32,10.65v1.32Zm10.39-3.67c0-2.87-2.18-4.62-5-4.62s-5.22,1.75-5.39,4.62Z" style="fill:#1d1d1b"/><path d="M425.27,132.28H434v4h-8.72v13.13h-4.41v-29h15.22v4H425.27Z" style="fill:#1d1d1b"/><path d="M461.39,138.6c0,6.33-3.81,11.21-10.39,11.21s-10.39-4.88-10.39-11.21c0-6.5,3.89-11,10.39-11S461.39,132.1,461.39,138.6Zm-16.38.05c0,4,1.37,7.86,6,7.86s6-3.89,6-7.86-1.59-7.74-6-7.74S445,134.67,445,138.65Z" style="fill:#1d1d1b"/><path d="M472.91,130.35H473a6.8,6.8,0,0,1,5.55-2.73,6.26,6.26,0,0,1,6.5,6.49V135h-4.4v-.64c0-1.67-.81-3.42-2.69-3.42-4.19,0-5,4.19-5,7.44v11.07h-4.4V128h4.4Z" style="fill:#1d1d1b"/><path d="M503.59,133.34c-.08-1.92-2.3-2.39-3.63-2.39-1.58,0-4.06.39-4.06,2.57,0,1.83,1.19,2.43,2.82,2.73,4.32.86,10.22,1.46,10.22,7.23,0,5.17-5.6,6.33-9.75,6.33-4,0-8.47-1.33-8.47-6.08h4.41c.08,2.53,2.73,2.74,4.15,2.74,1.83,0,5.25-.51,5.25-3,0-2.18-1.75-2.52-3.5-2.82a30.64,30.64,0,0,1-6.37-1.8,5.29,5.29,0,0,1-3.17-5.13c0-5,5.09-6.11,8.47-6.11,3.93,0,8,1.66,8,5.08v.64Z" style="fill:#1d1d1b"/><path d="M528.36,133.77c-.08-1.54-1.83-2.48-3.46-2.48-4.27,0-5.17,3.77-5.17,7.27s.81,7.57,5,7.57a3.54,3.54,0,0,0,3.67-3.25h4.41c0,4.53-4.41,6.93-8.38,6.93-6.33,0-9.07-5.43-9.07-11.21s3.21-11,9.45-11c4,0,7.36,2,8,6.15Z" style="fill:#1d1d1b"/><path d="M544.09,129.75a7.93,7.93,0,0,1,5.56-2.13c5.52,0,7.44,4,7.44,8.89v12.91h-4.4V136.17c0-2.7-.56-4.54-3.68-4.54-4.36,0-4.92,2.74-4.92,6.33v11.46h-4.4V118.29h4.4Z" style="fill:#1d1d1b"/><path d="M579,147c-1.67,2-4.66,2.78-7.15,2.78-4.83,0-7.61-3.13-7.61-7.79V128h4.41v14c0,2.91.94,4.11,4,4.11,4.75,0,6.38-2.95,6.38-7.27V128h4.4v21.42H579Z" style="fill:#1d1d1b"/><path d="M594.8,130.4h.08c1.37-1.8,4.15-2.78,6.5-2.78,5.09,0,8.17,3.37,8.17,8.33v13.47h-4.41V135.65c0-2.82-1.28-4.36-4.23-4.36-4.32,0-6.11,3-6.11,7v11.16h-4.41V128h4.41Z" style="fill:#1d1d1b"/><path d="M634.67,148.65c0,6.59-4.44,8.12-10.13,8.12-3.38,0-8.08-.47-8.08-5v-.48h4.4c-.13,1.93,2.18,2.14,3.64,2.14,5,0,5.77-1.15,5.77-4.49v-3.16l-.17.13a8.4,8.4,0,0,1-5.73,2.14c-6.2,0-8.81-4.88-8.81-10.56,0-5.48,2.87-10,8.72-10,2.14,0,4.66.6,6,2.31v0h.08V128h4.41Zm-4.36-10.94c0-3.55-1.24-6.8-5.3-6.8s-5,3.55-5,6.92c0,3.6,1.07,7,5.21,7C629.16,144.85,630.31,141.08,630.31,137.71Z" style="fill:#1d1d1b"/><path d="M654.24,133.34c-.08-1.92-2.3-2.39-3.63-2.39-1.58,0-4.06.39-4.06,2.57,0,1.83,1.2,2.43,2.82,2.73,4.32.86,10.22,1.46,10.22,7.23,0,5.17-5.6,6.33-9.75,6.33-4,0-8.46-1.33-8.46-6.08h4.4c.08,2.53,2.73,2.74,4.15,2.74,1.83,0,5.25-.51,5.25-3,0-2.18-1.75-2.52-3.5-2.82a30.64,30.64,0,0,1-6.37-1.8,5.29,5.29,0,0,1-3.17-5.13c0-5,5.09-6.11,8.47-6.11,3.93,0,8,1.66,8,5.08v.64Z" style="fill:#1d1d1b"/><path d="M681.63,147.2a9.29,9.29,0,0,1-6.11,2.61c-6.42,0-9.54-5.18-9.54-11s2.82-11.15,9.24-11.15c2.35,0,4.91.77,6.32,2.65h.09v-12H686v31.13h-4.4Zm0-8.77c0-3.8-1.62-7.14-5.9-7.14-3.93,0-5.34,3.81-5.34,7.14,0,3.59,1.41,7.7,5.64,7.7S681.63,142,681.63,138.43Z" style="fill:#1d1d1b"/><path d="M706.09,147.37a9.05,9.05,0,0,1-6.2,2.44c-4.14,0-7.69-2.27-7.69-6.63,0-5.56,5.21-7.23,9.92-7.23h4v-.77c0-2.43-.34-4.23-4-4.23-2.27,0-4.58.34-4.58,2.44h-4.4c.3-4.75,4.83-5.77,8.76-5.77,6.2,0,8.6,2.18,8.6,8.46v13.34h-4.41Zm-4.57-8.08c-2.4,0-4.92.9-4.92,3.72,0,2.22,1.58,3.46,3.72,3.46,3.89,0,5.77-2.95,5.77-6.46v-.72Z" style="fill:#1d1d1b"/><path d="M724.9,127.62h7.66v3.67H724.9V142c0,2,.35,4.11,2.87,4.11a9.22,9.22,0,0,0,4.79-1.67v4.06a10,10,0,0,1-4.88,1.29c-5.17,0-7.18-3.42-7.18-8.21V131.29h-4.4v-3.67h4.4v-4.88l4.4-1.15Z" style="fill:#1d1d1b"/><path d="M743,139.59c-.21,3.89,2.31,6.54,6.25,6.54,1.28,0,2.9-.13,3.37-1.5H757c-.21,4.06-4.61,5.18-8,5.18-6.8,0-10.43-4.28-10.43-10.95,0-6.37,3.12-11.24,9.88-11.24s9.32,4.4,9.32,10.64v1.33Zm10.39-3.68c0-2.86-2.18-4.62-5-4.62a5.12,5.12,0,0,0-5.39,4.62Z" style="fill:#1d1d1b"/><path d="M768.67,130.4h.08c1.37-1.8,4.15-2.78,6.5-2.78,5.09,0,8.17,3.37,8.17,8.33v13.47H779V135.65c0-2.82-1.29-4.36-4.24-4.36-4.32,0-6.11,3-6.11,7v11.16h-4.41V128h4.41Z" style="fill:#1d1d1b"/><path d="M430.2,190.71h5.22v4H420.58v-4h5.22v-21h-4.36v-4h13.08v4H430.2Z" style="fill:#1d1d1b"/><path d="M448.1,175.71h.08c1.37-1.8,4.15-2.78,6.5-2.78,5.09,0,8.17,3.38,8.17,8.34v13.46h-4.41V181c0-2.83-1.28-4.36-4.23-4.36-4.32,0-6.11,2.95-6.11,7v11.16h-4.41V173.31h4.41Z" style="fill:#1d1d1b"/><path d="M496.74,173.31V177h-17v17.74h-4.41V177H469.2v-3.68h6.11v-1c0-5.43,2.1-8.68,8.17-8.68h2.26v3.67h-1c-4.19,0-5,.82-5,5v1Z" style="fill:#1d1d1b"/><path d="M500.17,175.66h.09a6.8,6.8,0,0,1,5.56-2.73,6.26,6.26,0,0,1,6.49,6.5v.85h-4.4v-.64c0-1.67-.81-3.42-2.69-3.42-4.19,0-5.05,4.19-5.05,7.44v11.07h-4.4V173.31h4.4Z" style="fill:#1d1d1b"/><path d="M529.77,192.68a9.05,9.05,0,0,1-6.2,2.44c-4.14,0-7.69-2.27-7.69-6.63,0-5.56,5.21-7.22,9.92-7.22h4v-.77c0-2.44-.34-4.24-4-4.24-2.27,0-4.58.35-4.58,2.44h-4.4c.3-4.75,4.83-5.77,8.76-5.77,6.2,0,8.6,2.18,8.6,8.46v13.34h-4.41Zm-4.57-8.08c-2.4,0-4.92.9-4.92,3.72,0,2.22,1.58,3.46,3.72,3.46,3.89,0,5.77-2.95,5.77-6.45v-.73Z" style="fill:#1d1d1b"/><path d="M554.43,178.66c-.08-1.93-2.31-2.4-3.63-2.4-1.58,0-4.06.39-4.06,2.57,0,1.84,1.19,2.44,2.82,2.73,4.32.86,10.22,1.46,10.22,7.23,0,5.17-5.6,6.33-9.75,6.33-4,0-8.47-1.33-8.47-6.07H546c.08,2.52,2.73,2.73,4.15,2.73,1.83,0,5.25-.51,5.25-3,0-2.18-1.75-2.52-3.5-2.82a29.47,29.47,0,0,1-6.37-1.8,5.28,5.28,0,0,1-3.17-5.13c0-5,5.09-6.11,8.47-6.11,3.93,0,8,1.67,8,5.09v.64Z" style="fill:#1d1d1b"/><path d="M574.94,172.93h7.65v3.68h-7.65v10.73c0,2,.34,4.1,2.86,4.1a9.22,9.22,0,0,0,4.79-1.67v4.07a10.14,10.14,0,0,1-4.87,1.28c-5.18,0-7.19-3.42-7.19-8.21v-10.3h-4.4v-3.68h4.4v-4.88l4.41-1.15Z" style="fill:#1d1d1b"/><path d="M596.45,175.66h.09a6.8,6.8,0,0,1,5.56-2.73,6.27,6.27,0,0,1,6.5,6.5v.85h-4.41v-.64c0-1.67-.81-3.42-2.69-3.42-4.19,0-5,4.19-5,7.44v11.07h-4.4V173.31h4.4Z" style="fill:#1d1d1b"/><path d="M629.65,192.34c-1.67,2-4.66,2.78-7.14,2.78-4.83,0-7.61-3.12-7.61-7.78v-14h4.4v14c0,2.9,1,4.1,4,4.1,4.75,0,6.37-2.95,6.37-7.27V173.31h4.4v21.42h-4.4Z" style="fill:#1d1d1b"/><path d="M647.7,181l8.17-7.66h5.81l-10.22,9.28,11.16,12.14h-5.73l-9.19-10v10h-4.4V163.61h4.4Z" style="fill:#1d1d1b"/><path d="M674.65,172.93h7.65v3.68h-7.65v10.73c0,2,.34,4.1,2.86,4.1a9.22,9.22,0,0,0,4.79-1.67v4.07a10.14,10.14,0,0,1-4.87,1.28c-5.18,0-7.19-3.42-7.19-8.21v-10.3h-4.4v-3.68h4.4v-4.88l4.41-1.15Z" style="fill:#1d1d1b"/><path d="M703,192.34c-1.66,2-4.66,2.78-7.14,2.78-4.83,0-7.61-3.12-7.61-7.78v-14h4.41v14c0,2.9.94,4.1,4,4.1,4.75,0,6.37-2.95,6.37-7.27V173.31h4.41v21.42H703Z" style="fill:#1d1d1b"/><path d="M720.34,175.66h.08a6.81,6.81,0,0,1,5.56-2.73,6.27,6.27,0,0,1,6.5,6.5v.85h-4.4v-.64c0-1.67-.82-3.42-2.7-3.42-4.19,0-5,4.19-5,7.44v11.07h-4.41V173.31h4.41Z" style="fill:#1d1d1b"/><path d="M430.59,245.09l-1,3.65h5.33l-.19.67h-5.33L425,265.69c-2.25,8.35-7.63,15.93-13.73,15.93-2.73,0-4.89-1.25-4.89-3.89a2.82,2.82,0,0,1,2.92-3c1.2,0,1.78.62,1.78,1.53,0,1.3-.72,2.12-.72,3.22s.38,1.44,1.34,1.44c2.26,0,4.47-3.5,6.68-11.71l5.42-19.83h-4l.14-.67H424l.72-2.64c2.07-7.39,7.83-13.25,13.49-13.25,4,0,5.72,2.54,5.72,4.66a2.94,2.94,0,0,1-3.08,2.93c-1.73,0-2.06-1-2.06-1.83.05-1.58,1.58-2.21,1.58-3.5s-1-1.59-2-1.59C433.81,233.52,431.5,241.88,430.59,245.09Z" style="fill:#1d1d1b"/><path d="M447,248.12c4.94,0,7.53,4.17,7.53,8.35,0,7.3-6.91,13.49-13.29,13.49-4.85,0-7.68-3.75-7.68-8.55C433.51,254.84,439.84,248.12,447,248.12Zm-6,21.17c5.47,0,8.73-12.87,8.73-16.81,0-2.35-.86-3.69-2.88-3.69-4.89,0-8.54,12-8.54,17C438.26,268.28,439.32,269.29,441,269.29Z" style="fill:#1d1d1b"/><path d="M465.63,259.06,462,269.33h-5l5.23-14.78c.58-1.68,1.15-3.41,1.59-5.14h-3.7l.24-.67h8.59c-.33,1.34-1,3.36-1.63,5.14l.1.09c1.34-1.87,4.08-5.52,6.86-5.52,2.55,0,3.41,1.87,3.41,3.65a3,3,0,0,1-3.07,3.31,1.62,1.62,0,0,1-1.78-1.68c0-1.58,1.68-2.21,1.68-3.6a.86.86,0,0,0-.91-.91C471.53,249.22,467.41,254.07,465.63,259.06Z" style="fill:#1d1d1b"/><path d="M504.39,269.33c5.86,0,9.65-4.56,11.14-7.39l.67.34c-.82,1.49-4.37,7.73-12,7.73-8.79,0-12.24-6.72-12.24-13.54,0-12.1,11.8-21.94,21.17-21.94,3.55,0,6.33,1.87,8.35,1.87a2.22,2.22,0,0,0,2-1.39l.71.14-3.31,9.27h-.62a27.69,27.69,0,0,0,.19-3.26c0-4.09-4.22-6-7.44-6-10.51,0-15.41,19.35-15.41,26.93C497.62,267.27,499.3,269.33,504.39,269.33Z" style="fill:#1d1d1b"/><path d="M529.59,235.15h15l-.19.68h-4.18L533.34,255a21.33,21.33,0,0,0-1.49,7.39c0,4.37,2.64,6.72,6.91,6.72,7.35,0,11.09-6.05,12.77-11.38l6.82-21.93h-4.61l.19-.68h9.51l-.2.68h-4.12l-7.06,22.56c-2.5,7.92-7.35,11.62-14.59,11.62-7,0-11-4.08-11-9.46a23.4,23.4,0,0,1,1.59-8.11l6-16.61H529.4Z" style="fill:#1d1d1b"/><path d="M572.92,235.83h-4.66l.19-.68h15.08l-.2.68h-4.17L567.4,268.66h9.31c5.71,0,9.74-6.77,10.85-8.74h.67l-3.36,9.41h-28l.19-.67h4.13Z" style="fill:#1d1d1b"/><path d="M609.77,235.83h-3.45c-5.43,0-9.61,6.86-10.81,8.78h-.67l3.36-9.46h29.72l-3.36,9.46h-.68a20.75,20.75,0,0,0,.44-4.42c0-2.44-1.54-4.36-5.38-4.36H616l-11.76,32.83h4.61l-.19.67h-15l.19-.67H598Z" style="fill:#1d1d1b"/><path d="M632.75,235.15h15l-.19.68h-4.18L636.5,255a21.33,21.33,0,0,0-1.49,7.39c0,4.37,2.64,6.72,6.91,6.72,7.35,0,11.09-6.05,12.77-11.38l6.82-21.93H656.9l.19-.68h9.51l-.2.68h-4.12l-7.06,22.56c-2.5,7.92-7.35,11.62-14.59,11.62-7,0-11-4.08-11-9.46a23.4,23.4,0,0,1,1.59-8.11l5.95-16.61h-4.61Z" style="fill:#1d1d1b"/><path d="M676.06,235.83H671.4l.29-.68H684c4.75,0,11.09,1.73,11.09,7.45,0,6.33-7.49,8-13.64,8.3l-.09.14c3.94.29,9,1.11,9,6,0,3.21-1.2,5.85-1.2,9,0,1.78.76,2.93,2.54,2.93a4.12,4.12,0,0,0,1.2-.19l.19.62a9.65,9.65,0,0,1-2.49.24c-6.1,0-7.59-1.39-7.59-5.18a33.4,33.4,0,0,1,.58-4.32,39.58,39.58,0,0,0,.53-4.66c0-2.35-1.16-4.27-6.63-4.27h-.58l-6.28,17.47h4.65l-.24.67H660l.23-.67h4.09Zm1,14.69h1.82c2.78,0,4.66-.44,5.81-1.2,1.78-1.2,3.94-3.46,3.94-8.16,0-3.61-2.21-5.33-5.38-5.33h-.91Z" style="fill:#1d1d1b"/><path d="M712.29,235.83h-4.7l.19-.68h26.79l-2.93,8.17H731a13,13,0,0,0,.57-3.46c0-2.35-1.15-4-4.8-4h-8.21l-5.32,14.83h2.59c4.61,0,7.2-4.94,7.82-6.1h.67l-5,14h-.67a11.66,11.66,0,0,0,.63-3.5c0-2.4-2.07-3.7-4.9-3.7H713l-6.19,17.33h9.31c5.72,0,9.8-6.86,10.85-8.74h.68l-3.36,9.41h-28l.19-.67h4.13Z" style="fill:#1d1d1b"/><rect x="420" y="24" width="368" height="6" style="fill:#1d1d1b"/><path d="M197.26,201c-4.27,7.76-21.7,37.56-58.61,37.56-43,0-59.95-32.91-59.95-66.29C78.7,113,136.53,64.84,182.37,64.84c17.4,0,31,9.17,40.91,9.17,4.93,0,8-3.06,9.87-6.82l3.53.71-16.22,45.37H217.4a129.3,129.3,0,0,0,.94-16c0-20-20.69-29.15-36.44-29.15-51.48,0-75.46,94.74-75.46,131.89,0,25.15,8.23,35.26,33.15,35.26,27.39,0,45.56-20.37,53.49-34.29Z"/><path d="M167.66,145.68h.22c3.56-4.66,10.78-7.22,16.88-7.22,13.22,0,21.22,8.78,21.22,21.66v35H194.54V159.34c0-7.33-3.33-11.33-11-11.33-11.21,0-15.88,7.67-15.88,18.11v29H156.22V139.46h11.44Z"/><path d="M228.58,150.57h22.65V161H228.58V195.1H217.14V119.81h39.54v10.43h-28.1Z"/><path d="M299.32,189.33a24.06,24.06,0,0,1-15.88,6.77c-16.66,0-24.76-13.44-24.76-28.65,0-15,7.33-29,24-29,6.11,0,12.78,2,16.44,6.89h.22v-31.1h11.44V195.1H299.32Zm0-22.77c0-9.88-4.22-18.55-15.32-18.55-10.22,0-13.89,9.89-13.89,18.55,0,9.33,3.67,20,14.66,20C295.55,186.55,299.32,175.89,299.32,166.56Z"/><path d="M346.48,184.66H360V195.1H321.49V184.66H335V130.24H323.71V119.81h34v10.43H346.48Z"/></g><g id="Acronym"><line x1="25" y1="393" x2="393" y2="393" style="fill:#fff;stroke:#1d1d1b;stroke-miterlimit:10;stroke-width:6px"/></g></svg>