<?xml version="1.0" encoding="UTF-8"?>
<svg id="Ebene_2" data-name="Ebene 2" xmlns="http://www.w3.org/2000/svg" viewBox="0 0 384.03 113.38">
  <defs>
    <style>
      .cls-1 {
        fill: #fff;
      }

      .cls-2 {
        fill: none;
        stroke: #fff;
        stroke-miterlimit: 10;
        stroke-width: .89px;
      }
    </style>
  </defs>
  <g id="Ebene_1-2" data-name="Ebene 1">
    <g>
      <line class="cls-2" x1="50.98" y1="53.48" x2="59.4" y2="61.52"/>
      <line class="cls-2" x1="8.96" y1="49.26" x2="16.87" y2="57.37"/>
      <rect class="cls-1" x="14.59" y="55.57" width="15.3" height="15.3"/>
      <rect class="cls-1" x="15.45" y="17.15" width="17.94" height="17.94"/>
      <rect class="cls-1" y="40.01" width="9.56" height="9.56"/>
      <rect class="cls-1" x="40.01" width="9.56" height="9.56"/>
      <circle class="cls-1" cx="43.97" cy="47.12" r="9.79"/>
      <circle class="cls-1" cx="23.27" cy="101.1" r="6.5"/>
      <circle class="cls-1" cx="62.24" cy="64.43" r="4.59"/>
      <circle class="cls-1" cx="41.89" cy="82.86" r="8.48"/>
      <g>
        <path class="cls-1" d="M89.71,70.96c.78,3.43,3.09,5.38,7.29,5.38,4.61,0,6.4-2.25,6.4-5.01,0-2.89-1.34-4.62-7.04-6.01-6-1.48-8.36-3.48-8.36-7.33s2.75-7.05,8.65-7.05,8.73,3.67,9.09,7.07h-2.83c-.56-2.67-2.27-4.71-6.38-4.71-3.62,0-5.62,1.66-5.62,4.48s1.66,3.86,6.53,5.05c7.64,1.88,8.87,4.91,8.87,8.25,0,4.15-3.04,7.57-9.45,7.57-6.77,0-9.44-3.83-9.97-7.69h2.83Z"/>
        <path class="cls-1" d="M132.14,65.35h-13.62v10.54h14.93l-.38,2.44h-17.28v-27h17.02v2.44h-14.29v9.14h13.62v2.44Z"/>
        <path class="cls-1" d="M145.21,66.04v12.29h-2.77v-27h10.07c5.42,0,8.3,2.92,8.3,7.15,0,3.47-2.03,5.66-4.85,6.34,2.52.63,4.4,2.36,4.4,7v1.09c0,1.88-.12,4.34.35,5.42h-2.74c-.5-1.16-.42-3.3-.42-5.71v-.64c0-4.17-1.21-5.94-6.23-5.94h-6.13ZM145.21,63.62h6.23c4.47,0,6.49-1.67,6.49-4.99,0-3.12-2.03-4.89-5.99-4.89h-6.73v9.88Z"/>
        <path class="cls-1" d="M177.97,78.33l-9.94-27h2.96l5.03,13.82c1.45,4.03,3.01,8.31,3.6,10.67h.08c.57-2.1,2.28-6.58,3.75-10.53l5.22-13.96h2.88l-10.3,27h-3.26Z"/>
        <path class="cls-1" d="M202.53,51.33v27h-2.76v-27h2.76Z"/>
        <path class="cls-1" d="M234.6,70.91c-1.24,4.42-4.52,7.74-10.42,7.74-7.9,0-11.98-6.15-11.98-13.77s4.04-13.94,12.06-13.94c6.07,0,9.51,3.42,10.36,7.93h-2.76c-1.11-3.25-3.24-5.52-7.73-5.52-6.37,0-9.01,5.81-9.01,11.47s2.57,11.43,9.17,11.43c4.29,0,6.34-2.33,7.54-5.33h2.76Z"/>
        <path class="cls-1" d="M260.4,65.35h-13.62v10.54h14.93l-.38,2.44h-17.28v-27h17.02v2.44h-14.29v9.14h13.62v2.44Z"/>
      </g>
      <g>
        <path class="cls-1" d="M75.44,11.99h-8.3v-4.16h21.62v4.16h-8.29v22.59h-5.03V11.99Z"/>
        <path class="cls-1" d="M114.15,22.71h-12.97v7.71h14.28l-.61,4.16h-18.56V7.83h18.44v4.16h-13.56v6.57h12.97v4.16Z"/>
        <path class="cls-1" d="M128.64,23.51v11.08h-4.92V7.83h11.31c5.72,0,8.79,3.13,8.79,7.28,0,3.55-1.97,5.55-4.12,6.32,1.62.52,3.58,1.99,3.58,6.73v1.26c0,1.81-.02,3.96.38,5.17h-4.79c-.48-1.16-.52-3.19-.52-5.92v-.45c0-3.23-.85-4.71-5.33-4.71h-4.38ZM128.64,19.46h5.18c3.48,0,4.9-1.32,4.9-3.82s-1.57-3.76-4.67-3.76h-5.41v7.58Z"/>
        <path class="cls-1" d="M175.61,24.08c0-4.7.07-9.8.18-12.75h-.17c-1.22,5.07-4.46,14.87-7.2,23.25h-4.33c-2.08-7.16-5.43-18.24-6.61-23.32h-.16c.22,3.12.32,8.78.32,13.36v9.95h-4.61V7.83h7.47c2.41,7.44,5.22,16.87,6.06,20.66h.05c.65-3.19,4.08-13.38,6.63-20.66h7.22v26.75h-4.85v-10.5Z"/>
        <path class="cls-1" d="M196.08,7.83v26.75h-5.02V7.83h5.02Z"/>
        <path class="cls-1" d="M206.65,34.58V7.83h6.32c3.51,6.09,10.43,17.77,11.75,20.68h.07c-.29-3.01-.28-7.51-.28-11.89V7.83h4.6v26.75h-5.98c-3.1-5.43-10.58-18.51-12.03-21.57h-.07c.19,2.58.24,7.75.24,12.55v9.02h-4.62Z"/>
        <path class="cls-1" d="M263.74,21.09c0,7.42-4.35,13.87-12.95,13.87s-12.61-6.1-12.61-13.76,4.73-13.76,12.96-13.76c7.72,0,12.6,5.54,12.6,13.65ZM243.38,21.09c0,5.42,2.52,9.75,7.61,9.75,5.51,0,7.55-4.59,7.55-9.68s-2.32-9.59-7.61-9.59-7.55,4.14-7.55,9.52Z"/>
        <path class="cls-1" d="M272.83,7.83h5.02v22.59h13.54l-.6,4.16h-17.95V7.83Z"/>
        <path class="cls-1" d="M322.5,21.09c0,7.42-4.35,13.87-12.95,13.87s-12.61-6.1-12.61-13.76,4.73-13.76,12.96-13.76c7.73,0,12.6,5.54,12.6,13.65ZM302.13,21.09c0,5.42,2.52,9.75,7.61,9.75,5.51,0,7.55-4.59,7.55-9.68s-2.32-9.59-7.61-9.59-7.55,4.14-7.55,9.52Z"/>
        <path class="cls-1" d="M354.31,34.58h-3.72c-.21-.72-.34-1.73-.41-2.98-1.37,1.96-3.88,3.39-7.98,3.39-7.75,0-12-5.86-12-13.48,0-8.03,4.58-14.08,12.89-14.08,6.65,0,10.66,3.71,11.35,8.34h-5.02c-.67-2.2-2.34-4.35-6.41-4.35-5.74,0-7.61,4.72-7.61,9.86s2.03,9.66,7.59,9.66,6.41-3.62,6.41-6.75v-.25h-6.44v-4.16h11.35v14.79Z"/>
        <path class="cls-1" d="M369.34,34.58v-9.58c0-.29-.05-.56-.21-.81l-9.29-16.37h5.69c2.19,4.14,5.29,10.03,6.58,12.75,1.16-2.63,4.45-8.72,6.65-12.75h5.28l-9.47,16.33c-.1.18-.2.31-.2.8v9.62h-5.03Z"/>
      </g>
      <g>
        <path class="cls-1" d="M76.11,95.73c1.4,0,2.42.1,3.12.5,1.2.67,1.77,2.12,1.77,3.72,0,1.28-.15,2.27-.4,2.8-.35.7-.67.95-1.25,1.25,1.42.45,2,1.8,2,3.97,0,2.6-.42,5.4-4.47,5.4h-3.6c-.33,0-.57-.3-.57-.6v-16.47c0-.35.32-.58.57-.58h2.82ZM74.71,103.11h1.57c1.55,0,2.77-.08,2.77-3.05,0-2.2-1.22-2.32-2.97-2.32h-1.38v5.37ZM74.71,105.11v6.27h2.05c1.65,0,2.62-.55,2.62-3.47,0-2.35-1.1-2.8-3.15-2.8h-1.52Z"/>
        <path class="cls-1" d="M91.36,113.38c-.33,0-.58-.3-.58-.6v-7.5l-3.25-8.97c-.12-.3.12-.58.48-.58h1.07c.32,0,.47.2.6.58l2.1,6.5,2.22-6.5c.12-.38.27-.58.6-.58h1.12c.35,0,.6.28.47.58l-3.42,8.97v7.5c0,.3-.22.6-.57.6h-.85Z"/>
        <path class="cls-1" d="M120.43,97.61c0,.62-.58,1.07-1.1,1.07h-2.12v13.6c0,.55-.42,1.1-1.07,1.1h-.8c-.6,0-1.07-.55-1.07-1.1v-13.6h-2.15c-.52,0-1.1-.45-1.1-1.07v-.8c0-.65.57-1.08,1.1-1.08h7.22c.52,0,1.1.42,1.1,1.08v.8Z"/>
        <path class="cls-1" d="M127.63,113.38c-.6,0-1.07-.55-1.07-1.1v-15.47c0-.5.48-1.08,1.07-1.08h.8c.65,0,1.07.58,1.07,1.08v15.47c0,.55-.42,1.1-1.07,1.1h-.8Z"/>
        <path class="cls-1" d="M140.73,95.73c1.38,0,2.45.12,3.2.55,1.3.72,1.95,2.3,1.95,3.95,0,1.3-.18,2.3-.42,2.87-.2.38-.38.65-.6.88.97.7,1.35,1.97,1.35,3.8,0,2.7-.45,5.6-4.75,5.6h-3.37c-.6,0-1.07-.55-1.07-1.1v-15.47c0-.65.6-1.08,1.07-1.08h2.65ZM139.96,102.66h.95c1.15,0,2.05-.05,2.05-2.33,0-1.55-.92-1.65-2.25-1.65h-.75v3.97ZM139.96,105.61v4.82h1.4c1.2,0,1.92-.42,1.92-2.72,0-1.77-.85-2.1-2.42-2.1h-.9Z"/>
      </g>
    </g>
  </g>
</svg>