<?xml version="1.0" encoding="utf-8"?>
<!-- Generator: Adobe Illustrator 26.2.1, SVG Export Plug-In . SVG Version: 6.00 Build 0)  -->
<svg version="1.1" id="TIB_Logo" xmlns="http://www.w3.org/2000/svg" xmlns:xlink="http://www.w3.org/1999/xlink" x="0px" y="0px"
	 width="104.9px" height="76.5px" viewBox="0 0 104.9 76.5" style="enable-background:new 0 0 104.9 76.5;" xml:space="preserve">
<style type="text/css">
	.st0{fill:#FFFFFF;}
</style>
<g>
	<g>
		<g>
			<path class="st0" d="M52.5,76.5H49c-1.2,0-2.2-0.5-3-1.3c-0.7-0.8-1.1-1.8-1.1-2.8V4c0-1,0.4-1.9,1.1-2.7C46.7,0.5,47.8,0,49,0
				h3.5c1.3,0,2.3,0.5,3.1,1.4c0.7,0.8,1,1.7,1,2.6v68.4c0,1-0.3,1.9-1,2.7C54.8,76.1,53.7,76.5,52.5,76.5z"/>
		</g>
		<g>
			<path class="st0" d="M21.9,76.5h-3.5c-1.2,0-2.2-0.5-3-1.4c-0.7-0.8-1.1-1.8-1.1-2.8V11.6H4c-1,0-1.9-0.4-2.7-1.1
				C0.5,9.8,0,8.7,0,7.6V4C0,2.8,0.5,1.7,1.4,1C2.2,0.3,3.1,0,4,0H36c1,0,1.9,0.3,2.7,1c0.9,0.7,1.4,1.8,1.4,3v3.5
				c0,1.2-0.5,2.2-1.4,3C38,11.2,37,11.6,36,11.6H25.9v60.8c0,1-0.3,1.9-1,2.7C24.2,76.1,23.1,76.5,21.9,76.5z"/>
		</g>
	</g>
	<g>
		<path class="st0" d="M84.6,76.5h-15c-1.2,0-2.2-0.5-3-1.3c-0.7-0.8-1.1-1.8-1.1-2.8V4c0-1.3,0.5-2.3,1.4-3.1c0.8-0.7,1.7-1,2.6-1
			h11.7c3,0,5.6,0.1,7.8,0.4c2.4,0.3,4.4,0.9,6,1.9c2.8,1.6,4.9,3.9,6.2,7.1c1.3,3,2,6.3,2,9.8c0,5.7-0.6,9.7-1.8,12.3
			c-0.9,1.7-1.8,2.9-2.7,3.7c-0.2,0.2-0.4,0.3-0.6,0.5c2,1.2,3.5,2.9,4.5,5.1c1.4,2.9,2.1,6.9,2.1,11.7c0,2.7-0.2,5.5-0.5,8.2
			c-0.4,2.9-1.3,5.5-2.7,7.8c-1.4,2.4-3.5,4.3-6.3,5.8C92.7,75.8,89.1,76.5,84.6,76.5z M77.2,64.9H84c1.6,0,3-0.2,4.2-0.5
			c1-0.3,1.9-0.8,2.6-1.6c0.7-0.8,1.3-2.1,1.8-3.7c0.4-1.7,0.7-4.1,0.7-6.9c0-2.2-0.2-4-0.7-5.4c-0.4-1.2-1.1-2.1-1.9-2.8
			c-0.9-0.7-2-1.1-3.4-1.4c-1.5-0.3-3.3-0.4-5.3-0.4h-4.7V64.9z M77.2,30.6h4.9c1.5,0,3-0.1,4.3-0.2c1.1-0.1,2.1-0.5,2.9-1.1
			c0.8-0.6,1.4-1.6,1.9-3c0.5-1.5,0.8-3.8,0.8-6.7c0-2-0.3-3.6-0.8-4.6c-0.5-1-1.1-1.7-1.9-2.2c-0.9-0.5-1.9-0.8-3.2-1
			c-1.5-0.1-3.1-0.2-4.8-0.2h-4.1V30.6z"/>
	</g>
</g>
</svg>
